<svg width="13" height="9" viewBox="0 0 13 9" fill="none" xmlns="http://www.w3.org/2000/svg">
<path d="M7.94556 0.2906C8.32203 -0.0968666 8.93242 -0.0968666 9.30889 0.2906L12.6993 3.78003C12.7055 3.78606 12.7116 3.79219 12.7176 3.79841C13.0941 4.18588 13.0941 4.81408 12.7176 5.20155L9.30932 8.7094C8.93285 9.09687 8.32246 9.09687 7.94599 8.7094C7.56952 8.32193 7.56952 7.69373 7.94599 7.30626L9.66015 5.54205H0.96402C0.431606 5.54205 0 5.09784 0 4.54988C0 4.00192 0.431606 3.55771 0.96402 3.55771H9.75664L7.94556 1.69374C7.56909 1.30627 7.56909 0.678066 7.94556 0.2906Z" fill="white"/>
</svg>
