<svg class="logo" width="180" height="26" viewBox="0 0 180 26" fill="none" xmlns="http://www.w3.org/2000/svg">
<path d="M39.9431 21.9404V10.9818C39.9431 10.7112 40.0694 10.4947 40.3219 10.3324C40.5925 10.152 40.9353 10.0618 41.3501 10.0618C41.6929 10.0618 41.9905 10.152 42.2431 10.3324C42.4956 10.4947 42.6219 10.7112 42.6219 10.9818V11.9559C43.3975 10.5849 44.5971 9.89946 46.2206 9.89946C47.0143 9.89946 47.7178 10.152 48.3312 10.6571C48.9625 11.1441 49.4405 11.7935 49.7652 12.6053C50.2162 11.7214 50.8025 11.0539 51.524 10.603C52.2636 10.134 53.0393 9.89946 53.851 9.89946C55.1318 9.89946 56.2322 10.3865 57.1521 11.3606C58.0902 12.3167 58.5592 13.6064 58.5592 15.2299V21.9404C58.5592 22.1749 58.4149 22.3913 58.1262 22.5898C57.8376 22.7882 57.5039 22.8874 57.1251 22.8874C56.7643 22.8874 56.4396 22.7882 56.151 22.5898C55.8624 22.3913 55.7181 22.1749 55.7181 21.9404V15.2299C55.7181 14.346 55.4655 13.6515 54.9604 13.1464C54.4553 12.6414 53.8691 12.3888 53.2016 12.3888C52.5342 12.3888 51.9389 12.6414 51.4158 13.1464C50.9107 13.6515 50.6582 14.328 50.6582 15.1758V21.9674C50.6582 22.2741 50.5139 22.5086 50.2252 22.6709C49.9547 22.8153 49.6209 22.8874 49.2241 22.8874C48.8633 22.8874 48.5386 22.8153 48.25 22.6709C47.9614 22.5086 47.8171 22.2741 47.8171 21.9674V15.2029C47.8171 14.3911 47.5645 13.7237 47.0594 13.2006C46.5724 12.6774 45.9861 12.4159 45.3006 12.4159C44.6152 12.4159 44.0199 12.6684 43.5148 13.1735C43.0278 13.6786 42.7842 14.3641 42.7842 15.2299V21.9404C42.7842 22.1749 42.6399 22.3913 42.3513 22.5898C42.0627 22.7882 41.729 22.8874 41.3501 22.8874C40.9533 22.8874 40.6196 22.7882 40.349 22.5898C40.0784 22.3913 39.9431 22.1749 39.9431 21.9404Z" fill="#403733"/>
<path d="M60.6412 5.35368C60.6412 4.93879 60.8035 4.58703 61.1282 4.29841C61.4529 4.00979 61.8408 3.86548 62.2917 3.86548C62.7427 3.86548 63.1305 4.00979 63.4552 4.29841C63.7799 4.58703 63.9423 4.93879 63.9423 5.35368C63.9423 5.75053 63.7799 6.10229 63.4552 6.40895C63.1305 6.69757 62.7427 6.84188 62.2917 6.84188C61.8408 6.84188 61.4529 6.69757 61.1282 6.40895C60.8035 6.10229 60.6412 5.75053 60.6412 5.35368ZM60.8847 21.9404V10.9818C60.8847 10.7112 61.011 10.4947 61.2635 10.3324C61.5341 10.152 61.8768 10.0618 62.2917 10.0618C62.7066 10.0618 63.0494 10.152 63.3199 10.3324C63.5905 10.4947 63.7258 10.7112 63.7258 10.9818V21.9404C63.7258 22.1749 63.5815 22.3913 63.2929 22.5898C63.0223 22.7882 62.6886 22.8874 62.2917 22.8874C61.8949 22.8874 61.5611 22.7882 61.2906 22.5898C61.02 22.3913 60.8847 22.1749 60.8847 21.9404Z" fill="#403733"/>
<path d="M65.7239 17.7193V15.284C65.7239 13.6786 66.1929 12.3798 67.1309 11.3877C68.0689 10.3955 69.4669 9.89946 71.3249 9.89946C72.4975 9.89946 73.4806 10.1069 74.2743 10.5218C75.068 10.9187 75.4648 11.3696 75.4648 11.8747C75.4648 12.1814 75.3476 12.488 75.1131 12.7947C74.8966 13.1013 74.6351 13.2547 74.3284 13.2547C74.2382 13.2547 73.9135 13.1194 73.3543 12.8488C72.8131 12.5602 72.2088 12.4159 71.5414 12.4159C69.5571 12.4159 68.565 13.3719 68.565 15.284V17.7193C68.565 19.6314 69.5662 20.5875 71.5685 20.5875C72.2539 20.5875 72.8673 20.4431 73.4084 20.1545C73.9676 19.8479 74.3013 19.6945 74.4096 19.6945C74.7704 19.6945 75.059 19.8388 75.2754 20.1275C75.5099 20.4161 75.6272 20.7227 75.6272 21.0474C75.6272 21.5525 75.2123 22.0215 74.3825 22.4545C73.5527 22.8874 72.5426 23.1039 71.352 23.1039C69.476 23.1039 68.0689 22.6168 67.1309 21.6427C66.1929 20.6506 65.7239 19.3428 65.7239 17.7193Z" fill="#403733"/>
<path d="M77.1365 21.9404V10.9818C77.1365 10.7112 77.2628 10.4947 77.5154 10.3324C77.7859 10.152 78.1197 10.0618 78.5165 10.0618C78.8773 10.0618 79.1839 10.152 79.4365 10.3324C79.689 10.4947 79.8153 10.7112 79.8153 10.9818V12.1723C80.122 11.541 80.582 11.0088 81.1953 10.5759C81.8266 10.1249 82.5121 9.89946 83.2517 9.89946H84.1176C84.4062 9.89946 84.6587 10.0257 84.8752 10.2783C85.0917 10.5128 85.1999 10.8014 85.1999 11.1441C85.1999 11.4869 85.0917 11.7845 84.8752 12.0371C84.6587 12.2896 84.4062 12.4159 84.1176 12.4159H83.2517C82.3858 12.4159 81.6192 12.7857 80.9517 13.5253C80.3023 14.2649 79.9776 15.2209 79.9776 16.3934V21.9404C79.9776 22.1749 79.8333 22.3913 79.5447 22.5898C79.2561 22.7882 78.9134 22.8874 78.5165 22.8874C78.1197 22.8874 77.7859 22.7882 77.5154 22.5898C77.2628 22.3913 77.1365 22.1749 77.1365 21.9404Z" fill="#403733"/>
<path d="M85.5147 17.7193V15.2299C85.5147 13.8049 86.0648 12.5602 87.1652 11.4959C88.2656 10.4316 89.5824 9.89946 91.1157 9.89946C92.6129 9.89946 93.9207 10.4316 95.0391 11.4959C96.1576 12.5421 96.7168 13.7868 96.7168 15.2299V17.7193C96.7168 19.1263 96.1485 20.38 95.0121 21.4804C93.8937 22.5627 92.5949 23.1039 91.1157 23.1039C89.6185 23.1039 88.3107 22.5627 87.1923 21.4804C86.0739 20.398 85.5147 19.1444 85.5147 17.7193ZM88.3558 17.7193C88.3558 18.4589 88.6263 19.1263 89.1675 19.7216C89.7087 20.2988 90.3581 20.5875 91.1157 20.5875C91.8553 20.5875 92.4957 20.2988 93.0368 19.7216C93.596 19.1263 93.8756 18.4589 93.8756 17.7193V15.2299C93.8756 14.5084 93.596 13.859 93.0368 13.2817C92.4957 12.7045 91.8553 12.4159 91.1157 12.4159C90.3581 12.4159 89.7087 12.7045 89.1675 13.2817C88.6263 13.859 88.3558 14.5084 88.3558 15.2299V17.7193Z" fill="#403733"/>
<path d="M99.8264 17.2593C99.664 17.0248 99.5829 16.7362 99.5829 16.3934C99.5829 16.0507 99.664 15.7621 99.8264 15.5276C100.007 15.2931 100.232 15.1758 100.503 15.1758H104.961C105.214 15.1758 105.439 15.3021 105.637 15.5546C105.836 15.7891 105.935 16.0687 105.935 16.3934C105.935 16.7362 105.836 17.0248 105.637 17.2593C105.439 17.4758 105.214 17.584 104.961 17.584H100.503C100.232 17.584 100.007 17.4758 99.8264 17.2593Z" fill="#403733"/>
<path d="M109.283 21.9404V10.9818C109.283 10.7112 109.409 10.4947 109.662 10.3324C109.932 10.152 110.266 10.0618 110.663 10.0618C111.024 10.0618 111.33 10.152 111.583 10.3324C111.835 10.4947 111.962 10.7112 111.962 10.9818V12.1723C112.268 11.541 112.728 11.0088 113.342 10.5759C113.973 10.1249 114.659 9.89946 115.398 9.89946H116.264C116.553 9.89946 116.805 10.0257 117.022 10.2783C117.238 10.5128 117.346 10.8014 117.346 11.1441C117.346 11.4869 117.238 11.7845 117.022 12.0371C116.805 12.2896 116.553 12.4159 116.264 12.4159H115.398C114.532 12.4159 113.766 12.7857 113.098 13.5253C112.449 14.2649 112.124 15.2209 112.124 16.3934V21.9404C112.124 22.1749 111.98 22.3913 111.691 22.5898C111.403 22.7882 111.06 22.8874 110.663 22.8874C110.266 22.8874 109.932 22.7882 109.662 22.5898C109.409 22.3913 109.283 22.1749 109.283 21.9404Z" fill="#403733"/>
<path d="M117.688 17.7193V15.1488C117.688 13.7237 118.238 12.497 119.339 11.4688C120.439 10.4226 121.765 9.89946 123.316 9.89946C124.795 9.89946 126.058 10.3775 127.104 11.3335C128.169 12.2716 128.701 13.4621 128.701 14.9052C128.701 15.4464 128.638 15.8883 128.511 16.2311C128.385 16.5558 128.187 16.7903 127.916 16.9346C127.646 17.0609 127.393 17.142 127.159 17.1781C126.924 17.2142 126.617 17.2322 126.239 17.2322H120.529V17.8546C120.529 18.7565 120.854 19.4781 121.503 20.0192C122.153 20.5424 123.001 20.8039 124.047 20.8039C124.786 20.8039 125.481 20.6326 126.13 20.2898C126.798 19.9471 127.204 19.7757 127.348 19.7757C127.655 19.7757 127.916 19.92 128.133 20.2086C128.349 20.4973 128.457 20.7769 128.457 21.0474C128.457 21.4984 128.024 21.9584 127.159 22.4274C126.293 22.8784 125.228 23.1039 123.966 23.1039C122.126 23.1039 120.619 22.6078 119.447 21.6157C118.274 20.6235 117.688 19.3247 117.688 17.7193ZM120.529 15.4735H125.021C125.418 15.4735 125.679 15.4193 125.806 15.3111C125.95 15.2029 126.022 14.9864 126.022 14.6617C126.022 13.9402 125.761 13.3268 125.237 12.8217C124.714 12.3167 124.065 12.0641 123.289 12.0641C122.532 12.0641 121.882 12.3076 121.341 12.7947C120.8 13.2637 120.529 13.868 120.529 14.6076V15.4735Z" fill="#403733"/>
<path d="M129.692 20.9392C129.692 20.6686 129.782 20.389 129.963 20.1004C130.161 19.8118 130.396 19.6675 130.666 19.6675C130.828 19.6675 131.054 19.7757 131.343 19.9922C131.631 20.1906 132.019 20.3981 132.506 20.6145C132.993 20.8129 133.579 20.9122 134.265 20.9122C135.798 20.9122 136.565 20.4251 136.565 19.451C136.565 18.9279 136.339 18.522 135.888 18.2334C135.437 17.9267 134.887 17.6922 134.238 17.5299C133.606 17.3495 132.975 17.1511 132.344 16.9346C131.712 16.7181 131.171 16.3483 130.72 15.8252C130.269 15.3021 130.044 14.6256 130.044 13.7958C130.044 12.7316 130.423 11.8206 131.18 11.063C131.938 10.2873 133.101 9.89946 134.671 9.89946C135.699 9.89946 136.628 10.0618 137.458 10.3865C138.306 10.6932 138.729 11.063 138.729 11.4959C138.729 11.7484 138.621 12.0461 138.405 12.3888C138.206 12.7135 137.954 12.8759 137.647 12.8759C137.539 12.8759 137.169 12.7496 136.538 12.497C135.906 12.2265 135.302 12.0912 134.725 12.0912C134.003 12.0912 133.453 12.2535 133.074 12.5782C132.714 12.9029 132.533 13.2637 132.533 13.6606C132.533 14.0935 132.759 14.4362 133.21 14.6888C133.661 14.9413 134.211 15.1488 134.86 15.3111C135.51 15.4735 136.15 15.6719 136.781 15.9064C137.431 16.1409 137.981 16.5468 138.432 17.124C138.883 17.7012 139.108 18.4408 139.108 19.3428C139.108 20.5153 138.693 21.4353 137.864 22.1027C137.034 22.7702 135.861 23.1039 134.346 23.1039C133.065 23.1039 131.965 22.8784 131.045 22.4274C130.143 21.9764 129.692 21.4804 129.692 20.9392Z" fill="#403733"/>
<path d="M140.09 20.9392C140.09 20.6686 140.181 20.389 140.361 20.1004C140.559 19.8118 140.794 19.6675 141.065 19.6675C141.227 19.6675 141.452 19.7757 141.741 19.9922C142.03 20.1906 142.417 20.3981 142.905 20.6145C143.392 20.8129 143.978 20.9122 144.663 20.9122C146.197 20.9122 146.963 20.4251 146.963 19.451C146.963 18.9279 146.738 18.522 146.287 18.2334C145.836 17.9267 145.286 17.6922 144.636 17.5299C144.005 17.3495 143.374 17.1511 142.742 16.9346C142.111 16.7181 141.57 16.3483 141.119 15.8252C140.668 15.3021 140.442 14.6256 140.442 13.7958C140.442 12.7316 140.821 11.8206 141.579 11.063C142.336 10.2873 143.5 9.89946 145.069 9.89946C146.097 9.89946 147.026 10.0618 147.856 10.3865C148.704 10.6932 149.128 11.063 149.128 11.4959C149.128 11.7484 149.02 12.0461 148.803 12.3888C148.605 12.7135 148.352 12.8759 148.046 12.8759C147.937 12.8759 147.568 12.7496 146.936 12.497C146.305 12.2265 145.701 12.0912 145.123 12.0912C144.402 12.0912 143.852 12.2535 143.473 12.5782C143.112 12.9029 142.932 13.2637 142.932 13.6606C142.932 14.0935 143.157 14.4362 143.608 14.6888C144.059 14.9413 144.609 15.1488 145.259 15.3111C145.908 15.4735 146.548 15.6719 147.18 15.9064C147.829 16.1409 148.379 16.5468 148.83 17.124C149.281 17.7012 149.507 18.4408 149.507 19.3428C149.507 20.5153 149.092 21.4353 148.262 22.1027C147.432 22.7702 146.26 23.1039 144.744 23.1039C143.464 23.1039 142.363 22.8784 141.443 22.4274C140.541 21.9764 140.09 21.4804 140.09 20.9392Z" fill="#403733"/>
<path d="M150.732 17.7193V15.2299C150.732 13.8049 151.283 12.5602 152.383 11.4959C153.483 10.4316 154.8 9.89946 156.333 9.89946C157.831 9.89946 159.138 10.4316 160.257 11.4959C161.375 12.5421 161.934 13.7868 161.934 15.2299V17.7193C161.934 19.1263 161.366 20.38 160.23 21.4804C159.111 22.5627 157.813 23.1039 156.333 23.1039C154.836 23.1039 153.528 22.5627 152.41 21.4804C151.292 20.398 150.732 19.1444 150.732 17.7193ZM153.573 17.7193C153.573 18.4589 153.844 19.1263 154.385 19.7216C154.926 20.2988 155.576 20.5875 156.333 20.5875C157.073 20.5875 157.713 20.2988 158.255 19.7216C158.814 19.1263 159.093 18.4589 159.093 17.7193V15.2299C159.093 14.5084 158.814 13.859 158.255 13.2817C157.713 12.7045 157.073 12.4159 156.333 12.4159C155.576 12.4159 154.926 12.7045 154.385 13.2817C153.844 13.859 153.573 14.5084 153.573 15.2299V17.7193Z" fill="#403733"/>
<path d="M163.891 21.9404V10.9818C163.891 10.7112 164.017 10.4947 164.27 10.3324C164.54 10.152 164.874 10.0618 165.271 10.0618C165.632 10.0618 165.938 10.152 166.191 10.3324C166.443 10.4947 166.57 10.7112 166.57 10.9818V12.1723C166.876 11.541 167.336 11.0088 167.95 10.5759C168.581 10.1249 169.266 9.89946 170.006 9.89946H170.872C171.161 9.89946 171.413 10.0257 171.63 10.2783C171.846 10.5128 171.954 10.8014 171.954 11.1441C171.954 11.4869 171.846 11.7845 171.63 12.0371C171.413 12.2896 171.161 12.4159 170.872 12.4159H170.006C169.14 12.4159 168.374 12.7857 167.706 13.5253C167.057 14.2649 166.732 15.2209 166.732 16.3934V21.9404C166.732 22.1749 166.588 22.3913 166.299 22.5898C166.01 22.7882 165.668 22.8874 165.271 22.8874C164.874 22.8874 164.54 22.7882 164.27 22.5898C164.017 22.3913 163.891 22.1749 163.891 21.9404Z" fill="#403733"/>
<path d="M173.073 18.6663V5.11016C173.073 4.85761 173.217 4.64115 173.506 4.46076C173.795 4.28037 174.119 4.19018 174.48 4.19018C174.841 4.19018 175.166 4.28037 175.454 4.46076C175.761 4.64115 175.914 4.85761 175.914 5.11016V10.0618H179.215C179.45 10.0618 179.639 10.17 179.784 10.3865C179.928 10.5849 180 10.8285 180 11.1171C180 11.4057 179.928 11.6582 179.784 11.8747C179.639 12.0731 179.45 12.1723 179.215 12.1723H175.914V18.6663C175.914 19.3157 176.05 19.7757 176.32 20.0463C176.609 20.3169 177.105 20.4522 177.808 20.4522H178.755C179.134 20.4522 179.432 20.5694 179.648 20.8039C179.865 21.0384 179.973 21.327 179.973 21.6698C179.973 22.0125 179.865 22.3011 179.648 22.5356C179.432 22.7702 179.134 22.8874 178.755 22.8874H177.808C174.652 22.8874 173.073 21.4804 173.073 18.6663Z" fill="#403733"/>
<path fill-rule="evenodd" clip-rule="evenodd" d="M19.0714 22.4633C19.0714 20.9816 18.431 18.7086 17.1326 16.4672C18.3912 14.7034 20.1364 13.0999 22.4068 12.1592C24.785 13.3569 26.1884 15.4298 27.0036 17.7195C27.8812 20.1845 28.0145 22.7373 28.0145 24.2663C28.0145 25.0318 28.731 25.5444 29.4691 25.5444C30.2072 25.5444 30.9237 25.0318 30.9237 24.2663C30.9237 22.64 30.7876 19.7838 29.7796 16.9525C28.9926 14.7421 27.6358 12.4452 25.2933 10.7994C27.5033 9.30151 28.4936 7.12437 28.3623 5.0929C28.1936 2.48149 26.094 0 22.4655 0C20.7483 0 19.2906 0.547321 18.2462 1.47942C17.2153 2.39945 16.6543 3.63262 16.5687 4.92185C16.4363 6.91599 17.4261 9.04546 19.5681 10.6269C17.9021 11.5745 16.5437 12.7904 15.4618 14.0805C14.38 12.7904 13.0215 11.5745 11.3555 10.6269C13.4976 9.04546 14.4874 6.91599 14.3549 4.92185C14.2693 3.63262 13.7084 2.39945 12.6775 1.47942C11.6331 0.547321 10.1754 0 8.4582 0C4.82964 0 2.73006 2.48149 2.56134 5.0929C2.43009 7.12437 3.42039 9.30151 5.63039 10.7994C3.28787 12.4452 1.93103 14.7421 1.14408 16.9525C0.136091 19.7838 0 22.64 0 24.2663C0 25.0318 0.716495 25.5444 1.45461 25.5444C2.1927 25.5444 2.90919 25.0318 2.90919 24.2663C2.90919 22.7373 3.04245 20.1845 3.92002 17.7195C4.73523 15.4298 6.13866 13.3569 8.51686 12.1592C10.7918 13.1017 12.5395 14.7098 13.7986 16.4778C12.4691 18.7481 11.8575 20.9502 11.8523 22.4602V22.4633C11.8523 23.4594 12.2601 24.3116 12.9762 24.9107C13.6735 25.4941 14.5821 25.7697 15.4618 25.7697C16.3415 25.7697 17.2501 25.4941 17.9475 24.9107C18.6635 24.3116 19.0714 23.4594 19.0714 22.4633ZM11.4507 5.0717C11.5402 6.4196 10.723 8.15772 8.40902 9.32425C6.19687 8.34281 5.37461 6.65051 5.46584 5.2387C5.51675 4.45057 5.83089 3.78482 6.33713 3.31607C6.8429 2.84774 7.56202 2.55619 8.4582 2.55619C9.43462 2.55619 10.1319 2.85395 10.6028 3.27416C11.0873 3.70657 11.4017 4.33283 11.4507 5.0717ZM14.9844 23.0584C14.8918 22.981 14.7619 22.8191 14.7615 22.4652C14.7642 21.7871 14.9667 20.7461 15.461 19.5215C15.9493 20.7486 16.1622 21.8084 16.1622 22.4633C16.1622 22.8186 16.032 22.9809 15.9393 23.0584C15.8281 23.1514 15.6591 23.2136 15.4618 23.2136C15.2646 23.2136 15.0955 23.1514 14.9844 23.0584ZM19.473 5.0717C19.3835 6.4196 20.2007 8.15772 22.5147 9.32425C24.7268 8.34281 25.549 6.65051 25.4578 5.2387C25.4069 4.45057 25.0928 3.78482 24.5865 3.31607C24.0808 2.84774 23.3617 2.55619 22.4655 2.55619C21.489 2.55619 20.7917 2.85395 20.3209 3.27416C19.8364 3.70657 19.522 4.33283 19.473 5.0717Z" fill="#F3722C"/>
</svg>
