<svg width="18" height="8" viewBox="0 0 18 8" fill="none" xmlns="http://www.w3.org/2000/svg">
<path fill-rule="evenodd" clip-rule="evenodd" d="M6.60204 2.07665C6.59657 0.860115 5.74381 -0.0168101 4.72499 0.000244498C4.21778 0.00873507 3.73102 0.251601 3.41456 0.712433C3.10607 1.16165 2.99922 1.7545 3.07689 2.42686C3.11463 2.75362 3.1654 3.06302 3.22859 3.35531C2.37152 3.46596 1.63127 3.2405 1.28518 2.76403C1.05633 2.44897 0.613032 2.37738 0.295048 2.60413C-0.0229353 2.83088 -0.0951898 3.27011 0.133663 3.58518C0.961931 4.72546 2.45269 4.9232 3.66058 4.71007C3.94008 5.33939 4.3018 5.84829 4.73413 6.24151C5.61334 7.04118 6.69749 7.283 7.72222 7.17734C8.58406 7.08848 9.41956 6.75477 10.1144 6.28626C11.4438 6.74729 13.343 6.68522 15.9542 5.84542C15.6761 6.30017 15.4387 6.69044 15.2229 7.05468C15.0458 7.35358 15.1468 7.73812 15.4485 7.91356C15.7502 8.089 16.1383 7.98892 16.3154 7.69002C16.5854 7.23424 16.8875 6.7407 17.268 6.11936L17.2687 6.11823C17.4602 5.80536 17.6717 5.46008 17.9088 5.0709C18.084 4.78329 17.9996 4.40994 17.7172 4.22395C17.2472 3.91439 16.8035 3.63626 16.4118 3.39077C15.9834 3.12228 15.6173 2.89279 15.3473 2.704C15.0616 2.50413 14.6664 2.57164 14.4646 2.85479C14.2629 3.13794 14.3311 3.52951 14.6168 3.72938C14.8811 3.91422 15.2771 4.16396 15.7192 4.4419C13.7101 5.11108 12.3054 5.24666 11.3403 5.12771C11.6543 4.70029 11.8801 4.22154 11.9596 3.71463C12.0834 2.92655 11.9828 2.24533 11.6616 1.71833C11.3357 1.18349 10.8238 0.878211 10.2831 0.790864C9.24277 0.622809 8.0621 1.26844 7.83595 2.52326C7.67829 3.39805 7.85357 4.58131 8.73593 5.45111C8.36377 5.62307 7.96729 5.73876 7.57537 5.77918C6.87966 5.85091 6.22194 5.68655 5.69354 5.20595C5.44844 4.98302 5.21344 4.67584 5.01322 4.2606C5.27336 4.12731 5.51579 3.96958 5.72944 3.78855C6.21364 3.37828 6.60527 2.795 6.60204 2.07665ZM4.80736 2.72022C4.73921 2.77796 4.66318 2.83372 4.58029 2.88672C4.54331 2.69281 4.51178 2.48647 4.48643 2.26701C4.43451 1.81762 4.52575 1.59317 4.58753 1.5032C4.64134 1.42485 4.69702 1.40663 4.74896 1.40576C4.84843 1.40409 5.18076 1.51536 5.18331 2.08291C5.18409 2.25661 5.0918 2.47921 4.80736 2.72022ZM10.5578 3.49856C10.5036 3.84336 10.289 4.24074 9.92561 4.61667C9.27829 4.12446 9.12559 3.36409 9.2326 2.77037C9.30916 2.34555 9.7026 2.12137 10.0548 2.17826C10.2103 2.20339 10.3492 2.28428 10.4471 2.4449C10.5498 2.61338 10.6459 2.93694 10.5578 3.49856Z" fill="#333333"/>
</svg>
