<svg width="27" height="19" viewBox="0 0 27 19" fill="none" xmlns="http://www.w3.org/2000/svg">
<path d="M0 13.8889C0 12.037 1.52479 7.85185 4.57438 1.33334C4.8719 0.444445 5.54132 0 6.58264 0C7.25207 0 7.84711 0.222224 8.36777 0.666671C8.96281 1.11111 9.26033 1.66667 9.26033 2.33334C9.26033 2.70371 9.18595 3 9.03719 3.22223L6.91736 9C9.14876 9.88889 10.2645 11.4815 10.2645 13.7778C10.2645 15.2593 9.7438 16.5185 8.70248 17.5556C7.73554 18.5185 6.54545 19 5.13223 19C3.71901 19 2.49174 18.5185 1.45041 17.5556C0.483471 16.5185 0 15.2963 0 13.8889ZM16.8471 13.8889C16.8471 11.8889 18.3347 7.70371 21.3099 1.33334C21.7562 0.444445 22.4256 0 23.3182 0C23.9876 0 24.6198 0.222224 25.2149 0.666671C25.8099 1.11111 26.1074 1.66667 26.1074 2.33334C26.1074 2.48148 26.0331 2.77778 25.8843 3.22223L23.6529 9C25.8843 9.88889 27 11.4815 27 13.7778C27 15.2593 26.5165 16.5185 25.5496 17.5556C24.5826 18.5185 23.3554 19 21.8678 19C20.5289 19 19.3388 18.5185 18.2975 17.5556C17.3306 16.5185 16.8471 15.2963 16.8471 13.8889Z" fill="#2D5276"/>
</svg>
