<svg width="200" height="30" viewBox="0 0 200 30" fill="none" xmlns="http://www.w3.org/2000/svg">
<path d="M44.3812 25.0616V12.8854C44.3812 12.5848 44.5215 12.3442 44.8021 12.1639C45.1027 11.9634 45.4836 11.8632 45.9446 11.8632C46.3254 11.8632 46.6561 11.9634 46.9367 12.1639C47.2173 12.3442 47.3576 12.5848 47.3576 12.8854V13.9677C48.2195 12.4445 49.5523 11.6828 51.3562 11.6828C52.2381 11.6828 53.0198 11.9634 53.7012 12.5246C54.4028 13.0658 54.9339 13.7873 55.2947 14.6893C55.7958 13.7072 56.4472 12.9656 57.2489 12.4645C58.0707 11.9434 58.9325 11.6828 59.8344 11.6828C61.2575 11.6828 62.4801 12.224 63.5023 13.3063C64.5446 14.3686 65.0657 15.8017 65.0657 17.6056V25.0616C65.0657 25.3222 64.9054 25.5627 64.5847 25.7832C64.264 26.0036 63.8932 26.1139 63.4723 26.1139C63.0714 26.1139 62.7106 26.0036 62.3899 25.7832C62.0693 25.5627 61.9089 25.3222 61.9089 25.0616V17.6056C61.9089 16.6234 61.6283 15.8518 61.0671 15.2906C60.5059 14.7294 59.8545 14.4488 59.1129 14.4488C58.3713 14.4488 57.7099 14.7294 57.1286 15.2906C56.5674 15.8518 56.2868 16.6034 56.2868 17.5454V25.0917C56.2868 25.4324 56.1265 25.693 55.8058 25.8734C55.5051 26.0337 55.1343 26.1139 54.6934 26.1139C54.2925 26.1139 53.9317 26.0337 53.6111 25.8734C53.2904 25.693 53.13 25.4324 53.13 25.0917V17.5755C53.13 16.6736 52.8494 15.932 52.2882 15.3507C51.747 14.7695 51.0956 14.4788 50.334 14.4788C49.5724 14.4788 48.9109 14.7594 48.3497 15.3206C47.8086 15.8819 47.538 16.6435 47.538 17.6056V25.0616C47.538 25.3222 47.3776 25.5627 47.057 25.7832C46.7363 26.0036 46.3655 26.1139 45.9446 26.1139C45.5036 26.1139 45.1328 26.0036 44.8322 25.7832C44.5315 25.5627 44.3812 25.3222 44.3812 25.0616Z" fill="#403733"/>
<path d="M67.379 6.63195C67.379 6.17096 67.5594 5.78012 67.9202 5.45943C68.281 5.13874 68.7119 4.97839 69.213 4.97839C69.7141 4.97839 70.145 5.13874 70.5058 5.45943C70.8665 5.78012 71.0469 6.17096 71.0469 6.63195C71.0469 7.0729 70.8665 7.46374 70.5058 7.80447C70.145 8.12516 69.7141 8.28551 69.213 8.28551C68.7119 8.28551 68.281 8.12516 67.9202 7.80447C67.5594 7.46374 67.379 7.0729 67.379 6.63195ZM67.6496 25.0616V12.8854C67.6496 12.5848 67.7899 12.3442 68.0705 12.1639C68.3712 11.9634 68.752 11.8632 69.213 11.8632C69.674 11.8632 70.0548 11.9634 70.3554 12.1639C70.6561 12.3442 70.8064 12.5848 70.8064 12.8854V25.0616C70.8064 25.3222 70.6461 25.5627 70.3254 25.7832C70.0247 26.0036 69.6539 26.1139 69.213 26.1139C68.772 26.1139 68.4012 26.0036 68.1006 25.7832C67.7999 25.5627 67.6496 25.3222 67.6496 25.0616Z" fill="#403733"/>
<path d="M73.0265 20.3715V17.6657C73.0265 15.8819 73.5476 14.4387 74.5899 13.3364C75.6321 12.234 77.1854 11.6828 79.2499 11.6828C80.5527 11.6828 81.645 11.9133 82.5269 12.3743C83.4088 12.8153 83.8498 13.3163 83.8498 13.8775C83.8498 14.2183 83.7195 14.559 83.4589 14.8997C83.2184 15.2405 82.9278 15.4108 82.5871 15.4108C82.4869 15.4108 82.1261 15.2605 81.5047 14.9599C80.9034 14.6392 80.232 14.4788 79.4904 14.4788C77.2857 14.4788 76.1833 15.5411 76.1833 17.6657V20.3715C76.1833 22.4961 77.2957 23.5584 79.5205 23.5584C80.2821 23.5584 80.9636 23.398 81.5649 23.0773C82.1862 22.7366 82.557 22.5662 82.6773 22.5662C83.0781 22.5662 83.3988 22.7266 83.6393 23.0473C83.8999 23.368 84.0302 23.7087 84.0302 24.0695C84.0302 24.6307 83.5692 25.1518 82.6472 25.6328C81.7252 26.1139 80.6028 26.3544 79.28 26.3544C77.1955 26.3544 75.6321 25.8132 74.5899 24.7309C73.5476 23.6285 73.0265 22.1754 73.0265 20.3715Z" fill="#403733"/>
<path d="M85.7072 25.0616V12.8854C85.7072 12.5848 85.8475 12.3442 86.1281 12.1639C86.4288 11.9634 86.7996 11.8632 87.2405 11.8632C87.6414 11.8632 87.9821 11.9634 88.2627 12.1639C88.5433 12.3442 88.6836 12.5848 88.6836 12.8854V14.2083C89.0244 13.5067 89.5355 12.9155 90.2169 12.4344C90.9184 11.9334 91.6801 11.6828 92.5018 11.6828H93.4639C93.7846 11.6828 94.0652 11.8231 94.3057 12.1037C94.5462 12.3643 94.6665 12.685 94.6665 13.0658C94.6665 13.4466 94.5462 13.7773 94.3057 14.0579C94.0652 14.3385 93.7846 14.4788 93.4639 14.4788H92.5018C91.5398 14.4788 90.6879 14.8897 89.9463 15.7115C89.2248 16.5333 88.864 17.5955 88.864 18.8983V25.0616C88.864 25.3222 88.7037 25.5627 88.383 25.7832C88.0623 26.0036 87.6815 26.1139 87.2405 26.1139C86.7996 26.1139 86.4288 26.0036 86.1281 25.7832C85.8475 25.5627 85.7072 25.3222 85.7072 25.0616Z" fill="#403733"/>
<path d="M95.0162 20.3715V17.6056C95.0162 16.0222 95.6275 14.6392 96.8502 13.4566C98.0728 12.2741 99.536 11.6828 101.24 11.6828C102.903 11.6828 104.356 12.2741 105.599 13.4566C106.842 14.6191 107.463 16.0021 107.463 17.6056V20.3715C107.463 21.9349 106.832 23.3279 105.569 24.5505C104.326 25.7531 102.883 26.3544 101.24 26.3544C99.576 26.3544 98.1229 25.7531 96.8802 24.5505C95.6376 23.3479 95.0162 21.9549 95.0162 20.3715ZM98.173 20.3715C98.173 21.1933 98.4737 21.9349 99.075 22.5963C99.6763 23.2377 100.398 23.5584 101.24 23.5584C102.061 23.5584 102.773 23.2377 103.374 22.5963C103.996 21.9349 104.306 21.1933 104.306 20.3715V17.6056C104.306 16.8038 103.996 16.0823 103.374 15.4409C102.773 14.7995 102.061 14.4788 101.24 14.4788C100.398 14.4788 99.6763 14.7995 99.075 15.4409C98.4737 16.0823 98.173 16.8038 98.173 17.6056V20.3715Z" fill="#403733"/>
<path d="M110.918 19.8604C110.738 19.5999 110.648 19.2792 110.648 18.8983C110.648 18.5175 110.738 18.1968 110.918 17.9363C111.119 17.6757 111.369 17.5454 111.67 17.5454H116.623C116.904 17.5454 117.154 17.6857 117.375 17.9663C117.595 18.2269 117.706 18.5376 117.706 18.8983C117.706 19.2792 117.595 19.5999 117.375 19.8604C117.154 20.1009 116.904 20.2212 116.623 20.2212H111.67C111.369 20.2212 111.119 20.1009 110.918 19.8604Z" fill="#403733"/>
<path d="M121.425 25.0616V12.8854C121.425 12.5848 121.566 12.3442 121.846 12.1639C122.147 11.9634 122.518 11.8632 122.959 11.8632C123.36 11.8632 123.7 11.9634 123.981 12.1639C124.262 12.3442 124.402 12.5848 124.402 12.8854V14.2083C124.743 13.5067 125.254 12.9155 125.935 12.4344C126.637 11.9334 127.398 11.6828 128.22 11.6828H129.182C129.503 11.6828 129.783 11.8231 130.024 12.1037C130.264 12.3643 130.385 12.685 130.385 13.0658C130.385 13.4466 130.264 13.7773 130.024 14.0579C129.783 14.3385 129.503 14.4788 129.182 14.4788H128.22C127.258 14.4788 126.406 14.8897 125.665 15.7115C124.943 16.5333 124.582 17.5955 124.582 18.8983V25.0616C124.582 25.3222 124.422 25.5627 124.101 25.7832C123.781 26.0036 123.4 26.1139 122.959 26.1139C122.518 26.1139 122.147 26.0036 121.846 25.7832C121.566 25.5627 121.425 25.3222 121.425 25.0616Z" fill="#403733"/>
<path d="M130.765 20.3715V17.5154C130.765 15.932 131.376 14.569 132.599 13.4266C133.821 12.2641 135.294 11.6828 137.018 11.6828C138.662 11.6828 140.065 12.214 141.227 13.2762C142.41 14.3185 143.001 15.6413 143.001 17.2448C143.001 17.8461 142.931 18.3371 142.79 18.718C142.65 19.0787 142.43 19.3393 142.129 19.4996C141.828 19.6399 141.548 19.7301 141.287 19.7702C141.027 19.8103 140.686 19.8303 140.265 19.8303H133.921V20.5218C133.921 21.524 134.282 22.3257 135.004 22.927C135.725 23.5083 136.667 23.7989 137.83 23.7989C138.652 23.7989 139.423 23.6085 140.145 23.2277C140.886 22.8468 141.337 22.6564 141.498 22.6564C141.838 22.6564 142.129 22.8168 142.37 23.1375C142.61 23.4582 142.73 23.7688 142.73 24.0695C142.73 24.5705 142.249 25.0816 141.287 25.6028C140.325 26.1038 139.143 26.3544 137.74 26.3544C135.695 26.3544 134.022 25.8032 132.719 24.7008C131.416 23.5985 130.765 22.1554 130.765 20.3715ZM133.921 17.8761H138.912C139.353 17.8761 139.644 17.816 139.784 17.6958C139.944 17.5755 140.024 17.335 140.024 16.9742C140.024 16.1725 139.734 15.491 139.153 14.9298C138.571 14.3686 137.85 14.088 136.988 14.088C136.146 14.088 135.425 14.3586 134.823 14.8997C134.222 15.4209 133.921 16.0923 133.921 16.9141V17.8761Z" fill="#403733"/>
<path d="M144.102 23.9492C144.102 23.6486 144.202 23.3379 144.403 23.0172C144.623 22.6965 144.884 22.5362 145.185 22.5362C145.365 22.5362 145.615 22.6564 145.936 22.8969C146.257 23.1174 146.688 23.3479 147.229 23.5884C147.77 23.8089 148.422 23.9191 149.183 23.9191C150.887 23.9191 151.739 23.378 151.739 22.2957C151.739 21.7144 151.488 21.2634 150.987 20.9427C150.486 20.602 149.875 20.3414 149.153 20.1611C148.452 19.9606 147.75 19.7402 147.049 19.4996C146.347 19.2591 145.746 18.8482 145.245 18.267C144.744 17.6857 144.493 16.9341 144.493 16.0121C144.493 14.8296 144.914 13.8174 145.756 12.9756C146.598 12.1137 147.89 11.6828 149.634 11.6828C150.777 11.6828 151.809 11.8632 152.731 12.224C153.673 12.5647 154.144 12.9756 154.144 13.4566C154.144 13.7372 154.024 14.0679 153.783 14.4488C153.563 14.8095 153.282 14.9899 152.941 14.9899C152.821 14.9899 152.41 14.8496 151.709 14.569C151.007 14.2684 150.336 14.1181 149.694 14.1181C148.893 14.1181 148.281 14.2984 147.86 14.6592C147.459 15.02 147.259 15.4209 147.259 15.8618C147.259 16.3428 147.51 16.7237 148.011 17.0043C148.512 17.2849 149.123 17.5154 149.845 17.6958C150.566 17.8761 151.278 18.0966 151.979 18.3572C152.701 18.6177 153.312 19.0687 153.813 19.7101C154.314 20.3515 154.565 21.1732 154.565 22.1754C154.565 23.4782 154.104 24.5004 153.182 25.242C152.26 25.9836 150.957 26.3544 149.273 26.3544C147.85 26.3544 146.628 26.1038 145.605 25.6028C144.603 25.1017 144.102 24.5505 144.102 23.9492Z" fill="#403733"/>
<path d="M155.656 23.9492C155.656 23.6486 155.756 23.3379 155.957 23.0172C156.177 22.6965 156.438 22.5362 156.738 22.5362C156.919 22.5362 157.169 22.6564 157.49 22.8969C157.811 23.1174 158.242 23.3479 158.783 23.5884C159.324 23.8089 159.975 23.9191 160.737 23.9191C162.441 23.9191 163.292 23.378 163.292 22.2957C163.292 21.7144 163.042 21.2634 162.541 20.9427C162.04 20.602 161.428 20.3414 160.707 20.1611C160.005 19.9606 159.304 19.7402 158.602 19.4996C157.901 19.2591 157.3 18.8482 156.798 18.267C156.297 17.6857 156.047 16.9341 156.047 16.0121C156.047 14.8296 156.468 13.8174 157.31 12.9756C158.151 12.1137 159.444 11.6828 161.188 11.6828C162.33 11.6828 163.363 11.8632 164.285 12.224C165.227 12.5647 165.698 12.9756 165.698 13.4566C165.698 13.7372 165.577 14.0679 165.337 14.4488C165.116 14.8095 164.836 14.9899 164.495 14.9899C164.375 14.9899 163.964 14.8496 163.262 14.569C162.561 14.2684 161.889 14.1181 161.248 14.1181C160.446 14.1181 159.835 14.2984 159.414 14.6592C159.013 15.02 158.813 15.4209 158.813 15.8618C158.813 16.3428 159.063 16.7237 159.564 17.0043C160.065 17.2849 160.677 17.5154 161.398 17.6958C162.12 17.8761 162.831 18.0966 163.533 18.3572C164.255 18.6177 164.866 19.0687 165.367 19.7101C165.868 20.3515 166.119 21.1732 166.119 22.1754C166.119 23.4782 165.658 24.5004 164.736 25.242C163.814 25.9836 162.511 26.3544 160.827 26.3544C159.404 26.3544 158.181 26.1038 157.159 25.6028C156.157 25.1017 155.656 24.5505 155.656 23.9492Z" fill="#403733"/>
<path d="M167.48 20.3715V17.6056C167.48 16.0222 168.092 14.6392 169.314 13.4566C170.537 12.2741 172 11.6828 173.704 11.6828C175.367 11.6828 176.82 12.2741 178.063 13.4566C179.306 14.6191 179.927 16.0021 179.927 17.6056V20.3715C179.927 21.9349 179.296 23.3279 178.033 24.5505C176.79 25.7531 175.347 26.3544 173.704 26.3544C172.04 26.3544 170.587 25.7531 169.344 24.5505C168.102 23.3479 167.48 21.9549 167.48 20.3715ZM170.637 20.3715C170.637 21.1933 170.938 21.9349 171.539 22.5963C172.14 23.2377 172.862 23.5584 173.704 23.5584C174.526 23.5584 175.237 23.2377 175.838 22.5963C176.46 21.9349 176.77 21.1933 176.77 20.3715V17.6056C176.77 16.8038 176.46 16.0823 175.838 15.4409C175.237 14.7995 174.526 14.4788 173.704 14.4788C172.862 14.4788 172.14 14.7995 171.539 15.4409C170.938 16.0823 170.637 16.8038 170.637 17.6056V20.3715Z" fill="#403733"/>
<path d="M182.101 25.0616V12.8854C182.101 12.5848 182.241 12.3442 182.522 12.1639C182.822 11.9634 183.193 11.8632 183.634 11.8632C184.035 11.8632 184.376 11.9634 184.656 12.1639C184.937 12.3442 185.077 12.5848 185.077 12.8854V14.2083C185.418 13.5067 185.929 12.9155 186.611 12.4344C187.312 11.9334 188.074 11.6828 188.896 11.6828H189.858C190.178 11.6828 190.459 11.8231 190.699 12.1037C190.94 12.3643 191.06 12.685 191.06 13.0658C191.06 13.4466 190.94 13.7773 190.699 14.0579C190.459 14.3385 190.178 14.4788 189.858 14.4788H188.896C187.933 14.4788 187.082 14.8897 186.34 15.7115C185.618 16.5333 185.258 17.5955 185.258 18.8983V25.0616C185.258 25.3222 185.097 25.5627 184.777 25.7832C184.456 26.0036 184.075 26.1139 183.634 26.1139C183.193 26.1139 182.822 26.0036 182.522 25.7832C182.241 25.5627 182.101 25.3222 182.101 25.0616Z" fill="#403733"/>
<path d="M192.303 21.4238V6.36137C192.303 6.08077 192.464 5.84025 192.784 5.63982C193.105 5.43938 193.466 5.33917 193.867 5.33917C194.268 5.33917 194.628 5.43938 194.949 5.63982C195.29 5.84025 195.46 6.08077 195.46 6.36137V11.8632H199.128C199.389 11.8632 199.599 11.9835 199.759 12.224C199.92 12.4445 200 12.715 200 13.0357C200 13.3564 199.92 13.637 199.759 13.8775C199.599 14.098 199.389 14.2083 199.128 14.2083H195.46V21.4238C195.46 22.1453 195.611 22.6564 195.911 22.9571C196.232 23.2577 196.783 23.408 197.565 23.408H198.617C199.038 23.408 199.369 23.5383 199.609 23.7989C199.85 24.0594 199.97 24.3801 199.97 24.761C199.97 25.1418 199.85 25.4625 199.609 25.723C199.369 25.9836 199.038 26.1139 198.617 26.1139H197.565C194.057 26.1139 192.303 24.5505 192.303 21.4238Z" fill="#403733"/>
<path fill-rule="evenodd" clip-rule="evenodd" d="M21.1904 25.6427C21.1904 23.9964 20.4789 21.4708 19.0362 18.9804C20.4346 17.0205 22.3737 15.2389 24.8964 14.1937C27.5389 15.5244 29.0983 17.8277 30.004 20.3718C30.9791 23.1107 31.1272 25.9471 31.1272 27.646C31.1272 28.4966 31.9233 29.0661 32.7434 29.0661C33.5635 29.0661 34.3596 28.4966 34.3596 27.646C34.3596 25.839 34.2084 22.6655 33.0884 19.5196C32.214 17.0636 30.7064 14.5114 28.1036 12.6828C30.5592 11.0185 31.6595 8.59944 31.5137 6.34225C31.3262 3.44068 28.9934 0.683472 24.9616 0.683472C23.0536 0.683472 21.434 1.29161 20.2735 2.32727C19.1281 3.34953 18.5048 4.71971 18.4097 6.15219C18.2626 8.3679 19.3623 10.734 21.7424 12.4912C19.8913 13.5441 18.3819 14.895 17.1798 16.3284C15.9778 14.895 14.4684 13.5441 12.6172 12.4912C14.9973 10.734 16.0971 8.3679 15.9499 6.15219C15.8548 4.71971 15.2316 3.34953 14.0861 2.32727C12.9256 1.29161 11.306 0.683472 9.398 0.683472C5.36626 0.683472 3.0334 3.44068 2.84594 6.34225C2.7001 8.59944 3.80044 11.0185 6.25599 12.6828C3.65319 14.5114 2.14559 17.0636 1.2712 19.5196C0.151212 22.6655 0 25.839 0 27.646C0 28.4966 0.796105 29.0661 1.61623 29.0661C2.43633 29.0661 3.23244 28.4966 3.23244 27.646C3.23244 25.9471 3.3805 23.1107 4.35558 20.3718C5.26136 17.8277 6.82073 15.5244 9.46318 14.1937C11.9909 15.241 13.9328 17.0277 15.3318 18.9921C13.8545 21.5147 13.175 23.9615 13.1692 25.6392V25.6427C13.1692 26.7494 13.6224 27.6963 14.418 28.362C15.1928 29.0102 16.2024 29.3165 17.1798 29.3165C18.1573 29.3165 19.1668 29.0102 19.9416 28.362C20.7373 27.6963 21.1904 26.7494 21.1904 25.6427ZM12.723 6.31869C12.8225 7.81636 11.9144 9.74761 9.34336 11.0437C6.88541 9.95326 5.97179 8.07293 6.07315 6.50425C6.12972 5.62855 6.47877 4.88883 7.04125 4.36799C7.60322 3.84763 8.40224 3.52368 9.398 3.52368C10.4829 3.52368 11.2577 3.85452 11.7809 4.32143C12.3192 4.80189 12.6685 5.49773 12.723 6.31869ZM16.6493 26.3039C16.5465 26.2179 16.4021 26.0381 16.4016 25.6448C16.4047 24.8913 16.6296 23.7347 17.1789 22.3741C17.7214 23.7375 17.958 24.9151 17.958 25.6427C17.958 26.0374 17.8133 26.2178 17.7103 26.3039C17.5868 26.4073 17.399 26.4763 17.1798 26.4763C16.9606 26.4763 16.7728 26.4073 16.6493 26.3039ZM21.6366 6.31869C21.5372 7.81636 22.4452 9.74761 25.0163 11.0437C27.4742 9.95326 28.3878 8.07293 28.2865 6.50425C28.2299 5.62855 27.8809 4.88883 27.3184 4.36799C26.7564 3.84763 25.9574 3.52368 24.9616 3.52368C23.8767 3.52368 23.1019 3.85452 22.5788 4.32143C22.0404 4.80189 21.6911 5.49773 21.6366 6.31869Z" fill="#F3722C"/>
</svg>
