<svg width="217" height="67" viewBox="0 0 217 67" fill="none" xmlns="http://www.w3.org/2000/svg">
<path fill-rule="evenodd" clip-rule="evenodd" d="M197.247 6.02994C194.437 8.52386 191.422 11.9265 189.503 14.304C189.157 14.7339 188.527 14.8012 188.097 14.4544C187.667 14.1076 187.6 13.478 187.947 13.0482C189.902 10.6244 192.995 7.12919 195.919 4.53408C197.373 3.24431 198.841 2.12582 200.141 1.48937C200.79 1.17204 201.466 0.939572 202.12 0.907929C202.806 0.874774 203.497 1.06533 204.035 1.61531C204.673 2.26797 204.83 3.09686 204.738 3.88964C204.649 4.65223 204.328 5.44757 203.921 6.21198C203.105 7.74519 201.775 9.4606 200.502 11.0441C200.263 11.3424 200.025 11.6358 199.793 11.9232C198.757 13.2029 197.817 14.3646 197.193 15.3203C196.928 15.7262 196.755 16.0435 196.656 16.2787C196.742 16.2541 196.847 16.2183 196.976 16.1662C197.486 15.9595 198.137 15.5859 198.911 15.0718C200.033 14.3262 201.3 13.3647 202.627 12.3569C203.133 11.9726 203.649 11.5815 204.168 11.1931C206.003 9.82096 207.908 8.4696 209.496 7.75985C210.278 7.41032 211.12 7.15124 211.904 7.22634C212.316 7.26589 212.728 7.39983 213.09 7.67251C213.452 7.94465 213.708 8.3121 213.876 8.72966C214.57 10.4478 213.571 12.0676 212.418 13.3002C211.211 14.5896 209.469 15.8538 207.795 17.0062C207.372 17.2974 206.954 17.5811 206.546 17.8575C205.297 18.7054 204.148 19.4853 203.263 20.2046C202.676 20.682 202.278 21.0767 202.06 21.3888C202.013 21.4557 201.981 21.5099 201.958 21.5528C201.966 21.5537 201.974 21.5546 201.982 21.5554C202.273 21.5841 202.741 21.5339 203.401 21.374C204.665 21.0679 206.273 20.4554 207.95 19.8163C208.003 19.7959 208.057 19.7755 208.11 19.7551C209.792 19.1143 211.557 18.447 212.912 18.1716C213.568 18.0383 214.293 17.9591 214.906 18.133C215.237 18.2269 215.584 18.4083 215.847 18.7376C216.112 19.0697 216.219 19.4606 216.23 19.8399C216.251 20.5472 215.974 21.1989 215.613 21.7549C215.248 22.3165 214.744 22.8598 214.185 23.3748C213.067 24.4036 211.59 25.4391 210.163 26.3974C209.77 26.661 209.383 26.9182 209.005 27.1688C207.98 27.8488 207.027 28.4806 206.25 29.0611C205.845 29.3638 205.513 29.6343 205.259 29.872C205.937 29.7669 206.821 29.5355 207.819 29.2736C208.924 28.9837 210.158 28.6599 211.172 28.546C211.675 28.4894 212.212 28.4727 212.691 28.5817C213.184 28.6941 213.763 28.9825 214.035 29.6398C214.272 30.2148 214.17 30.8538 214.005 31.37C213.828 31.9237 213.517 32.5296 213.103 33.1541C212.271 34.4078 210.951 35.8437 209.169 37.2335C205.597 40.0196 200.104 42.6725 192.769 43.2976C185.154 43.9465 179.293 39.4088 176.614 34.1674C175.274 31.5463 174.689 28.6749 175.13 26.1051C175.577 23.4991 177.08 21.2375 179.802 19.9796C184.94 17.6054 189.387 18.6881 192.175 21.1417C194.872 23.5158 196.111 27.3445 194.399 30.2387C193.45 31.8427 192.048 32.5876 190.596 32.7753C190.333 34.3993 189.589 36.1407 188.165 37.8542C187.812 38.279 187.181 38.3372 186.757 37.9842C186.332 37.6312 186.274 37.0008 186.627 36.576C187.743 35.2328 188.336 33.9134 188.577 32.7054C188.06 32.6079 187.563 32.4544 187.104 32.2598C185.942 31.7676 184.889 30.97 184.254 29.982C183.602 28.9676 183.366 27.6835 184.059 26.4536C184.39 25.8652 184.867 25.4213 185.474 25.2079C186.074 24.9968 186.691 25.0497 187.241 25.2493C188.312 25.6382 189.256 26.6163 189.874 27.8289C190.3 28.6649 190.594 29.6499 190.681 30.7292C191.48 30.5331 192.187 30.05 192.678 29.2205C193.733 27.4368 193.109 24.6285 190.853 22.6429C188.688 20.7369 185.094 19.7374 180.641 21.7952C178.567 22.7533 177.446 24.4284 177.101 26.443C176.75 28.4938 177.204 30.9268 178.395 33.2572C180.777 37.9187 185.943 41.872 192.599 41.3048C199.534 40.7139 204.661 38.2132 207.939 35.6565C209.582 34.3749 210.744 33.0922 211.436 32.0486C211.784 31.5244 211.995 31.087 212.1 30.7612C212.133 30.6572 212.151 30.5767 212.162 30.5167C212 30.4949 211.75 30.4936 211.396 30.5334C210.556 30.6278 209.475 30.9067 208.326 31.2081L208.212 31.2381C207.151 31.5166 206.016 31.8147 205.147 31.9027C204.719 31.9459 204.183 31.9607 203.722 31.7765C203.467 31.6745 203.19 31.4935 202.996 31.1858C202.801 30.8765 202.754 30.5401 202.778 30.2433C202.829 29.6057 203.247 29.0749 203.594 28.708C203.981 28.2991 204.493 27.8778 205.053 27.459C205.879 26.8421 206.903 26.1628 207.945 25.4714C208.313 25.2274 208.683 24.9819 209.048 24.7371C210.476 23.7779 211.837 22.8173 212.83 21.9031C213.327 21.4466 213.697 21.0316 213.936 20.6646C214.115 20.3901 214.192 20.1837 214.219 20.0359C214.046 20.0243 213.754 20.0414 213.31 20.1316C212.151 20.3671 210.559 20.9626 208.822 21.624C208.746 21.653 208.67 21.6821 208.594 21.7112C206.976 22.3279 205.263 22.9809 203.872 23.3178C203.152 23.4923 202.419 23.6082 201.786 23.5458C201.137 23.4818 200.362 23.1916 200.032 22.3476C199.713 21.5315 200.053 20.7697 200.421 20.2429C200.802 19.6984 201.374 19.1631 202.001 18.653C202.959 17.8737 204.215 17.0222 205.484 16.1612C205.878 15.894 206.273 15.6259 206.661 15.3588C208.345 14.1992 209.917 13.0449 210.957 11.9335C212.051 10.7653 212.233 10.0019 212.022 9.4788C211.964 9.33603 211.91 9.28723 211.888 9.27071C211.867 9.25472 211.821 9.2276 211.713 9.21721C211.454 9.19243 211 9.27796 210.312 9.58576C208.958 10.1907 207.225 11.4048 205.366 12.7948C204.879 13.159 204.383 13.535 203.888 13.9107C202.542 14.9332 201.196 15.9546 200.017 16.7377C199.21 17.2741 198.426 17.7365 197.727 18.0197C197.098 18.2747 196.234 18.5144 195.475 18.1385C195.098 17.9515 194.796 17.6422 194.647 17.2192C194.51 16.8292 194.539 16.4408 194.608 16.1259C194.743 15.5154 195.109 14.8537 195.518 14.2268C196.204 13.1767 197.229 11.9107 198.267 10.6288C198.493 10.3497 198.72 10.0698 198.943 9.79131C200.23 8.19014 201.441 6.61438 202.156 5.2723C202.514 4.59906 202.705 4.06073 202.751 3.65892C202.795 3.2873 202.71 3.12107 202.605 3.01317C202.547 2.95472 202.458 2.89396 202.217 2.9056C201.945 2.91875 201.549 3.02718 201.02 3.28583C199.967 3.80136 198.661 4.77519 197.247 6.02994ZM188.667 30.6841C188.582 29.9422 188.37 29.2828 188.092 28.7373C187.622 27.8157 187.008 27.2923 186.559 27.1293C186.349 27.0529 186.215 27.0673 186.137 27.0946C186.066 27.1196 185.939 27.1912 185.801 27.4348C185.557 27.869 185.583 28.3498 185.937 28.9006C186.308 29.4778 187.005 30.0457 187.884 30.4185C188.142 30.5279 188.404 30.617 188.667 30.6841ZM201.813 21.5212C201.814 21.5209 201.818 21.5226 201.826 21.5272C201.816 21.5238 201.812 21.5215 201.813 21.5212ZM201.908 21.6764C201.908 21.6831 201.908 21.6867 201.907 21.6868C201.907 21.6869 201.907 21.6836 201.908 21.6764ZM196.55 16.6304C196.55 16.6304 196.55 16.6299 196.55 16.6289Z" fill="#F9C74F"/>
<path fill-rule="evenodd" clip-rule="evenodd" d="M125.534 50.7422C122.434 40.2907 118.361 33.5669 113.586 29.7127C108.77 25.8249 103.35 24.9446 97.8052 25.9527C92.3009 26.9535 86.6608 29.8133 81.2701 33.4108C75.8696 37.0148 70.6509 41.4063 65.9901 45.5394C56.7172 53.7626 44.9427 61.8217 34.6297 64.0469C29.4991 65.1539 24.8417 64.7944 21.0256 62.4201C17.2099 60.0462 14.0513 55.5435 12.1594 47.9758C10.6975 42.1284 9.14312 38.1805 7.65354 35.5931C8.35046 35.3125 9.09999 34.9617 9.90487 34.5324C10.3922 34.2725 10.5765 33.6668 10.3166 33.1794C10.0567 32.6921 9.45099 32.5078 8.96368 32.7677C8.05681 33.2514 7.25035 33.6148 6.53748 33.8811C6.42769 33.7344 6.31851 33.5947 6.21 33.4618C5.25885 32.2973 4.29995 31.5836 3.3672 31.2985C2.40198 31.0036 1.48531 31.1837 0.831761 31.7581C-0.432942 32.8696 -0.286338 35.0372 1.47396 36.0115C2.31679 36.478 3.44131 36.6279 4.81039 36.4162C5.09651 36.3719 5.39612 36.3115 5.70962 36.2337C7.1098 38.5442 8.69588 42.368 10.2191 48.4609C12.1886 56.339 15.5682 61.3802 19.969 64.1183C24.3695 66.856 29.607 67.1766 35.0515 66.0019C45.8887 63.6636 57.9849 55.3115 67.3171 47.0358C71.9589 42.9195 77.0959 38.6009 82.3803 35.0744C87.6743 31.5414 93.0482 28.8504 98.163 27.9204C103.237 26.9978 108.041 27.8068 112.33 31.2689C116.574 34.6949 120.417 40.8017 123.434 50.7023C123.439 50.7849 123.456 50.8681 123.483 50.9503C124.328 53.4801 125.995 57.1479 128.28 59.9114C130.533 62.6358 133.698 64.8145 137.402 63.4044C139.706 62.5275 141.326 60.2742 142.407 57.701C142.556 57.3463 142.696 56.9817 142.828 56.6092C143.297 57.0831 143.788 57.5123 144.298 57.8852C145.392 58.6855 146.608 59.2509 147.912 59.4069C149.231 59.5645 150.575 59.2951 151.89 58.5269C154.431 57.0419 156.037 54.5719 156.984 51.8388C157.085 51.5472 157.179 51.2519 157.266 50.9534C157.585 51.3071 157.916 51.6401 158.259 51.948C160.194 53.6865 162.601 54.7037 165.297 53.9801C167.878 53.2872 169.852 51.4532 171.261 49.2282C172.47 47.3203 173.299 45.0732 173.77 42.8523C174.066 42.9669 174.368 43.0615 174.676 43.1328C177.313 43.745 179.627 43.5617 181.798 42.6734C183.942 41.7963 185.882 40.2584 187.831 38.2758C188.218 37.8819 188.213 37.2488 187.819 36.8616C187.425 36.4745 186.792 36.48 186.404 36.8738C184.542 38.769 182.826 40.0923 181.041 40.8223C179.283 41.5412 177.395 41.711 175.128 41.1846C174.789 41.1059 174.445 40.9823 174.103 40.8193C174.362 38.5827 174.256 36.4174 173.743 34.7266C173.452 33.7649 173.007 32.8858 172.354 32.2505C171.675 31.5896 170.797 31.2242 169.776 31.2977C169.077 31.3481 168.445 31.5777 167.965 32.0359C167.487 32.4928 167.255 33.0846 167.18 33.6796C167.037 34.8226 167.443 36.1562 168.069 37.3713C168.71 38.617 169.654 39.8798 170.773 40.9141C171.135 41.2492 171.522 41.5656 171.928 41.8515C171.525 44.0747 170.734 46.3225 169.572 48.158C168.335 50.1102 166.727 51.5255 164.778 52.0485C162.944 52.5407 161.212 51.9125 159.596 50.4603C158.971 49.899 158.379 49.2259 157.826 48.4735C158.118 46.7168 158.212 44.9217 158.159 43.2164C158.072 40.3987 157.582 37.7534 156.861 35.8565C156.505 34.9193 156.062 34.0851 155.523 33.5127C154.978 32.9355 154.147 32.4583 153.181 32.8043C152.254 33.1361 151.846 34.0299 151.67 34.8097C151.484 35.6316 151.475 36.6438 151.585 37.7241C151.807 39.8988 152.538 42.598 153.663 45.16C154.236 46.4625 154.919 47.7525 155.707 48.9327C155.548 49.7062 155.345 50.4612 155.095 51.1839C154.248 53.6275 152.883 55.63 150.881 56.8002C149.924 57.3595 149.014 57.5244 148.149 57.421C147.27 57.3159 146.373 56.9248 145.479 56.2709C144.79 55.7673 144.124 55.1226 143.495 54.3748C143.933 52.6181 144.207 50.7696 144.324 48.9797C144.518 46.0145 144.289 43.1119 143.597 40.9844C143.254 39.927 142.766 38.9687 142.076 38.3089C141.344 37.6095 140.394 37.2653 139.314 37.4955C138.19 37.735 137.469 38.5249 137.078 39.4942C136.7 40.43 136.599 41.5855 136.669 42.795C136.811 45.2276 137.668 48.2138 138.985 50.9535C139.637 52.3109 140.416 53.6382 141.302 54.825C141.087 55.5596 140.84 56.265 140.563 56.9268C139.558 59.319 138.228 60.95 136.691 61.5353C134.249 62.4649 131.928 61.1855 129.821 58.6369C127.887 56.2976 126.394 53.167 125.553 50.8168C125.548 50.7919 125.541 50.767 125.534 50.7422ZM2.78269 33.2112C3.15945 33.3264 3.72561 33.6604 4.42663 34.4513C3.38712 34.6 2.77079 34.4433 2.44245 34.2616C1.84416 33.9305 1.96876 33.4215 2.15202 33.2604C2.22245 33.1985 2.39727 33.0934 2.78269 33.2112ZM171.829 35.3066C172.168 36.4241 172.304 37.8927 172.209 39.5179C172.183 39.494 172.157 39.4698 172.13 39.4455C171.184 38.571 170.382 37.4959 169.847 36.456C169.296 35.3853 169.095 34.4854 169.165 33.9285C169.197 33.6735 169.277 33.5488 169.346 33.4826C169.414 33.4178 169.567 33.3179 169.92 33.2926C170.33 33.263 170.659 33.3918 170.96 33.6841C171.286 34.0021 171.595 34.5351 171.829 35.3066ZM156.16 43.2781C156.185 44.0718 156.175 44.8801 156.126 45.6888C155.904 45.2533 155.693 44.8077 155.495 44.3557C154.439 41.952 153.772 39.4557 153.575 37.5212C153.475 36.5468 153.502 35.7758 153.62 35.2506C153.704 34.8823 153.803 34.7458 153.846 34.7012C153.885 34.7219 153.961 34.7721 154.068 34.885C154.347 35.181 154.675 35.7352 154.991 36.5672C155.615 38.2087 156.079 40.6248 156.16 43.2781ZM142.328 48.8491C142.256 49.9555 142.12 51.0771 141.922 52.1743C141.515 51.5113 141.135 50.8106 140.787 50.0874C139.554 47.5193 138.789 44.7892 138.666 42.6787C138.604 41.6167 138.71 40.7941 138.932 40.2429C139.141 39.7252 139.414 39.5191 139.731 39.4515C140.091 39.3747 140.384 39.4587 140.694 39.7551C141.046 40.0912 141.401 40.6964 141.695 41.6026C142.28 43.4023 142.513 46.0272 142.328 48.8491Z" fill="#F9C74F"/>
</svg>
