<svg width="149" height="55" viewBox="0 0 149 55" fill="none" xmlns="http://www.w3.org/2000/svg">
<path fill-rule="evenodd" clip-rule="evenodd" d="M13.1647 21.0433C16.8462 21.7934 21.1605 23.2272 24.012 24.3235C24.5275 24.5217 25.106 24.2645 25.3042 23.749C25.5024 23.2335 25.2452 22.6549 24.7297 22.4567C21.8229 21.3391 17.3949 19.8641 13.564 19.0835C11.66 18.6956 9.82935 18.4631 8.38485 18.5641C7.66463 18.6144 6.96303 18.752 6.3807 19.0526C5.77055 19.3676 5.26784 19.8789 5.07829 20.6242C4.85335 21.5086 5.13253 22.3047 5.60946 22.9447C6.06822 23.5602 6.74501 24.0874 7.48013 24.5451C8.9546 25.463 10.9654 26.2809 12.86 27.0137C13.2169 27.1517 13.5694 27.2867 13.9147 27.4189C15.4521 28.0074 16.8477 28.5417 17.8666 29.0561C18.2994 29.2746 18.6077 29.4627 18.8118 29.6163C18.7252 29.638 18.6157 29.66 18.4784 29.6793C17.9337 29.7559 17.1832 29.7587 16.2557 29.7017C14.9107 29.6189 13.3328 29.4214 11.6791 29.2145C11.0483 29.1356 10.4064 29.0553 9.7623 28.9794C7.48682 28.7115 5.16138 28.4964 3.43155 28.6779C2.57966 28.7672 1.7207 28.9652 1.08039 29.4227C0.743197 29.6637 0.453964 29.9859 0.276947 30.4035C0.10028 30.8203 0.0631801 31.2664 0.126428 31.7122C0.386685 33.5469 2.06288 34.4481 3.67912 34.9366C5.36968 35.4477 7.51043 35.669 9.53668 35.8274C10.0486 35.8674 10.5525 35.9035 11.0436 35.9386C12.5496 36.0463 13.9351 36.1453 15.061 36.3246C15.8081 36.4436 16.3502 36.5858 16.6954 36.7465C16.7694 36.781 16.8249 36.8116 16.8661 36.8373C16.8598 36.842 16.8532 36.8468 16.8462 36.8518C16.6089 37.0224 16.1787 37.2135 15.5273 37.4059C14.2801 37.7743 12.5822 38.0496 10.8108 38.3369C10.7542 38.346 10.6976 38.3552 10.6409 38.3644C8.86424 38.6527 7.00303 38.9593 5.692 39.4002C5.05733 39.6137 4.39079 39.908 3.94737 40.3657C3.708 40.6128 3.4986 40.9437 3.43598 41.3605C3.37283 41.7808 3.47638 42.1725 3.65665 42.5064C3.99288 43.1291 4.55893 43.5544 5.15042 43.8544C5.74788 44.1574 6.45558 44.3754 7.19796 44.5406C8.68102 44.8708 10.4781 45.0268 12.193 45.1411C12.6648 45.1726 13.1292 45.2009 13.5817 45.2284C14.8098 45.3032 15.9505 45.3727 16.9136 45.4858C17.4158 45.5448 17.8387 45.6126 18.1775 45.691C17.5385 45.9396 16.6579 46.1822 15.6627 46.4557C14.5613 46.7585 13.3307 47.0969 12.3961 47.5063C11.9326 47.7094 11.4592 47.9641 11.0999 48.2981C10.7294 48.6425 10.3725 49.1824 10.4669 49.8873C10.5494 50.5039 10.9586 51.0054 11.36 51.3695C11.7905 51.76 12.3631 52.1287 13.0345 52.4615C14.3824 53.1298 16.2445 53.7109 18.4828 54.0208C22.97 54.6421 29.0531 54.1854 35.7144 51.0507C42.6295 47.7966 45.4276 40.9329 45.1196 35.0547C44.9656 32.1151 44.0331 29.337 42.3641 27.3338C40.6717 25.3024 38.2378 24.0984 35.2518 24.3738C29.6158 24.8936 26.3092 28.0594 25.1265 31.5794C23.9821 34.9853 24.8281 38.9197 27.7599 40.5665C29.3846 41.4791 30.9718 41.421 32.322 40.8561C33.3631 42.1298 34.8802 43.2636 36.9709 44.033C37.4892 44.2238 38.064 43.9582 38.2548 43.4399C38.4455 42.9216 38.18 42.3468 37.6617 42.1561C36.0228 41.553 34.848 40.7086 34.0345 39.7837C34.4326 39.4405 34.7864 39.0583 35.0861 38.6599C35.8443 37.6521 36.3561 36.4342 36.4106 35.261C36.4665 34.0564 36.0273 32.8269 34.8117 32.1095C34.2302 31.7663 33.5949 31.6213 32.9629 31.7406C32.3378 31.8586 31.83 32.2137 31.4541 32.662C30.722 33.5353 30.3956 34.8545 30.4682 36.2137C30.5183 37.1507 30.7577 38.1503 31.2233 39.1279C30.4335 39.3586 29.5797 39.2948 28.7393 38.8228C26.9325 37.8078 26.0652 35.0649 27.0223 32.2164C27.9411 29.4818 30.5508 26.8159 35.4355 26.3653C37.7099 26.1556 39.5192 27.0436 40.8275 28.614C42.1594 30.2126 42.9854 32.5458 43.1223 35.1593C43.3963 40.3872 40.9066 46.397 34.8628 49.2411C28.5652 52.2046 22.8747 52.6098 18.7571 52.0397C16.693 51.7539 15.045 51.2259 13.9229 50.6697C13.3593 50.3903 12.9569 50.1178 12.7036 49.8881C12.6227 49.8147 12.5663 49.7543 12.5273 49.7076C12.6561 49.6078 12.8717 49.4815 13.1986 49.3382C13.9726 48.9992 15.0477 48.699 16.1928 48.3842L16.3066 48.3529C17.3642 48.0624 18.4963 47.7514 19.2923 47.3921C19.6841 47.2152 20.1554 46.9594 20.4621 46.569C20.632 46.3527 20.781 46.0573 20.7945 45.694C20.808 45.3287 20.6802 45.014 20.5109 44.769C20.1474 44.2428 19.5195 43.9929 19.0355 43.8492C18.4962 43.689 17.8418 43.5811 17.147 43.4995C16.1234 43.3793 14.8968 43.3046 13.6481 43.2286C13.2075 43.2018 12.7642 43.1748 12.3261 43.1456C10.6095 43.0311 8.95037 42.8818 7.63252 42.5884C6.97444 42.4419 6.44548 42.2687 6.05506 42.0707C5.76312 41.9226 5.59232 41.783 5.49496 41.6685C5.63893 41.5718 5.90024 41.4403 6.32958 41.2959C7.45081 40.9187 9.12722 40.6362 10.9612 40.3386C11.0416 40.3256 11.1221 40.3125 11.203 40.2994C12.9117 40.0226 14.7213 39.7294 16.0939 39.3239C16.8049 39.1139 17.4972 38.847 18.0135 38.4758C18.5427 38.0955 19.0684 37.4559 18.9311 36.56C18.7983 35.6939 18.1225 35.2049 17.5399 34.9335C16.9375 34.653 16.174 34.4767 15.3756 34.3495C14.1558 34.1553 12.643 34.0473 11.1132 33.9381C10.6385 33.9042 10.1623 33.8702 9.69259 33.8335C7.65372 33.6741 5.71515 33.4627 4.25781 33.0222C2.72615 32.5592 2.18585 31.99 2.10661 31.4313C2.08498 31.2789 2.1076 31.2094 2.11833 31.1841C2.12871 31.1596 2.15454 31.1133 2.24315 31.05C2.45444 30.899 2.89004 30.7456 3.64021 30.6669C5.11451 30.5123 7.22325 30.6943 9.52841 30.9657C10.1325 31.0369 10.7494 31.114 11.366 31.1912C13.0439 31.4012 14.72 31.6109 16.1328 31.6979C17.1003 31.7574 18.0105 31.7648 18.7569 31.6598C19.429 31.5653 20.2972 31.3397 20.7652 30.6343C20.9979 30.2835 21.1047 29.8642 21.0213 29.4237C20.9444 29.0176 20.725 28.6958 20.507 28.4582C20.0842 27.9975 19.4363 27.6081 18.7679 27.2707C17.6483 26.7055 16.1269 26.1235 14.5864 25.5342C14.251 25.4059 13.9147 25.2772 13.5814 25.1483C11.6657 24.4074 9.8278 23.6507 8.53714 22.8472C7.88969 22.4441 7.45482 22.0739 7.21309 21.7495C6.98953 21.4496 6.97939 21.2633 7.01658 21.1171C7.03673 21.0379 7.08395 20.9404 7.29812 20.8298C7.54012 20.7049 7.93724 20.6002 8.52428 20.5592C9.69433 20.4774 11.3124 20.6658 13.1647 21.0433ZM32.9434 38.0798C32.6451 37.3952 32.498 36.7184 32.4654 36.107C32.4102 35.074 32.6798 34.3131 32.9868 33.9469C33.1305 33.7755 33.2531 33.7211 33.3339 33.7058C33.4081 33.6919 33.5544 33.6898 33.7953 33.8319C34.2243 34.0851 34.4431 34.5141 34.4127 35.1682C34.3809 35.8535 34.0621 36.6943 33.4879 37.4576C33.3194 37.6816 33.1371 37.8901 32.9434 38.0798ZM16.9756 36.7373C16.975 36.7373 16.9717 36.7412 16.9677 36.7489C16.9743 36.7411 16.9763 36.7373 16.9756 36.7373ZM16.9712 36.9192C16.9744 36.9251 16.9768 36.9279 16.9772 36.9278C16.9776 36.9278 16.976 36.9248 16.9712 36.9192ZM19.0793 29.8678C19.0793 29.8678 19.0791 29.8674 19.0786 29.8665Z" fill="#F9C74F"/>
<path fill-rule="evenodd" clip-rule="evenodd" d="M99.6195 23.528C98.2856 14.9616 100.035 9.17286 103.367 5.87389C106.732 2.54195 111.964 1.50068 118.065 3.01076C123.867 4.44664 127.538 9.1844 131.081 13.7563L131.3 14.0394C133.063 16.3126 134.831 18.5544 136.813 20.0791C137.488 20.5986 138.195 21.0407 138.943 21.3781C138.868 21.9834 138.811 22.6277 138.774 23.3123C138.744 23.8638 139.166 24.3354 139.717 24.3657C140.269 24.396 140.741 23.9735 140.771 23.422C140.799 22.9128 140.838 22.4344 140.886 21.9851C141.849 22.1557 142.876 22.1495 143.978 21.9218C146.665 21.3666 148.188 19.9826 148.425 18.1957C148.646 16.5255 147.66 14.9373 146.331 14.1377C145.646 13.7253 144.823 13.4892 143.952 13.5706C143.071 13.653 142.214 14.0544 141.471 14.7969C140.528 15.7377 139.773 17.2137 139.295 19.3228C138.868 19.0923 138.449 18.8144 138.032 18.494C136.29 17.1539 134.676 15.1295 132.881 12.814C132.763 12.6621 132.644 12.509 132.525 12.3549L132.521 12.3493C129.094 7.92044 125.035 2.67541 118.546 1.06934C112.008 -0.548752 105.974 0.4779 101.96 4.45272C98.1144 8.26034 96.3565 14.5436 97.5319 23.0765C97.5246 23.1683 97.5299 23.2627 97.5494 23.3575C97.5828 23.5203 97.6155 23.6887 97.6474 23.8621C97.6631 23.9625 97.6792 24.0632 97.6957 24.1642C97.7018 24.2016 97.7099 24.2382 97.7199 24.2739C98.1274 26.6958 98.3503 29.9477 97.8751 32.7834C97.3286 36.0448 95.9619 38.3145 93.3828 38.7337C91.7588 38.9976 89.7906 38.2527 87.7227 36.6857C87.1506 36.2522 86.5839 35.7653 86.0298 35.2373C86.2014 33.7664 86.2108 32.2273 86.0951 30.7258C85.8614 27.6952 85.1072 24.6813 84.0108 22.5052C83.4657 21.4232 82.7991 20.4739 82.0032 19.8534C81.1789 19.2106 80.159 18.8884 79.0668 19.2441C78.0168 19.586 77.3672 20.3599 77.084 21.3321C76.817 22.249 76.8755 23.3225 77.1079 24.4099C77.5756 26.5974 78.8319 29.2241 80.4856 31.6929C81.4839 33.1832 82.647 34.6458 83.9061 35.9466C83.7364 36.909 83.4831 37.8007 83.1395 38.5815C82.6935 39.5953 82.113 40.3834 81.4047 40.915C80.7081 41.4378 79.8384 41.7508 78.7299 41.7463C76.411 41.7369 74.2262 40.6879 72.269 38.9976C71.6901 38.4976 71.1364 37.9458 70.6111 37.3561C70.7011 35.9402 70.6467 34.4811 70.4891 33.0673C70.1792 30.2862 69.4596 27.5839 68.5618 25.5908C68.1158 24.6007 67.6009 23.7292 67.0283 23.111C66.485 22.5245 65.6839 21.9556 64.7157 22.1327C63.7063 22.3174 63.2259 23.147 63.044 23.9193C62.8635 24.6852 62.8989 25.6287 63.0602 26.6183C63.3867 28.6212 64.2877 31.1562 65.6244 33.6382C66.4333 35.1403 67.4144 36.6465 68.5472 38.0205C68.4459 38.9486 68.2705 39.828 68.0111 40.6268C67.3399 42.6935 66.1558 44.105 64.322 44.598C62.3739 45.1217 60.2727 44.7028 58.2243 43.6331C56.2984 42.6273 54.4875 41.0783 53.0249 39.3563C53.2335 38.9051 53.4095 38.4375 53.5553 37.966C54.0053 36.5103 54.1894 34.9445 54.12 33.5451C54.0524 32.1803 53.7357 30.8226 53.0389 29.9053C52.6762 29.4278 52.1792 29.0316 51.536 28.8761C50.8911 28.7201 50.2297 28.8377 49.5991 29.1446C48.6788 29.5925 48.1022 30.3486 47.8454 31.261C47.5986 32.1379 47.6545 33.1215 47.8841 34.0997C48.2879 35.8197 49.2812 37.7468 50.626 39.5525C50.411 39.8654 50.1758 40.1444 49.9217 40.3825C48.2235 41.9739 46.5043 42.7733 44.6231 43.0318C42.7129 43.2943 40.5646 43.009 38.0029 42.3024C37.4705 42.1555 36.9199 42.468 36.773 43.0004C36.6261 43.5328 36.9387 44.0835 37.4711 44.2303C40.151 44.9696 42.6002 45.3286 44.8954 45.0132C47.2197 44.6938 49.3139 43.693 51.2893 41.8418C51.5194 41.6262 51.7337 41.3928 51.9328 41.1451C53.4527 42.8313 55.2966 44.3603 57.2984 45.4058C59.6331 46.6251 62.2599 47.2234 64.8412 46.5294C67.5368 45.8047 69.1098 43.7186 69.9133 41.2445C70.0556 40.8062 70.1754 40.3521 70.2743 39.8862C70.499 40.1009 70.7282 40.3095 70.9618 40.5112C73.1509 42.4018 75.7789 43.7343 78.7218 43.7463C80.2442 43.7525 81.5431 43.3118 82.6053 42.5146C83.6558 41.7261 84.4243 40.6278 84.9702 39.3869C85.2246 38.8087 85.4343 38.1913 85.6034 37.5458C85.9041 37.8022 86.2082 38.0474 86.5148 38.2797C88.7391 39.9652 91.2705 41.1032 93.7036 40.7078C97.6158 40.0719 99.2634 36.6004 99.8476 33.1139C100.398 29.8268 100.096 26.131 99.6195 23.528ZM143.574 19.9631C142.728 20.1379 141.941 20.1455 141.192 20.0076C141.612 18.01 142.256 16.839 142.884 16.2124C143.328 15.769 143.761 15.5972 144.139 15.5619C144.526 15.5256 144.928 15.6273 145.3 15.8512C146.085 16.3239 146.539 17.2015 146.442 17.933C146.361 18.5479 145.807 19.5018 143.574 19.9631ZM49.8312 33.6427C50.098 34.7794 50.7162 36.1185 51.6123 37.4776C51.6232 37.4437 51.6339 37.4096 51.6445 37.3754C52.025 36.1445 52.1803 34.8122 52.1225 33.6441C52.0629 32.4414 51.7857 31.562 51.4462 31.115C51.2908 30.9104 51.1591 30.8426 51.0659 30.82C50.9746 30.798 50.7922 30.7882 50.4744 30.9429C50.1041 31.1231 49.8842 31.3993 49.7706 31.8028C49.6471 32.2418 49.6469 32.8578 49.8312 33.6427ZM67.3852 32.6899C67.7617 33.389 68.1753 34.0836 68.6225 34.7591C68.5968 34.2708 68.5561 33.7795 68.5014 33.2888C68.2107 30.6796 67.5369 28.1852 66.7383 26.4122C66.336 25.5192 65.9269 24.8652 65.561 24.4701C65.3044 24.1931 65.1504 24.1246 65.0908 24.1075C65.0668 24.1453 65.0263 24.2268 64.9907 24.3779C64.8974 24.774 64.891 25.4181 65.0342 26.2965C65.3167 28.0297 66.1266 30.3527 67.3852 32.6899ZM82.1473 30.5798C82.7644 31.5011 83.4438 32.4038 84.165 33.254C84.1849 32.4764 84.1627 31.6796 84.101 30.8795C83.882 28.0389 83.1758 25.293 82.2247 23.405C81.746 22.4549 81.2422 21.7961 80.7734 21.4306C80.3331 21.0873 79.9942 21.0454 79.6861 21.1458C79.3357 21.2599 79.1242 21.4794 79.0042 21.8913C78.8682 22.3585 78.8645 23.06 79.0637 23.9917C79.4594 25.8423 80.5735 28.2304 82.1473 30.5798Z" fill="#F9C74F"/>
</svg>
