<svg width="9" height="7" viewBox="0 0 9 7" fill="none" xmlns="http://www.w3.org/2000/svg">
<path d="M0 2.06957C0 1.50145 0.17757 1.01449 0.53271 0.608697C0.906542 0.202899 1.35514 0 1.8785 0C2.40187 0 2.85047 0.202899 3.2243 0.608697C3.59813 1.01449 3.78505 1.4913 3.78505 2.03913C3.78505 2.40435 3.26168 3.89565 2.21495 6.51304C2.08411 6.83768 1.84112 7 1.48598 7C1.20561 7 0.93458 6.9087 0.672897 6.72609C0.411215 6.52319 0.280374 6.26957 0.280374 5.96522C0.280374 5.82319 0.317757 5.68116 0.392523 5.53913L1.03738 3.92609C0.345794 3.52029 0 2.90145 0 2.06957ZM5.21495 2.06957C5.21495 1.50145 5.39252 1.01449 5.74766 0.608697C6.1215 0.202899 6.57009 0 7.09346 0C7.61682 0 8.06542 0.202899 8.43925 0.608697C8.81308 1.01449 9 1.4913 9 2.03913C9 2.40435 8.47664 3.89565 7.42991 6.51304C7.29907 6.83768 7.05608 7 6.70094 7C6.40187 7 6.1215 6.9087 5.85981 6.72609C5.61682 6.52319 5.49533 6.26957 5.49533 5.96522C5.49533 5.82319 5.52337 5.68116 5.57944 5.53913L6.25234 3.92609C5.56075 3.52029 5.21495 2.90145 5.21495 2.06957Z" fill="#577590"/>
</svg>
