<svg width="9" height="7" viewBox="0 0 9 7" fill="none" xmlns="http://www.w3.org/2000/svg">
<path d="M0 4.96087C0 4.59565 0.523364 3.10435 1.57009 0.486957C1.70093 0.162319 1.94393 0 2.29907 0C2.59813 0 2.86916 0.10145 3.11215 0.304349C3.37383 0.486957 3.50467 0.730435 3.50467 1.03478C3.50467 1.13623 3.47663 1.27826 3.42056 1.46087L2.74766 3.07391C3.43925 3.47971 3.78505 4.09855 3.78505 4.93043C3.78505 5.49855 3.59813 5.98551 3.2243 6.39131C2.86916 6.7971 2.42991 7 1.90654 7C1.38318 7 0.934579 6.7971 0.560748 6.39131C0.186916 5.98551 0 5.5087 0 4.96087ZM5.21495 4.96087C5.21495 4.59565 5.73832 3.10435 6.78505 0.486957C6.91589 0.162319 7.15888 0 7.51402 0C7.79439 0 8.06542 0.10145 8.3271 0.304349C8.58878 0.486957 8.71963 0.730435 8.71963 1.03478C8.71963 1.15652 8.68224 1.29855 8.60748 1.46087L7.96262 3.07391C8.65421 3.47971 9 4.09855 9 4.93043C9 5.49855 8.81308 5.98551 8.43925 6.39131C8.08411 6.7971 7.64486 7 7.1215 7C6.59813 7 6.14953 6.7971 5.7757 6.39131C5.40187 5.98551 5.21495 5.5087 5.21495 4.96087Z" fill="#577590"/>
</svg>
