<svg width="36" height="50" viewBox="0 0 36 50" fill="none" xmlns="http://www.w3.org/2000/svg">
<path d="M24.75 38.25V38.2454C27.5822 38.2109 30.1283 37.9822 31.9877 37.6296C32.9424 37.4485 33.7288 37.2325 34.2823 36.9872C34.5583 36.8649 34.7903 36.7294 34.9572 36.5768C35.1235 36.4247 35.25 36.2316 35.25 36C35.25 35.7684 35.1235 35.5753 34.9572 35.4232C34.7903 35.2706 34.5583 35.1351 34.2823 35.0128C33.7288 34.7675 32.9424 34.5515 31.9877 34.3704C30.1283 34.0178 27.5822 33.7891 24.75 33.7546V33.75H24.5C24.4125 33.75 24.3251 33.7502 24.2378 33.7505C24.1587 33.7502 24.0795 33.75 24 33.75H23.75V33.7537C18.7839 33.8033 14.2005 34.3429 10.4587 35.2285C9.68339 35.0376 8.94998 34.8317 8.26304 34.6125C6.2062 33.956 4.63249 33.2009 3.59965 32.4215C2.5468 31.6271 2.25 30.9651 2.25 30.5C2.25 30.0349 2.5468 29.3729 3.59965 28.5785C4.63249 27.7991 6.2062 27.044 8.26304 26.3875C8.94997 26.1683 9.68339 25.9624 10.4587 25.7715C14.2005 26.6571 18.7839 27.1967 23.75 27.2463V27.25H24C24.0795 27.25 24.1587 27.2498 24.2378 27.2495C24.3251 27.2498 24.4125 27.25 24.5 27.25H24.75V27.2454C27.5822 27.2109 30.1283 26.9822 31.9877 26.6296C32.9424 26.4485 33.7288 26.2325 34.2823 25.9872C34.5583 25.8649 34.7903 25.7294 34.9572 25.5768C35.1235 25.4247 35.25 25.2316 35.25 25C35.25 24.7684 35.1235 24.5753 34.9572 24.4232C34.7903 24.2706 34.5583 24.1351 34.2823 24.0128C33.7288 23.7675 32.9424 23.5515 31.9877 23.3704C30.1283 23.0178 27.5822 22.7891 24.75 22.7546V22.7497L24.4997 22.75L24.2925 22.7503L24.2921 22.7503L24.2387 22.7505C24.2384 22.7505 24.2381 22.7505 24.2379 22.7505C24.1588 22.7502 24.0795 22.75 24 22.75H23.75V22.7537C18.7839 22.8033 14.2005 23.3429 10.4587 24.2285C9.68338 24.0376 8.94997 23.8317 8.26304 23.6125C6.2062 22.956 4.63249 22.2009 3.59965 21.4215C2.5468 20.6271 2.25 19.9651 2.25 19.5C2.25 19.0349 2.5468 18.3729 3.59965 17.5785C4.63249 16.7991 6.2062 16.044 8.26304 15.3875C8.94997 15.1683 9.68339 14.9624 10.4587 14.7715C14.2005 15.6571 18.7839 16.1967 23.75 16.2463V16.2501L24.0001 16.25L24.0571 16.25L24.0576 16.25L24.2371 16.2495H24.2383L24.3994 16.2499H24.3999L24.4998 16.25L24.75 16.2502V16.2454C27.5822 16.2109 30.1283 15.9822 31.9877 15.6296C32.9424 15.4485 33.7288 15.2325 34.2823 14.9872C34.5583 14.8649 34.7903 14.7294 34.9572 14.5768C35.1235 14.4247 35.25 14.2316 35.25 14C35.25 13.7684 35.1235 13.5753 34.9572 13.4232C34.7903 13.2706 34.5583 13.1351 34.2823 13.0128C33.7288 12.7675 32.9424 12.5515 31.9877 12.3704C30.1283 12.0178 27.5822 11.7891 24.75 11.7546V11.75H24.5C24.4125 11.75 24.3251 11.7502 24.2378 11.7505C24.1587 11.7502 24.0795 11.75 24 11.75H23.75V11.7537C18.7839 11.8033 14.2005 12.3429 10.4587 13.2285C9.68338 13.0376 8.94997 12.8317 8.26304 12.6125C6.2062 11.956 4.63249 11.2009 3.59965 10.4215C2.5468 9.62709 2.25 8.96513 2.25 8.5C2.25 8.03487 2.5468 7.37291 3.59965 6.57848C4.63249 5.79915 6.2062 5.04396 8.26304 4.38753C12.3624 3.07923 18.1032 2.25 24.5 2.25C24.9142 2.25 25.25 1.91422 25.25 1.5C25.25 1.08578 24.9142 0.75 24.5 0.75C17.9921 0.75 12.0903 1.59151 7.80698 2.95853C5.66674 3.64159 3.91659 4.46022 2.69616 5.3811C1.47989 6.29884 0.75 7.35026 0.75 8.5C0.75 9.7062 1.55281 10.804 2.88076 11.7545C4.06365 12.6012 5.69967 13.3588 7.67804 14C5.69967 14.6412 4.06365 15.3988 2.88076 16.2455C1.55281 17.196 0.75 18.2938 0.75 19.5C0.75 20.7062 1.55281 21.804 2.88076 22.7545C4.06365 23.6012 5.69967 24.3588 7.67804 25C5.69967 25.6412 4.06365 26.3988 2.88076 27.2455C1.55281 28.196 0.75 29.2938 0.75 30.5C0.75 31.7062 1.55281 32.804 2.88076 33.7545C4.06365 34.6012 5.69968 35.3588 7.67805 36C5.69968 36.6412 4.06365 37.3988 2.88076 38.2455C1.55281 39.196 0.75 40.2938 0.75 41.5C0.75 42.6497 1.47989 43.7012 2.69616 44.6189C3.91659 45.5398 5.66674 46.3584 7.80698 47.0415C12.0903 48.4085 17.9921 49.25 24.5 49.25C24.9142 49.25 25.25 48.9142 25.25 48.5C25.25 48.0858 24.9142 47.75 24.5 47.75C18.1032 47.75 12.3624 46.9208 8.26304 45.6125C6.2062 44.956 4.63249 44.2009 3.59965 43.4215C2.5468 42.6271 2.25 41.9651 2.25 41.5C2.25 41.0349 2.5468 40.3729 3.59965 39.5785C4.63249 38.7991 6.2062 38.044 8.26304 37.3875C8.94997 37.1683 9.68339 36.9624 10.4587 36.7715C14.2005 37.6571 18.7839 38.1967 23.75 38.2463V38.25H24C24.0795 38.25 24.1587 38.2498 24.2378 38.2495C24.3251 38.2498 24.4125 38.25 24.5 38.25H24.75ZM32.4444 36C32.1778 36.0632 31.881 36.125 31.5546 36.1844C29.7085 36.52 27.1282 36.7382 24.2379 36.7495C20.6737 36.7369 17.3172 36.4668 14.3412 36C17.3172 35.5332 20.6737 35.2631 24.2379 35.2505C27.1282 35.2618 29.7085 35.48 31.5546 35.8156C31.881 35.875 32.1778 35.9368 32.4444 36ZM31.5546 25.1844C29.7084 25.5201 27.1279 25.7382 24.2374 25.7495C20.6733 25.7369 17.3171 25.4668 14.3412 25C17.3171 24.5332 20.6733 24.2631 24.2374 24.2505C27.1279 24.2618 29.7084 24.4799 31.5546 24.8156C31.881 24.875 32.1778 24.9368 32.4444 25C32.1778 25.0632 31.881 25.125 31.5546 25.1844ZM32.4444 14C32.1778 14.0632 31.881 14.125 31.5546 14.1844C29.7084 14.5201 27.1279 14.7382 24.2374 14.7495C20.6734 14.7369 17.3171 14.4668 14.3412 14C17.3171 13.5332 20.6734 13.2631 24.2374 13.2505C27.1279 13.2618 29.7084 13.4799 31.5546 13.8156C31.881 13.875 32.1778 13.9368 32.4444 14Z" fill="#577590" stroke="#577590" stroke-width="0.5"/>
</svg>
