<svg width="1228" height="449" viewBox="0 0 1228 449" fill="none" xmlns="http://www.w3.org/2000/svg">
<path fill-rule="evenodd" clip-rule="evenodd" d="M740.902 349.528C821.797 426.336 943.614 476.351 1053.59 426.59C1084.24 412.721 1108.93 398.483 1128.62 384.41C1123.07 370.19 1120.13 352.487 1120.6 334.291C1121.22 309.971 1127.92 284.62 1142.71 265.391C1154.16 250.501 1168.46 246.767 1179.96 251.57C1191.41 256.351 1199.69 269.431 1199.5 287.324C1199.23 312.964 1181.65 348.581 1131.06 385.117C1132.75 389.228 1134.66 393.013 1136.78 396.391C1141.48 403.886 1147.13 409.307 1153.45 411.916C1159.74 414.51 1166.81 414.371 1174.48 410.546C1182.19 406.705 1190.53 399.137 1199.24 386.849C1207.94 374.569 1216.97 357.629 1226.07 335.126C1226.28 334.614 1226.86 334.367 1227.37 334.574C1227.89 334.781 1228.13 335.364 1227.93 335.876C1218.78 358.471 1209.69 375.56 1200.87 388.005C1192.06 400.442 1183.49 408.295 1175.37 412.336C1167.23 416.394 1159.56 416.6 1152.69 413.765C1145.86 410.946 1139.92 405.166 1135.09 397.453C1132.98 394.095 1131.08 390.358 1129.39 386.314C1109.62 400.398 1084.93 414.603 1054.41 428.412C943.385 478.65 820.713 428.065 739.525 350.978C730.448 342.36 721.885 333.407 713.911 324.221C587.775 371.639 478.358 349.281 397.665 298.528C370.085 281.181 345.854 260.513 325.459 238.178C271.378 300.666 225.792 336.228 181.246 349.049C124.127 365.49 69.0078 344.477 0.420654 295.755C-0.0296631 295.436 -0.135376 294.811 0.18457 294.361C0.504395 293.911 1.12866 293.805 1.57886 294.125C70.0443 342.76 124.491 363.304 180.693 347.127C224.748 334.447 270.059 299.165 324.104 236.685C280.274 188.124 254.503 131.909 251.72 84.8912C249.66 50.0934 265.824 25.9535 288.834 12.5512C311.793 -0.821045 341.535 -3.49301 366.738 4.46396C391.969 12.4296 412.754 31.0923 417.537 60.4367C422.311 89.7229 411.099 129.386 373.003 179.321C356.863 200.478 341.503 219.561 326.774 236.654C347.073 258.914 371.216 279.53 398.73 296.835C478.762 347.172 587.274 369.46 712.518 322.608C685.512 291.137 665.419 257.021 655.217 224.352C641.854 181.561 645.425 141.084 672.925 112.433C727.756 55.307 812.312 75.4934 850.276 124.409C869.306 148.928 876.705 180.735 862.84 213.706C848.997 246.627 814.031 280.529 748.742 309.517C737.679 314.698 726.73 319.339 715.905 323.467C723.697 332.406 732.052 341.125 740.902 349.528ZM714.51 321.857C725.515 317.682 736.648 312.972 747.902 307.701L747.921 307.693C812.978 278.81 847.429 245.195 860.997 212.931C874.544 180.715 867.346 149.665 848.696 125.635C811.301 77.4531 728.164 57.7707 674.368 113.818C647.555 141.753 643.888 181.367 657.126 223.756C667.293 256.31 687.409 290.402 714.51 321.857ZM325.42 235.16C340.06 218.161 355.342 199.174 371.413 178.108C409.356 128.373 420.209 89.2647 415.563 60.7585C410.926 32.3105 390.806 14.1598 366.136 6.37119C341.439 -1.42606 312.284 1.20706 289.841 14.2795C267.448 27.3219 251.703 50.7664 253.716 84.7729C256.465 131.205 281.954 186.93 325.42 235.16ZM1130.3 383.203C1180.25 347.008 1197.24 312.006 1197.5 287.302C1197.68 270.008 1189.71 257.807 1179.19 253.416C1168.73 249.046 1155.34 252.25 1144.29 266.61C1129.83 285.413 1123.21 310.314 1122.6 334.343C1122.14 352.136 1124.98 369.368 1130.3 383.203Z" fill="#F1F1F1"/>
</svg>
