<svg width="1328" height="472" viewBox="0 0 1328 472" fill="none" xmlns="http://www.w3.org/2000/svg">
<path fill-rule="evenodd" clip-rule="evenodd" d="M526.746 346.285C439.208 444.209 307.478 507.889 188.581 444.504C155.353 426.79 128.586 408.596 107.249 390.607C113.301 372.496 116.504 349.882 115.999 326.623C115.329 295.701 108.103 263.481 92.1479 239.044C85.9857 229.606 79.0546 223.677 72.0643 220.876C65.0552 218.068 58.0461 218.432 51.8483 221.481C39.4911 227.559 30.6198 244.127 30.8244 266.758C31.1187 299.285 50.0907 344.659 104.918 391.251C103.062 396.617 100.951 401.553 98.6111 405.951C93.5061 415.547 87.3689 422.478 80.5201 425.806C73.7368 429.103 66.1244 428.932 57.825 424.06C49.4749 419.158 40.4352 409.493 31.0014 393.806C21.576 378.133 11.801 356.522 1.94555 327.828C1.76615 327.306 1.19727 327.028 0.67494 327.207C0.152607 327.387 -0.12539 327.955 0.0540164 328.478C9.93719 357.252 19.7659 379.003 29.2874 394.837C38.8006 410.656 48.0511 420.642 56.8125 425.785C65.6247 430.958 73.9453 431.225 81.3943 427.605C88.7779 424.016 95.1725 416.673 100.377 406.89C102.661 402.597 104.727 397.812 106.554 392.632C127.923 410.569 154.626 428.668 187.64 446.269C307.769 510.311 440.471 445.797 528.237 347.618C537.855 336.858 546.939 325.69 555.413 314.235C694.722 383.361 830.597 408 935.389 396.385C985.966 390.779 1029.35 376.721 1062.38 355.098C1070 356.604 1077.84 357.736 1085.87 358.491C1161.39 365.596 1253.33 339.426 1327.64 277.235C1328.07 276.88 1328.12 276.25 1327.77 275.826C1327.41 275.402 1326.78 275.346 1326.36 275.701C1252.44 337.568 1161.01 363.552 1086.06 356.5C1078.79 355.816 1071.68 354.822 1064.75 353.52C1068.13 351.237 1071.4 348.872 1074.55 346.427C1108.78 319.85 1129.28 283.793 1131.5 239.641C1133.71 195.605 1122.05 164.567 1103.4 145.069C1084.76 125.574 1059.26 117.736 1034.05 119.894C983.635 124.209 934.25 168.508 942.637 239.708C950.026 302.436 996.923 341.292 1059.58 354.526C1027.1 375.31 984.661 388.911 935.169 394.397C830.907 405.953 695.54 381.47 556.617 312.6C586.222 272.209 608.233 228.352 619.355 186.395C633.783 131.963 629.918 80.5547 600.263 44.154C570.67 7.82852 532.964 -3.98407 497.508 1.13641C462.094 6.25067 428.992 28.2434 408.471 59.3954C387.937 90.5658 379.979 130.94 394.918 172.795C409.851 214.635 447.612 257.817 518.244 294.764C530.04 301.273 541.829 307.461 553.595 313.33C545.219 324.633 536.246 335.658 526.746 346.285ZM554.8 311.696C542.952 305.791 531.08 299.563 519.2 293.007L519.18 292.997C448.833 256.2 411.515 213.348 396.801 172.123C382.092 130.912 389.921 91.19 410.141 60.4956C430.373 29.7827 462.99 8.14209 497.793 3.11588C532.554 -1.90405 569.562 9.63583 598.713 45.4172C627.801 81.1234 631.764 131.772 617.421 185.883C606.347 227.663 584.381 271.403 554.8 311.696ZM1061.96 352.978C998.887 340.277 951.956 301.729 944.623 239.474C936.38 169.49 984.835 126.113 1034.22 121.886C1058.91 119.773 1083.79 127.448 1101.96 146.452C1120.13 165.453 1131.69 195.901 1129.5 239.541C1127.31 283.064 1107.13 318.597 1073.32 344.847C1069.69 347.664 1065.9 350.375 1061.96 352.978ZM105.604 389.212C51.5643 343.074 33.1107 298.398 32.8244 266.74C32.6235 244.532 41.3276 228.885 52.7311 223.275C58.4136 220.48 64.8311 220.133 71.3205 222.733C77.8286 225.34 84.4678 230.939 90.4732 240.137C106.16 264.163 113.334 295.979 114 326.666C114.494 349.44 111.401 371.505 105.604 389.212Z" fill="white"/>
</svg>
