<svg width="37" height="51" viewBox="0 0 37 51" fill="none" xmlns="http://www.w3.org/2000/svg">
<path fill-rule="evenodd" clip-rule="evenodd" d="M26.8691 0.904327C28.526 0.904327 29.8691 2.24747 29.8691 3.90433V10.877C29.8691 12.5338 28.526 13.877 26.8691 13.877H26.0726C23.3017 13.9224 21.1945 14.5256 19.5903 15.5363C20.1126 15.4887 20.6445 15.4649 21.1855 15.4649C25.7127 15.4649 29.5425 17.1342 32.349 20.5421C35.0839 23.863 36.3145 28.0911 36.3145 32.9375C36.3145 36.1601 35.6072 39.1628 34.1436 41.8814C32.6861 44.6254 30.5841 46.7881 27.8835 48.3187C25.1994 49.8512 22.1984 50.586 18.959 50.586C13.6817 50.586 9.20608 48.7088 5.81677 44.8898L5.80979 44.882C2.46034 41.0811 0.929688 36.1432 0.929688 30.3887V27.3418C0.929688 22.3339 1.87161 17.7852 3.84496 13.772L3.84794 13.7659C5.85023 9.71686 8.75079 6.52755 12.5343 4.28406C16.3328 2.02363 20.6696 0.925985 25.4493 0.904358L25.4629 0.904297L26.8691 0.904327ZM14.0664 6.86331C10.8047 8.79691 8.29492 11.541 6.53711 15.0957C4.79883 18.6309 3.92969 22.7129 3.92969 27.3418V30.3887C3.92969 35.6035 5.30664 39.7735 8.06055 42.8985C10.834 46.0235 14.4668 47.586 18.959 47.586C21.7324 47.586 24.2129 46.961 26.4004 45.711C28.6074 44.461 30.3066 42.7129 31.498 40.4668C32.709 38.2207 33.3145 35.711 33.3145 32.9375C33.3145 28.6016 32.2207 25.1055 30.0332 22.4492C27.8457 19.793 24.8965 18.4649 21.1855 18.4649C19.42 18.4649 17.8098 18.7654 16.355 19.3666C14.9613 19.9425 13.7101 20.7942 12.6016 21.9219C12.8496 20.1032 13.3572 18.4951 14.1246 17.0974C14.8077 15.8532 15.6965 14.7759 16.791 13.8653C19.1348 11.9317 22.2207 10.9356 26.0488 10.877H26.8691V3.90433H25.4629C24.9236 3.90677 24.3923 3.9243 23.8691 3.95693C20.2052 4.18543 16.9377 5.15423 14.0664 6.86331ZM23.1777 38.6211C22.0645 40.0469 20.5996 40.7598 18.7832 40.7598C16.7715 40.7598 15.209 39.9688 14.0957 38.3867C12.9824 36.7852 12.4258 34.5684 12.4258 31.7364V29.1582C12.9531 27.9864 13.7734 27.0489 14.8867 26.3457C16 25.6231 17.2402 25.2617 18.6074 25.2617C20.5215 25.2617 22.0449 25.9746 23.1777 27.4004C24.3105 28.8262 24.877 30.7012 24.877 33.0254C24.877 35.3106 24.3105 37.1758 23.1777 38.6211ZM15.4258 29.9053V31.7364C15.4258 34.214 15.9179 35.748 16.5542 36.6674C17.0785 37.409 17.705 37.7598 18.7832 37.7598C19.6803 37.7598 20.2712 37.469 20.8132 36.7748L20.8166 36.7705C21.4428 35.9715 21.877 34.8072 21.877 33.0254C21.877 31.1888 21.4353 30.0299 20.8289 29.2666C20.298 28.5985 19.6607 28.2617 18.6074 28.2617C17.8016 28.2617 17.1319 28.465 16.5201 28.8621L16.4887 28.8822C16.0334 29.1698 15.6879 29.5058 15.4258 29.9053Z" fill="white"/>
</svg>
