<svg width="41" height="56" viewBox="0 0 41 56" fill="none" xmlns="http://www.w3.org/2000/svg">
<path fill-rule="evenodd" clip-rule="evenodd" d="M40.4238 53C40.4238 54.6569 39.0807 56 37.4238 56H4.28711C2.63026 56 1.28711 54.6569 1.28711 53V46.4258C1.28711 45.6632 1.57752 44.9292 2.09931 44.3731L17.7249 27.719C19.7929 25.458 21.2154 23.5928 22.0813 22.1057L22.0956 22.0814C22.9396 20.6628 23.2344 19.5294 23.2344 18.6348C23.2344 16.9857 22.8246 16.0966 22.3674 15.5835L22.3497 15.5634C21.9596 15.1176 21.3179 14.7285 19.959 14.7285C18.5733 14.7285 17.7405 15.1641 17.113 15.9119C16.4324 16.7271 15.9531 17.9455 15.9531 19.8633C15.9531 21.5201 14.61 22.8633 12.9531 22.8633H3.32422C1.66736 22.8633 0.324219 21.5201 0.324219 19.8633C0.324219 16.423 1.14527 13.2154 2.81274 10.304L2.82297 10.2862C4.52758 7.35644 6.93256 5.06809 9.96967 3.44288C13.0228 1.78677 16.4324 0.992188 20.125 0.992188C25.5596 0.992188 30.2152 2.29791 33.6783 5.31159C37.2297 8.38222 38.8633 12.659 38.8633 17.7051C38.8633 20.6304 38.1018 23.5221 36.6872 26.3514C35.2721 29.1817 32.9427 32.3041 29.8447 35.6982C29.8318 35.7124 29.8188 35.7264 29.8056 35.7402L23.6186 42.2637H37.4238C39.0807 42.2637 40.4238 43.6068 40.4238 45.2637V53ZM16.6387 45.2637L27.6289 33.6758C30.6393 30.3776 32.7643 27.4889 34.0039 25.0098C35.2435 22.5306 35.8633 20.0957 35.8633 17.7051C35.8633 13.3444 34.4798 9.96875 31.7129 7.57812C28.9681 5.1875 25.1055 3.99219 20.125 3.99219C16.8711 3.99219 13.9603 4.68945 11.3926 6.08398C8.82487 7.45638 6.83268 9.36003 5.41602 11.7949C4.50996 13.3769 3.89825 15.0664 3.58088 16.8633C3.40977 17.832 3.32422 18.832 3.32422 19.8633H12.9531C12.9531 17.4284 13.5729 15.4694 14.8125 13.9863C16.0742 12.4811 17.7897 11.7285 19.959 11.7285C21.9733 11.7285 23.5228 12.3483 24.6074 13.5879C25.6921 14.8053 26.2344 16.4876 26.2344 18.6348C26.2344 20.2064 25.7142 21.8665 24.6738 23.6152C23.6556 25.3639 22.0729 27.4115 19.9258 29.7578L4.28711 46.4258V53H37.4238V45.2637H16.6387Z" fill="white"/>
</svg>
