<svg width="35" height="50" viewBox="0 0 35 50" fill="none" xmlns="http://www.w3.org/2000/svg">
<path fill-rule="evenodd" clip-rule="evenodd" d="M3.43851 27.9353C1.97612 27.5729 1.00937 26.1821 1.1793 24.6851L3.64024 3.00538C3.81235 1.48919 5.09517 0.34375 6.6211 0.34375H30.5273C32.1842 0.34375 33.5273 1.6869 33.5273 3.34375V10.4043C33.5273 12.0612 32.1842 13.4043 30.5273 13.4043H16.2392L16.0311 15.2131C16.9772 15.0465 17.9428 14.9629 18.9258 14.9629C23.6564 14.9629 27.7095 16.4588 30.6902 19.7173C33.6475 22.9503 34.9336 27.2879 34.9336 32.3184C34.9336 35.5098 34.2509 38.4749 32.8223 41.1433C31.396 43.8245 29.3221 45.93 26.6582 47.418L26.6402 47.428C23.9516 48.9055 20.8769 49.5859 17.5195 49.5859C14.527 49.5859 11.6964 48.9821 9.06788 47.7493L9.04828 47.74C6.39596 46.4725 4.22512 44.6599 2.61735 42.297L2.60547 42.2794C1.00339 39.8886 0.172788 37.1782 0.0777335 34.2315C0.0515398 33.4195 0.355794 32.6316 0.920928 32.0479C1.48606 31.4643 2.26375 31.1348 3.07617 31.1348H11.4551C12.9976 31.1348 14.2887 32.3045 14.4405 33.8395C14.5602 35.0499 14.933 35.7002 15.3401 36.0942C15.763 36.4696 16.391 36.7598 17.4902 36.7598C18.5844 36.7598 19.1202 36.4252 19.5162 35.9061C20.0211 35.2246 20.4668 33.997 20.4668 31.8496C20.4668 29.8935 19.9884 28.8732 19.4766 28.3194C18.9872 27.7899 18.1828 27.3496 16.6113 27.3496C15.1764 27.3496 14.2916 27.7058 13.6991 28.1867L12.9398 28.8917C12.1981 29.5804 11.1592 29.8487 10.1768 29.6053L3.43851 27.9353ZM11.7188 25.9316C12.9688 24.877 14.5996 24.3496 16.6113 24.3496C18.7988 24.3496 20.4883 24.9941 21.6797 26.2832C22.8711 27.5723 23.4668 29.4277 23.4668 31.8496C23.4668 34.3691 22.9492 36.3223 21.9141 37.709C20.8789 39.0762 19.4043 39.7598 17.4902 39.7598C15.7715 39.7598 14.375 39.2715 13.3008 38.2949C12.2461 37.2988 11.6309 35.9121 11.4551 34.1348H3.07617C3.11003 35.1843 3.25575 36.1843 3.51334 37.1348C3.85017 38.3776 4.37828 39.5358 5.09766 40.6094C6.38672 42.5039 8.13477 43.9785 10.3418 45.0332C12.5488 46.0684 14.9414 46.5859 17.5195 46.5859C20.4688 46.5859 23.0273 45.9902 25.1953 44.7988C27.3633 43.5879 29.0234 41.8984 30.1758 39.7305C31.3477 37.543 31.9336 35.0723 31.9336 32.3184C31.9336 27.7871 30.7813 24.2617 28.4766 21.7422C26.1719 19.2227 22.9883 17.9629 18.9258 17.9629C17.8097 17.9629 16.7244 18.0932 15.6699 18.3539C14.5838 18.6224 13.5305 19.0292 12.5098 19.5742L13.5645 10.4043H30.5273V3.34375H6.6211L4.16016 25.0234L10.8984 26.6934L11.7188 25.9316Z" fill="white"/>
</svg>
