<svg width="28" height="55" viewBox="0 0 28 55" fill="none" xmlns="http://www.w3.org/2000/svg">
<path fill-rule="evenodd" clip-rule="evenodd" d="M27.5957 52C27.5957 53.6569 26.2526 55 24.5957 55H15C13.3431 55 12 53.6569 12 52V19.0831L4.4336 21.4298C3.52316 21.7122 2.53271 21.5451 1.76532 20.9796C0.997925 20.4142 0.544922 19.5177 0.544922 18.5645V10.7617C0.544922 9.49492 1.34065 8.36465 2.53324 7.93745L22.5547 0.765573C22.8793 0.649291 23.2216 0.589844 23.5664 0.589844H24.5957C26.2526 0.589844 27.5957 1.93299 27.5957 3.58984V52ZM15 15.0117V52H24.5957V3.58984H23.5664L3.54492 10.7617V18.5645L15 15.0117Z" fill="#222222"/>
</svg>
