<svg width="26" height="49" viewBox="0 0 26 49" fill="none" xmlns="http://www.w3.org/2000/svg">
<path fill-rule="evenodd" clip-rule="evenodd" d="M25.4668 46C25.4668 47.6569 24.1237 49 22.4668 49H14C12.3431 49 11 47.6569 11 46V17.4347L4.78125 19.3634C3.87082 19.6458 2.88037 19.4787 2.11298 18.9132C1.34558 18.3478 0.892578 17.4513 0.892578 16.498V9.61328C0.892578 8.34648 1.6883 7.21621 2.8809 6.78901L20.5469 0.460885C20.8715 0.344604 21.2138 0.285156 21.5586 0.285156H22.4668C24.1237 0.285156 25.4668 1.6283 25.4668 3.28516V46ZM14 13.3633V46H22.4668V3.28516H21.5586L3.89258 9.61328V16.498L14 13.3633Z" fill="white"/>
</svg>
