<svg width="38" height="49" viewBox="0 0 38 49" fill="none" xmlns="http://www.w3.org/2000/svg">
<path fill-rule="evenodd" clip-rule="evenodd" d="M34.7832 26.9453C36.4401 26.9453 37.7832 28.2885 37.7832 29.9453V36.7715C37.7832 38.4283 36.4401 39.7715 34.7832 39.7715H32.9492V46C32.9492 47.6569 31.6061 49 29.9492 49H21.4824C19.8256 49 18.4824 47.6569 18.4824 46V39.7715H3.99219C2.41827 39.7715 1.11195 38.5551 0.999814 36.9852L0.618954 31.6532C0.573284 31.0138 0.73361 30.3766 1.07644 29.835L18.8596 1.73929C19.4096 0.870413 20.3662 0.34375 21.3945 0.34375H29.9492C31.6061 0.34375 32.9492 1.6869 32.9492 3.34375V26.9453H34.7832ZM21.4824 36.7715V46H29.9492V36.7715H34.7832V29.9453H29.9492V3.34375H21.3945L3.61133 31.4395L3.99219 36.7715H21.4824ZM12.0488 29.9453H21.4824V14.8867L20.9258 15.8535L12.0488 29.9453ZM18.4824 25.3608L17.4843 26.9453H18.4824V25.3608Z" fill="white"/>
</svg>
