<svg width="37" height="51" viewBox="0 0 37 51" fill="none" xmlns="http://www.w3.org/2000/svg">
<path fill-rule="evenodd" clip-rule="evenodd" d="M10.5137 21.9219C10.5137 20.265 11.8568 18.9219 13.5137 18.9219H18.0254C19.7211 18.9219 20.3807 18.4985 20.6405 18.2289C21.0362 17.8183 21.3535 17.1926 21.3535 16.0332C21.3535 14.9532 21.0537 14.4899 20.7642 14.2223L20.7434 14.2029C20.4307 13.9083 19.8421 13.584 18.582 13.584C17.549 13.584 16.8942 13.8554 16.414 14.2498L16.3889 14.2702C16.017 14.569 15.8691 14.8549 15.8691 15.3887C15.8691 17.0455 14.526 18.3887 12.8691 18.3887H4.40234C2.74549 18.3887 1.40234 17.0455 1.40234 15.3887C1.40234 12.5928 2.16115 10.0084 3.70611 7.72895L3.71019 7.72294C5.25651 5.45335 7.3778 3.73053 9.96664 2.53025L9.97601 2.52591C12.5707 1.33375 15.3858 0.757812 18.377 0.757812C23.3497 0.757812 27.6544 1.95497 30.9167 4.71658C34.2465 7.51516 35.8203 11.3761 35.8203 15.916C35.8203 18.5278 35.009 20.9372 33.4607 23.0694C33.0034 23.6991 32.5032 24.2832 31.962 24.8218C32.8068 25.5263 33.5511 26.3344 34.1791 27.2534C35.7553 29.5316 36.4941 32.173 36.4941 35.0469C36.4941 39.6743 34.7503 43.5807 31.2459 46.47C27.8215 49.3098 23.4312 50.5859 18.377 50.5859C13.5722 50.5859 9.36435 49.3071 6.00561 46.5283L5.9974 46.5215C2.57827 43.6722 0.875 39.8391 0.875 35.3105C0.875 33.6537 2.21815 32.3105 3.875 32.3105H12.3418C13.9987 32.3105 15.3418 33.6537 15.3418 35.3105C15.3418 36.0523 15.5671 36.517 16.0661 36.9456C16.6741 37.452 17.4507 37.7598 18.582 37.7598C20.0696 37.7598 20.8276 37.3796 21.2546 36.9821C21.7236 36.5443 22.0273 35.961 22.0273 34.9297C22.0273 33.3415 21.6035 32.6792 21.2524 32.3603C20.8466 31.9917 19.9449 31.543 17.9961 31.543H13.5137C11.8568 31.543 10.5137 30.1998 10.5137 28.543V21.9219ZM23.2988 39.1777C22.166 40.2324 20.5938 40.7598 18.582 40.7598C16.8242 40.7598 15.3398 40.252 14.1289 39.2363C12.9375 38.2207 12.3418 36.9121 12.3418 35.3105H3.875C3.875 36.3701 3.98603 37.3701 4.20808 38.3105C4.75966 40.6466 5.99629 42.6154 7.91797 44.2168C10.6328 46.4629 14.1191 47.5859 18.377 47.5859C22.9277 47.5859 26.5801 46.4434 29.334 44.1582C32.1074 41.873 33.4941 38.8359 33.4941 35.0469C33.4941 32.7031 32.8984 30.6719 31.707 28.9531C31.1364 28.1162 30.4199 27.3812 29.5576 26.7481C28.6489 26.0809 27.5783 25.5269 26.3457 25.0859C27.4869 24.5672 28.4988 23.9159 29.3814 23.1318C29.9944 22.5874 30.5449 21.979 31.0332 21.3066C32.2246 19.666 32.8203 17.8691 32.8203 15.916C32.8203 12.127 31.541 9.1582 28.9824 7.00977C26.4238 4.8418 22.8887 3.75781 18.377 3.75781C15.7793 3.75781 13.3965 4.25586 11.2285 5.25195C9.08008 6.24805 7.40039 7.63477 6.18945 9.41211C5.56115 10.3391 5.09852 11.3313 4.80156 12.3887C4.53542 13.3363 4.40234 14.3363 4.40234 15.3887H12.8691C12.8691 13.9629 13.416 12.8105 14.5098 11.9316C15.6035 11.0332 16.9609 10.584 18.582 10.584C20.3789 10.584 21.7852 11.0625 22.8008 12.0195C23.8359 12.9766 24.3535 14.3145 24.3535 16.0332C24.3535 17.8105 23.8359 19.2363 22.8008 20.3105C21.7656 21.3848 20.1738 21.9219 18.0254 21.9219H13.5137V28.543H17.9961C22.6836 28.543 25.0273 30.6719 25.0273 34.9297C25.0273 36.6875 24.4512 38.1035 23.2988 39.1777Z" fill="white"/>
</svg>
