<svg width="40" height="57" viewBox="0 0 40 57" fill="none" xmlns="http://www.w3.org/2000/svg">
<path fill-rule="evenodd" clip-rule="evenodd" d="M11.0488 24.5781C11.0488 22.9213 12.392 21.5781 14.0488 21.5781H19.1621C21.1443 21.5781 22.0161 21.0832 22.414 20.6703C22.9476 20.1165 23.334 19.3007 23.334 17.9043C23.334 16.5952 22.9651 15.9535 22.5377 15.5583L22.5168 15.5388C22.0687 15.1166 21.2926 14.7285 19.793 14.7285C18.5438 14.7285 17.708 15.0598 17.082 15.574L17.0569 15.5944C16.5392 16.0104 16.3184 16.4499 16.3184 17.1738C16.3184 18.8307 14.9752 20.1738 13.3184 20.1738H3.72266C2.0658 20.1738 0.722656 18.8307 0.722656 17.1738C0.722656 14.0811 1.56089 11.2311 3.2647 8.71724L3.26878 8.71122C4.97657 6.20465 7.32181 4.29693 10.1971 2.96385L10.2065 2.9595C13.0902 1.63453 16.223 0.992188 19.5605 0.992188C25.1348 0.992188 29.9109 2.33386 33.5143 5.38455C37.1853 8.46959 38.9297 12.7264 38.9297 17.7715C38.9297 20.6436 38.039 23.2927 36.3318 25.6437C35.7371 26.4625 35.0767 27.212 34.3536 27.8917C35.43 28.7329 36.3663 29.7146 37.14 30.8472C38.8751 33.3545 39.6934 36.2667 39.6934 39.4531C39.6934 44.5856 37.7647 48.8968 33.8908 52.0908C30.0991 55.2356 25.2217 56.6641 19.5605 56.6641C14.188 56.6641 9.51539 55.2355 5.79467 52.1572L5.78647 52.1504C2.00796 49.0016 0.125 44.7727 0.125 39.752C0.125 38.0951 1.46815 36.752 3.125 36.752H12.7207C14.3776 36.752 15.7207 38.0951 15.7207 39.752C15.7207 40.7073 16.0254 41.3462 16.6833 41.9104C17.4526 42.5521 18.4269 42.9277 19.793 42.9277C21.5488 42.9277 22.5164 42.4772 23.0944 41.9391C23.717 41.3581 24.0977 40.586 24.0977 39.3203C24.0977 37.4483 23.5957 36.5731 23.0884 36.1123C22.5263 35.6017 21.3903 35.082 19.1289 35.082H14.0488C12.392 35.082 11.0488 33.7389 11.0488 32.082V24.5781ZM25.1387 44.1348C23.8548 45.3301 22.0729 45.9277 19.793 45.9277C17.8008 45.9277 16.1185 45.3522 14.7461 44.2012C13.3958 43.0501 12.7207 41.5671 12.7207 39.752H3.125C3.125 40.8037 3.22153 41.8037 3.4146 42.752C3.98949 45.5755 5.4203 47.9401 7.70703 49.8457C10.7839 52.3913 14.735 53.6641 19.5605 53.6641C24.7181 53.6641 28.8574 52.3691 31.9785 49.7793C35.1217 47.1895 36.6934 43.7474 36.6934 39.4531C36.6934 36.7969 36.0182 34.4948 34.668 32.5469C33.9448 31.4863 33.015 30.5701 31.8785 29.7982C30.9276 29.1525 29.8321 28.6077 28.5918 28.1641C29.7457 27.6396 30.783 26.9954 31.7037 26.2315C32.5315 25.5447 33.265 24.7612 33.9043 23.8809C35.2546 22.0215 35.9297 19.985 35.9297 17.7715C35.9297 13.4772 34.4798 10.1126 31.5801 7.67773C28.6803 5.2207 24.6738 3.99219 19.5605 3.99219C16.6165 3.99219 13.916 4.55664 11.459 5.68555C9.02409 6.81445 7.12044 8.38607 5.74805 10.4004C4.95728 11.5671 4.39806 12.8249 4.0704 14.1738C3.83857 15.1282 3.72266 16.1282 3.72266 17.1738H13.3184C13.3184 15.5579 13.9382 14.252 15.1777 13.2559C16.4173 12.2376 17.9557 11.7285 19.793 11.7285C21.8294 11.7285 23.4232 12.2708 24.5742 13.3555C25.7474 14.4401 26.334 15.9564 26.334 17.9043C26.334 19.9186 25.7474 21.5345 24.5742 22.752C23.401 23.9694 21.597 24.5781 19.1621 24.5781H14.0488V32.082H19.1289C24.4414 32.082 27.0977 34.4948 27.0977 39.3203C27.0977 41.3125 26.4447 42.9173 25.1387 44.1348Z" fill="#222222"/>
</svg>
