<svg width="48" height="35" viewBox="0 0 48 35" fill="none" xmlns="http://www.w3.org/2000/svg">
<path fill-rule="evenodd" clip-rule="evenodd" d="M34.1083 21.7909C32.144 29.2132 25.382 34.6842 17.3421 34.6842C7.76433 34.6842 0 26.9199 0 17.3421C0 7.76433 7.76433 0 17.3421 0C25.382 0 32.144 5.47106 34.1083 12.8933C35.4972 10.9505 37.7718 9.68421 40.3421 9.68421C44.5714 9.68421 48 13.1128 48 17.3421C48 21.5714 44.5714 25 40.3421 25C37.7718 25 35.4972 23.7337 34.1083 21.7909ZM2 17.3421C2 8.86889 8.86889 2 17.3421 2C25.8102 2 32.6759 8.86054 32.6842 17.3266C32.6842 17.3318 32.6842 17.337 32.6842 17.3421C32.6842 17.3473 32.6842 17.3524 32.6842 17.3576C32.6759 25.8237 25.8102 32.6842 17.3421 32.6842C8.86889 32.6842 2 25.8153 2 17.3421ZM34.6842 17.3583C34.6929 20.4756 37.2227 23 40.3421 23C43.4669 23 46 20.4669 46 17.3421C46 14.2173 43.4669 11.6842 40.3421 11.6842C37.2227 11.6842 34.6929 14.2086 34.6842 17.3259C34.6842 17.3313 34.6842 17.3367 34.6842 17.3421C34.6842 17.3475 34.6842 17.3529 34.6842 17.3583Z" fill="#F9C74F"/>
</svg>
