<svg width="109" height="83" viewBox="0 0 109 83" fill="none" xmlns="http://www.w3.org/2000/svg">
<path d="M12.1783 36.2503C17.0782 39.9239 20.3678 45.7532 14.2175 53.2445C8.06722 60.7358 2.15725 52.7306 8.06701 50.3519C13.9768 47.9731 26.9292 51.8795 26.6469 65.6012C26.6514 78.2062 14.3624 73.0064 17.0782 66.4792C19.794 59.9521 35.5906 51.5489 43.7344 60.7359C51.8783 69.9228 39.8779 74.424 35.8783 69.9228C31.8786 65.4216 31.1417 46.9237 47.8782 50.3519C62.0001 53.2445 56.5001 36.967 52.5001 38.9669C48.5 40.9667 53.9999 48.6674 70.4998 49.0001C86.9997 49.3329 106.5 33.5002 96.9999 17.0001C87.5 0.5 50.0003 6.63423 66.0003 54.1342" stroke="#F9C74F" stroke-width="2" stroke-linecap="round" stroke-linejoin="round"/>
<path d="M83.9709 15.6366C78.9712 13.1366 75.4709 16.1366 73.9709 19.6366" stroke="#F9C74F" stroke-width="2" stroke-linecap="round" stroke-linejoin="round"/>
</svg>
