<svg width="157" height="117" viewBox="0 0 157 117" fill="none" xmlns="http://www.w3.org/2000/svg">
<path fill-rule="evenodd" clip-rule="evenodd" d="M129.483 24.4056C126.568 26.7765 123.41 30.0463 121.391 32.3393C121.026 32.7538 120.394 32.794 119.98 32.429C119.565 32.0641 119.525 31.4322 119.89 31.0177C121.948 28.6802 125.188 25.3211 128.221 22.8541C129.728 21.628 131.243 20.5736 132.57 19.9936C133.231 19.7045 133.917 19.5013 134.572 19.4978C135.259 19.4942 135.941 19.7142 136.454 20.2868C137.064 20.9663 137.185 21.8012 137.059 22.5893C136.938 23.3473 136.582 24.1281 136.143 24.8743C135.262 26.3711 133.859 28.0277 132.52 29.555C132.267 29.8428 132.018 30.1257 131.773 30.4029C130.683 31.6369 129.694 32.7571 129.03 33.6851C128.748 34.0792 128.561 34.3888 128.452 34.6195C128.539 34.5986 128.646 34.5674 128.776 34.5209C129.295 34.3363 129.961 33.991 130.756 33.5106C131.91 32.814 133.217 31.9077 134.586 30.958C135.109 30.5957 135.64 30.2271 136.176 29.8614C138.068 28.5695 140.029 27.3012 141.646 26.6604C142.442 26.3448 143.295 26.1221 144.075 26.2308C144.485 26.2881 144.891 26.4396 145.241 26.7276C145.591 27.015 145.83 27.3931 145.981 27.8176C146.601 29.564 145.533 31.1393 144.327 32.3212C143.066 33.5575 141.271 34.7457 139.549 35.8251C139.114 36.0978 138.684 36.3633 138.265 36.622C136.981 37.4153 135.799 38.1452 134.884 38.8258C134.277 39.2775 133.863 39.6547 133.632 39.9571C133.582 40.022 133.547 40.0747 133.522 40.1166C133.53 40.1179 133.538 40.1191 133.547 40.1203C133.836 40.1615 134.306 40.1314 134.972 40C136.248 39.7485 137.88 39.2056 139.583 38.6393C139.637 38.6212 139.692 38.6031 139.746 38.585C141.454 38.0171 143.246 37.4262 144.612 37.2094C145.273 37.1044 146 37.0563 146.605 37.2565C146.932 37.3645 147.271 37.5607 147.519 37.9009C147.77 38.2442 147.86 38.6393 147.855 39.0186C147.846 39.7262 147.541 40.3654 147.156 40.9054C146.767 41.4508 146.241 41.9719 145.66 42.4624C144.498 43.4422 142.978 44.4133 141.512 45.3093C141.108 45.5558 140.71 45.7961 140.321 46.0303C139.268 46.6656 138.289 47.2558 137.488 47.8024C137.07 48.0875 136.727 48.3435 136.463 48.57C137.145 48.4941 138.037 48.301 139.046 48.0822C140.162 47.8401 141.41 47.5696 142.428 47.4993C142.933 47.4645 143.47 47.4708 143.943 47.6003C144.431 47.7338 144.998 48.0468 145.241 48.7152C145.453 49.2998 145.323 49.9338 145.136 50.4425C144.936 50.9881 144.599 51.5801 144.158 52.1862C143.274 53.403 141.893 54.7809 140.053 56.0928C136.365 58.7228 130.762 61.1372 123.407 61.4464C115.771 61.7674 110.111 56.982 107.66 51.6303C106.434 48.954 105.973 46.0601 106.523 43.5116C107.082 40.9272 108.681 38.7324 111.454 37.5927C116.689 35.4415 121.087 36.7143 123.766 39.2854C126.358 41.7732 127.432 45.6517 125.597 48.4696C124.58 50.0313 123.147 50.7153 121.689 50.8405C121.356 52.4517 120.538 54.1594 119.041 55.8101C118.67 56.2193 118.038 56.2504 117.629 55.8795C117.22 55.5086 117.189 54.8762 117.56 54.467C118.732 53.1731 119.382 51.8804 119.674 50.6838C119.162 50.5642 118.672 50.3895 118.222 50.1753C117.083 49.6336 116.065 48.7916 115.473 47.7772C114.865 46.7357 114.684 45.4426 115.429 44.2436C115.785 43.67 116.281 43.247 116.896 43.0599C117.505 42.8748 118.12 42.9541 118.66 43.1772C119.714 43.6118 120.615 44.6295 121.18 45.8676C121.57 46.7211 121.821 47.7178 121.861 48.7999C122.668 48.6383 123.395 48.1861 123.921 47.3784C125.052 45.6417 124.549 42.8091 122.381 40.7285C120.3 38.7311 116.752 37.5781 112.214 39.4426C110.102 40.3107 108.91 41.9361 108.478 43.934C108.039 45.9678 108.388 48.4181 109.478 50.7975C111.658 55.5571 116.649 59.7287 123.323 59.4482C130.277 59.1558 135.507 56.8778 138.892 54.4644C140.588 53.2546 141.804 52.023 142.541 51.01C142.911 50.5013 143.141 50.0734 143.259 49.7524C143.297 49.6499 143.319 49.5703 143.331 49.5108C143.171 49.482 142.922 49.47 142.565 49.4946C141.722 49.5528 140.631 49.785 139.47 50.0367L139.355 50.0617C138.283 50.2944 137.136 50.5435 136.264 50.594C135.835 50.6188 135.298 50.6105 134.846 50.4067C134.595 50.2938 134.326 50.1011 134.146 49.7853C133.964 49.4679 133.932 49.1298 133.968 48.8343C134.047 48.1995 134.487 47.6872 134.849 47.3355C135.253 46.9436 135.783 46.5447 136.361 46.1504C137.212 45.5695 138.265 44.9349 139.336 44.2889C139.714 44.0609 140.094 43.8316 140.469 43.6027C141.937 42.7057 143.338 41.8045 144.37 40.9338C144.885 40.4991 145.273 40.1004 145.528 39.744C145.718 39.4775 145.804 39.2746 145.838 39.1281C145.665 39.1091 145.373 39.1136 144.925 39.1846C143.757 39.3701 142.141 39.8966 140.377 40.4828C140.3 40.5085 140.223 40.5342 140.145 40.5601C138.503 41.1066 136.763 41.6855 135.359 41.9623C134.632 42.1057 133.894 42.19 133.265 42.1003C132.62 42.0085 131.857 41.6853 131.564 40.8279C131.28 39.9989 131.653 39.2523 132.043 38.7419C132.447 38.2142 133.042 37.7041 133.69 37.2214C134.681 36.484 135.972 35.6872 137.277 34.8815C137.682 34.6315 138.088 34.3807 138.487 34.1305C140.22 33.0443 141.84 31.9587 142.927 30.8929C144.07 29.7729 144.285 29.018 144.096 28.4863C144.045 28.3412 143.992 28.2901 143.971 28.2726C143.951 28.2558 143.906 28.2267 143.798 28.2117C143.541 28.1758 143.084 28.2417 142.383 28.5197C141.005 29.0658 139.22 30.2043 137.304 31.5131C136.801 31.8561 136.29 32.2104 135.78 32.5646C134.39 33.5282 133.002 34.4908 131.79 35.2226C130.961 35.7237 130.157 36.152 129.448 36.4049C128.808 36.6327 127.934 36.835 127.193 36.4268C126.824 36.2239 126.535 35.9018 126.405 35.4728C126.285 35.0773 126.33 34.6905 126.413 34.3789C126.574 33.7748 126.968 33.1294 127.404 32.5207C128.134 31.501 129.212 30.2802 130.304 29.044C130.542 28.7749 130.78 28.5051 131.016 28.2364C132.37 26.692 133.648 25.1698 134.42 23.8596C134.807 23.2024 135.02 22.6728 135.084 22.2734C135.143 21.9039 135.066 21.7342 134.965 21.6219C134.911 21.5611 134.824 21.4965 134.583 21.4978C134.31 21.4992 133.91 21.5905 133.371 21.8262C132.296 22.296 130.949 23.2128 129.483 24.4056ZM119.851 48.6683C119.799 47.9234 119.615 47.2555 119.361 46.6986C118.931 45.7576 118.339 45.2083 117.898 45.0261C117.691 44.9408 117.557 44.9494 117.478 44.9733C117.406 44.9953 117.276 45.0613 117.128 45.2988C116.865 45.7221 116.87 46.2036 117.2 46.7691C117.546 47.3616 118.218 47.959 119.081 48.3692C119.334 48.4897 119.592 48.5899 119.851 48.6683ZM133.379 40.0788C133.38 40.0785 133.384 40.0804 133.391 40.0853C133.382 40.0815 133.378 40.0791 133.379 40.0788ZM133.467 40.2379C133.467 40.2447 133.466 40.2482 133.466 40.2483C133.465 40.2484 133.466 40.2451 133.467 40.2379ZM128.331 34.9663C128.331 34.9663 128.331 34.9659 128.331 34.9649Z" fill="#F9C74F"/>
<path fill-rule="evenodd" clip-rule="evenodd" d="M54.0237 66.6727C51.2358 58.4636 47.0027 54.1448 42.5215 52.7654C37.9956 51.3723 32.8767 52.8743 28.1699 57.0399C23.6945 61.0008 22.6369 66.9004 21.6163 72.5935L21.5531 72.9461C21.0448 75.7772 20.5166 78.5832 19.4673 80.8527C19.1097 81.6259 18.6877 82.3456 18.1818 82.9908C18.5283 83.4927 18.877 84.0374 19.2276 84.6266C19.51 85.1013 19.3542 85.715 18.8796 85.9974C18.405 86.2798 17.7913 86.1239 17.5089 85.6493C17.2481 85.211 16.992 84.805 16.7411 84.4293C15.9666 85.0269 15.0539 85.4972 13.9714 85.8063C11.3331 86.5595 9.34245 86.0388 8.30454 84.5651C7.33437 83.1876 7.4724 81.3231 8.27896 79.9989C8.69487 79.3161 9.31529 78.7252 10.1243 78.394C10.943 78.0588 11.8885 78.0173 12.8917 78.3306C14.1628 78.7275 15.5156 79.6857 16.9173 81.3327C17.1887 80.9306 17.4314 80.4901 17.6519 80.0132C18.5743 78.0186 19.0667 75.4766 19.5845 72.5927C19.6185 72.4035 19.6525 72.2129 19.6868 72.0211L19.6881 72.0141C20.6725 66.5014 21.8385 59.9726 26.8444 55.5422C31.8879 51.0786 37.7108 49.192 43.1099 50.8539C48.282 52.446 52.7516 57.1991 55.6643 65.3052C55.7134 65.3832 55.7524 65.4693 55.7791 65.5623C55.8249 65.722 55.8739 65.8864 55.926 66.0549C55.9586 66.1511 55.9911 66.2478 56.0232 66.3449C56.0352 66.3809 56.045 66.4171 56.0526 66.4534C56.814 68.7883 58.1234 71.7732 59.8586 74.0659C61.8543 76.7026 64.1173 78.0805 66.597 77.2568C68.1583 76.7381 69.5572 75.1658 70.6634 72.819C70.9695 72.1697 71.2461 71.4755 71.4924 70.7509C70.6587 69.5271 69.937 68.1675 69.3438 66.7834C68.1464 63.9896 67.4181 60.9693 67.3811 58.5329C67.3627 57.3215 67.5135 56.1714 67.9312 55.2527C68.3638 54.3011 69.1183 53.5429 70.2509 53.3519C71.3398 53.1683 72.2741 53.553 72.9755 54.2833C73.6371 54.9721 74.0828 55.9505 74.3807 57.0217C74.98 59.177 75.0841 62.0867 74.7627 65.0409C74.5687 66.8241 74.2159 68.6591 73.7029 70.3953C74.2994 71.1695 74.9371 71.8422 75.6033 72.375C76.4684 73.0666 77.348 73.4959 78.222 73.6388C79.0816 73.7793 79.9973 73.6536 80.9775 73.1359C83.028 72.0529 84.4779 70.1108 85.4289 67.706C85.7102 66.9947 85.9451 66.2491 86.1374 65.4831C85.4014 64.2701 84.7735 62.952 84.2579 61.6261C83.2437 59.018 82.6291 56.29 82.501 54.1077C82.4374 53.0237 82.4898 52.0128 82.7107 51.1997C82.9203 50.4281 83.3666 49.5527 84.3066 49.261C85.2867 48.9569 86.0968 49.4694 86.6159 50.0694C87.1307 50.6645 87.5366 51.517 87.8523 52.4686C88.4912 54.3948 88.8676 57.0587 88.8333 59.8776C88.8126 61.5835 88.6413 63.3729 88.2742 65.1154C88.794 65.8908 89.357 66.5888 89.957 67.1764C91.5095 68.6968 93.213 69.3988 95.0664 68.9859C97.0354 68.5472 98.7033 67.2022 100.023 65.305C101.263 63.5212 102.15 61.3094 102.648 59.1057C102.254 58.8025 101.881 58.4698 101.534 58.1195C100.46 57.0381 99.5717 55.7358 98.9846 54.4637C98.412 53.2229 98.0635 51.8731 98.2558 50.7373C98.356 50.146 98.6128 49.5647 99.1106 49.1288C99.6099 48.6917 100.25 48.4894 100.951 48.4691C101.975 48.4396 102.836 48.8423 103.486 49.5318C104.111 50.1946 104.518 51.092 104.767 52.0653C105.207 53.7766 105.22 55.9445 104.865 58.1678C105.2 58.3455 105.538 58.4837 105.873 58.5769C108.116 59.2002 110.01 59.1118 111.797 58.4691C113.611 57.8164 115.382 56.5681 117.325 54.7547C117.729 54.3779 118.361 54.3996 118.738 54.8033C119.115 55.2071 119.093 55.8399 118.69 56.2167C116.657 58.1137 114.654 59.5669 112.473 60.351C110.266 61.1451 107.946 61.2289 105.338 60.5039C105.034 60.4194 104.736 60.3119 104.445 60.1847C103.879 62.3833 102.954 64.5927 101.665 66.4469C100.161 68.6093 98.1104 70.3567 95.5014 70.938C92.7769 71.5451 90.4162 70.4254 88.5577 68.6054C88.2284 68.2829 87.9119 67.9361 87.6083 67.569C87.5087 67.8634 87.4022 68.1545 87.2888 68.4414C86.2251 71.1313 84.5138 73.53 81.9115 74.9044C80.5653 75.6154 79.2101 75.8268 77.8994 75.6126C76.6032 75.4008 75.4131 74.7836 74.3543 73.937C73.861 73.5425 73.389 73.0926 72.94 72.599C72.7924 72.9655 72.6366 73.3237 72.4725 73.6717C71.2826 76.1961 69.5668 78.3776 67.2275 79.1548C63.4661 80.4043 60.3973 78.0916 58.2639 75.2729C56.2524 72.6153 54.8082 69.2 54.0237 66.6727ZM13.4223 83.8831C14.2527 83.646 14.9537 83.2881 15.5534 82.8188C14.2552 81.2435 13.1422 80.504 12.2956 80.2397C11.6965 80.0526 11.2326 80.1014 10.882 80.2449C10.5216 80.3924 10.2128 80.6686 9.98706 81.0393C9.51024 81.8222 9.51479 82.8101 9.9397 83.4134C10.2969 83.9206 11.2298 84.5091 13.4223 83.8831ZM102.83 52.5626C103.121 53.6936 103.193 55.1666 103.029 56.7863C103.004 56.7612 102.979 56.736 102.953 56.7106C102.046 55.7962 101.291 54.6876 100.801 53.6256C100.296 52.5323 100.134 51.6246 100.228 51.0712C100.271 50.8178 100.356 50.6967 100.428 50.6335C100.499 50.5717 100.656 50.4785 101.009 50.4683C101.421 50.4564 101.744 50.5992 102.031 50.9042C102.344 51.2359 102.63 51.7817 102.83 52.5626ZM86.8335 59.8533C86.8238 60.6472 86.7793 61.4544 86.696 62.2602C86.4925 61.8156 86.3009 61.3614 86.1219 60.9012C85.1704 58.4544 84.6115 55.9317 84.4976 53.9905C84.4402 53.0128 84.4996 52.2437 84.6408 51.724C84.7398 51.3597 84.8445 51.2275 84.8894 51.1848C84.9281 51.2072 85.0018 51.2606 85.1034 51.378C85.3696 51.6857 85.6738 52.2535 85.954 53.0983C86.5069 54.7651 86.8657 57.1989 86.8335 59.8533ZM72.7744 64.8246C72.6545 65.9269 72.4708 67.0416 72.2257 68.1292C71.8477 67.4494 71.4982 66.7331 71.1821 65.9955C70.0597 63.3768 69.4129 60.6163 69.3809 58.5025C69.3647 57.4388 69.5059 56.6215 69.7519 56.0804C69.9829 55.5721 70.2638 55.378 70.5834 55.3241C70.9468 55.2628 71.2359 55.3593 71.5331 55.6688C71.8702 56.0197 72.1985 56.6396 72.4538 57.5576C72.9608 59.3808 73.0803 62.0133 72.7744 64.8246Z" fill="#F9C74F"/>
</svg>
