<svg class="icn-deco icn-hand" width="112" height="55" viewBox="0 0 112 55" fill="none" xmlns="http://www.w3.org/2000/svg">
<path fill-rule="evenodd" clip-rule="evenodd" d="M13.067 21.1008C16.7485 21.8509 21.0629 23.2847 23.9143 24.381C24.4298 24.5792 25.0084 24.322 25.2066 23.8065C25.4048 23.291 25.1476 22.7124 24.6321 22.5142C21.7252 21.3966 17.2972 19.9216 13.4663 19.141C11.5624 18.7531 9.73169 18.5206 8.2872 18.6216C7.56697 18.6719 6.86537 18.8095 6.28304 19.1101C5.67289 19.4251 5.17018 19.9364 4.98063 20.6816C4.75569 21.5661 5.03487 22.3622 5.5118 23.0022C5.97057 23.6177 6.64735 24.1449 7.38247 24.6026C8.85695 25.5205 10.8678 26.3384 12.7623 27.0712C13.1193 27.2092 13.4717 27.3442 13.8171 27.4764C15.3545 28.0649 16.75 28.5992 17.7689 29.1136C18.2017 29.3321 18.51 29.5202 18.7141 29.6738C18.6275 29.6955 18.5181 29.7175 18.3808 29.7368C17.8361 29.8134 17.0855 29.8162 16.158 29.7591C14.813 29.6764 13.2351 29.4789 11.5814 29.272C10.9506 29.1931 10.3088 29.1128 9.66465 29.0369C7.38916 28.769 5.06373 28.5539 3.3339 28.7354C2.48201 28.8247 1.62304 29.0227 0.982735 29.4802C0.645541 29.7212 0.356308 30.0434 0.179291 30.461C0.00262357 30.8778 -0.0344761 31.3238 0.0287722 31.7697C0.289029 33.6044 1.96522 34.5056 3.58146 34.9941C5.27203 35.5051 7.41277 35.7265 9.43903 35.8849C9.95094 35.9249 10.4549 35.961 10.946 35.9961C12.452 36.1037 13.8375 36.2028 14.9633 36.3821C15.7105 36.5011 16.2526 36.6433 16.5978 36.804C16.6718 36.8385 16.7272 36.8691 16.7684 36.8948C16.7621 36.8995 16.7555 36.9043 16.7485 36.9093C16.5112 37.0799 16.081 37.271 15.4297 37.4634C14.1825 37.8318 12.4845 38.1071 10.7131 38.3944C10.6566 38.4035 10.5999 38.4127 10.5433 38.4219C8.76658 38.7102 6.90537 39.0168 5.59434 39.4577C4.95967 39.6712 4.29313 39.9655 3.84971 40.4232C3.61034 40.6703 3.40095 41.0012 3.33833 41.418C3.27517 41.8383 3.37873 42.23 3.55899 42.5639C3.89522 43.1866 4.46128 43.6119 5.05276 43.9119C5.65022 44.2149 6.35792 44.4329 7.1003 44.5981C8.58337 44.9283 10.3804 45.0843 12.0954 45.1986C12.5671 45.2301 13.0315 45.2584 13.4841 45.2859C14.7121 45.3607 15.8528 45.4302 16.816 45.5433C17.3182 45.6023 17.741 45.6701 18.0799 45.7485C17.4409 45.9971 16.5602 46.2396 15.5651 46.5132C14.4637 46.816 13.2331 47.1544 12.2984 47.5638C11.8349 47.7669 11.3616 48.0216 11.0023 48.3556C10.6318 48.7 10.2749 49.2399 10.3692 49.9448C10.4518 50.5614 10.8609 51.0629 11.2623 51.427C11.6929 51.8175 12.2654 52.1862 12.9369 52.519C14.2847 53.1873 16.1469 53.7684 18.3851 54.0783C22.8723 54.6996 28.9555 54.2429 35.6167 51.1082C42.5318 47.8541 45.33 40.9904 45.0219 35.1121C44.8679 32.1726 43.9354 29.3944 42.2665 27.3913C40.574 25.3599 38.1401 24.1559 35.1542 24.4313C29.5182 24.9511 26.2115 28.1169 25.0288 31.6368C23.8844 35.0428 24.7304 38.9772 27.6622 40.624C29.287 41.5366 30.8741 41.4785 32.2244 40.9136C33.2655 42.1873 34.7825 43.3211 36.8733 44.0905C37.3916 44.2813 37.9664 44.0157 38.1571 43.4974C38.3479 42.9791 38.0823 42.4043 37.564 42.2136C35.9251 41.6105 34.7504 40.7661 33.9368 39.8412C34.3349 39.498 34.6888 39.1158 34.9885 38.7174C35.7466 37.7096 36.2584 36.4917 36.3129 35.3185C36.3688 34.1139 35.9297 32.8844 34.7141 32.167C34.1326 31.8238 33.4972 31.6788 32.8653 31.7981C32.2401 31.9161 31.7324 32.2712 31.3565 32.7195C30.6243 33.5928 30.2979 34.912 30.3706 36.2712C30.4206 37.2082 30.66 38.2078 31.1256 39.1854C30.3358 39.4161 29.482 39.3523 28.6417 38.8802C26.8349 37.8653 25.9675 35.1224 26.9247 32.2738C27.8435 29.5393 30.4532 26.8734 35.3379 26.4228C37.6123 26.213 39.4215 27.1011 40.7299 28.6715C42.0618 30.2701 42.8877 32.6033 43.0247 35.2168C43.2987 40.4447 40.8089 46.4544 34.7652 49.2985C28.4676 52.2621 22.7771 52.6673 18.6595 52.0972C16.5954 51.8114 14.9473 51.2834 13.8252 50.7272C13.2617 50.4478 12.8593 50.1753 12.6059 49.9456C12.5251 49.8722 12.4687 49.8118 12.4297 49.7651C12.5584 49.6653 12.774 49.539 13.101 49.3957C13.875 49.0566 14.95 48.7565 16.0952 48.4417L16.2089 48.4104C17.2666 48.1199 18.3987 47.8089 19.1946 47.4496C19.5865 47.2727 20.0578 47.0169 20.3645 46.6265C20.5344 46.4102 20.6834 46.1148 20.6968 45.7514C20.7103 45.3862 20.5825 45.0715 20.4133 44.8265C20.0497 44.3003 19.4218 44.0504 18.9378 43.9067C18.3985 43.7465 17.7441 43.6386 17.0493 43.557C16.0258 43.4368 14.7991 43.3621 13.5505 43.2861C13.1099 43.2593 12.6665 43.2323 12.2284 43.2031C10.5118 43.0886 8.85271 42.9393 7.53486 42.6459C6.87678 42.4994 6.34783 42.3262 5.95741 42.1282C5.66546 41.9801 5.49467 41.8405 5.39731 41.726C5.54128 41.6293 5.80258 41.4978 6.23192 41.3534C7.35316 40.9762 9.02957 40.6937 10.8636 40.3961C10.9439 40.383 11.0245 40.37 11.1053 40.3569C12.814 40.0801 14.6236 39.7869 15.9963 39.3814C16.7072 39.1714 17.3995 38.9045 17.9159 38.5333C18.445 38.153 18.9707 37.5134 18.8334 36.6175C18.7007 35.7514 18.0248 35.2624 17.4422 34.991C16.8399 34.7105 16.0763 34.5342 15.2779 34.407C14.0582 34.2127 12.5453 34.1048 11.0155 33.9956C10.5409 33.9617 10.0646 33.9277 9.59494 33.891C7.55606 33.7316 5.61749 33.5202 4.16015 33.0797C2.62849 32.6167 2.08819 32.0475 2.00895 31.4888C1.98732 31.3364 2.00995 31.2669 2.02067 31.2416C2.03105 31.2171 2.05688 31.1708 2.14549 31.1075C2.35678 30.9565 2.79238 30.8031 3.54256 30.7244C5.01686 30.5698 7.12559 30.7518 9.43075 31.0232C10.0349 31.0943 10.6517 31.1715 11.2684 31.2487C12.9462 31.4587 14.6224 31.6684 16.0352 31.7554C17.0027 31.8149 17.9129 31.8222 18.6592 31.7173C19.3314 31.6228 20.1996 31.3972 20.6675 30.6917C20.9002 30.341 21.0071 29.9217 20.9236 29.4812C20.8467 29.0751 20.6274 28.7533 20.4093 28.5157C19.9866 28.055 19.3386 27.6656 18.6702 27.3282C17.5507 26.763 16.0293 26.181 14.4887 25.5917C14.1533 25.4634 13.817 25.3347 13.4838 25.2058C11.5681 24.4649 9.73014 23.7082 8.43948 22.9047C7.79204 22.5016 7.35716 22.1314 7.11544 21.807C6.89188 21.507 6.88174 21.3208 6.91892 21.1746C6.93907 21.0954 6.98629 20.9979 7.20047 20.8873C7.44246 20.7624 7.83958 20.6577 8.42663 20.6167C9.59667 20.5349 11.2147 20.7233 13.067 21.1008ZM32.8458 38.1373C32.5474 37.4527 32.4004 36.7759 32.3677 36.1645C32.3125 35.1315 32.5822 34.3706 32.8891 34.0044C33.0328 33.833 33.1554 33.7786 33.2363 33.7633C33.3104 33.7493 33.4568 33.7473 33.6976 33.8894C34.1267 34.1426 34.3454 34.5716 34.3151 35.2257C34.2832 35.911 33.9644 36.7518 33.3902 37.5151C33.2217 37.7391 33.0395 37.9476 32.8458 38.1373ZM16.878 36.7948C16.8773 36.7948 16.874 36.7987 16.87 36.8064C16.8766 36.7986 16.8786 36.7948 16.878 36.7948ZM16.8735 36.9767C16.8767 36.9826 16.8791 36.9854 16.8795 36.9853C16.8799 36.9852 16.8783 36.9823 16.8735 36.9767ZM18.9817 29.9253C18.9817 29.9253 18.9814 29.9249 18.9809 29.924L18.9817 29.9253Z" fill="#F9C74F"/>
<path fill-rule="evenodd" clip-rule="evenodd" d="M99.5218 23.5855C98.1879 15.0191 99.9377 9.23035 103.269 5.93138C106.634 2.59944 111.866 1.55818 117.968 3.06826C123.769 4.50413 127.44 9.24189 130.983 13.8138L131.203 14.0969C132.965 16.3701 134.733 18.6119 136.715 20.1366C137.39 20.6561 138.098 21.0982 138.845 21.4356C138.77 22.0409 138.714 22.6852 138.676 23.3698C138.646 23.9213 139.068 24.3929 139.62 24.4232C140.171 24.4535 140.643 24.031 140.673 23.4795C140.701 22.9703 140.74 22.4919 140.788 22.0426C141.751 22.2132 142.778 22.207 143.881 21.9792C146.568 21.4241 148.09 20.0401 148.327 18.2532C148.548 16.583 147.562 14.9948 146.234 14.1951C145.549 13.7828 144.725 13.5467 143.855 13.6281C142.974 13.7105 142.117 14.1119 141.373 14.8544C140.43 15.7952 139.676 17.2712 139.197 19.3803C138.77 19.1498 138.351 18.8718 137.934 18.5515C136.193 17.2114 134.578 15.187 132.783 12.8715C132.665 12.7196 132.547 12.5665 132.428 12.4124L132.423 12.4068C128.996 7.97793 124.937 2.73291 118.448 1.12684C111.911 -0.491257 105.876 0.535395 101.862 4.51021C98.0168 8.31784 96.2588 14.6011 97.4342 23.134C97.4269 23.2258 97.4323 23.3202 97.4517 23.415C97.4851 23.5778 97.5179 23.7462 97.5498 23.9196C97.5655 24.02 97.5816 24.1207 97.598 24.2216C97.6041 24.2591 97.6123 24.2957 97.6223 24.3314C98.0297 26.7533 98.2526 30.0052 97.7775 32.8409C97.2309 36.1023 95.8642 38.372 93.2851 38.7912C91.6611 39.0551 89.693 38.3102 87.6251 36.7432C87.053 36.3097 86.4862 35.8228 85.9321 35.2948C86.1038 33.8239 86.1132 32.2848 85.9974 30.7833C85.7638 27.7527 85.0095 24.7388 83.9132 22.5627C83.3681 21.4807 82.7014 20.5314 81.9056 19.9109C81.0812 19.2681 80.0613 18.9459 78.9691 19.3016C77.9192 19.6435 77.2695 20.4174 76.9864 21.3896C76.7193 22.3065 76.7778 23.38 77.0103 24.4673C77.478 26.6549 78.7342 29.2816 80.388 31.7504C81.3863 33.2407 82.5493 34.7033 83.8085 36.0041C83.6387 36.9665 83.3854 37.8582 83.0419 38.639C82.5959 39.6528 82.0154 40.4409 81.3071 40.9725C80.6105 41.4953 79.7408 41.8083 78.6323 41.8038C76.3134 41.7944 74.1285 40.7454 72.1714 39.055C71.5925 38.5551 71.0388 38.0033 70.5135 37.4136C70.6035 35.9977 70.549 34.5386 70.3915 33.1248C70.0816 30.3437 69.3619 27.6414 68.4641 25.6483C68.0182 24.6582 67.5033 23.7867 66.9306 23.1685C66.3873 22.582 65.5862 22.0131 64.618 22.1902C63.6086 22.3749 63.1282 23.2045 62.9463 23.9768C62.7659 24.7427 62.8013 25.6862 62.9625 26.6758C63.289 28.6787 64.19 31.2137 65.5267 33.6957C66.3356 35.1978 67.3167 36.704 68.4495 38.078C68.3482 39.0061 68.1728 39.8855 67.9134 40.6843C67.2423 42.7509 66.0581 44.1625 64.2243 44.6555C62.2763 45.1792 60.175 44.7603 58.1266 43.6906C56.2008 42.6847 54.3899 41.1358 52.9272 39.4138C53.1358 38.9626 53.3119 38.495 53.4576 38.0235C53.9076 36.5678 54.0917 35.002 54.0224 33.6026C53.9547 32.2377 53.638 30.8801 52.9412 29.9628C52.5785 29.4853 52.0815 29.0891 51.4384 28.9336C50.7934 28.7776 50.132 28.8952 49.5015 29.2021C48.5812 29.65 48.0046 30.4061 47.7478 31.3185C47.5009 32.1954 47.5568 33.179 47.7865 34.1572C48.1902 35.8772 49.1836 37.8043 50.5284 39.61C50.3134 39.9229 50.0781 40.2019 49.8241 40.44C48.1259 42.0314 46.4067 42.8308 44.5255 43.0893C42.6152 43.3518 40.4669 43.0665 37.9053 42.3599C37.3729 42.213 36.8222 42.5255 36.6753 43.0579C36.5285 43.5903 36.841 44.141 37.3734 44.2878C40.0533 45.0271 42.5025 45.3861 44.7977 45.0707C47.122 44.7513 49.2163 43.7505 51.1917 41.8993C51.4218 41.6837 51.636 41.4503 51.8352 41.2026C53.3551 42.8888 55.1989 44.4178 57.2008 45.4633C59.5354 46.6826 62.1623 47.2809 64.7436 46.5869C67.4392 45.8622 69.0122 43.7761 69.8156 41.302C69.958 40.8637 70.0777 40.4096 70.1766 39.9437C70.4014 40.1584 70.6306 40.367 70.8641 40.5687C73.0532 42.4593 75.6813 43.7918 78.6242 43.8038C80.1466 43.81 81.4454 43.3693 82.5076 42.5721C83.5581 41.7836 84.3267 40.6853 84.8726 39.4444C85.1269 38.8662 85.3367 38.2488 85.5058 37.6033C85.8064 37.8597 86.1105 38.1048 86.4172 38.3372C88.6414 40.0227 91.1728 41.1607 93.6059 40.7653C97.5182 40.1294 99.1657 36.6579 99.75 33.1714C100.301 29.8843 99.9979 26.1885 99.5218 23.5855ZM143.476 20.0206C142.63 20.1953 141.843 20.203 141.094 20.0651C141.515 18.0675 142.158 16.8965 142.786 16.2699C143.23 15.8265 143.664 15.6547 144.041 15.6194C144.429 15.5831 144.83 15.6848 145.202 15.9087C145.987 16.3814 146.441 17.259 146.344 17.9905C146.263 18.6054 145.709 19.5593 143.476 20.0206ZM49.7335 33.7002C50.0004 34.8369 50.6186 36.176 51.5146 37.5351C51.5255 37.5012 51.5363 37.4671 51.5468 37.4328C51.9273 36.202 52.0827 34.8697 52.0248 33.7016C51.9652 32.4988 51.6881 31.6195 51.3486 31.1725C51.1931 30.9679 51.0614 30.9001 50.9683 30.8775C50.877 30.8554 50.6945 30.8457 50.3767 31.0004C50.0065 31.1806 49.7866 31.4568 49.673 31.8603C49.5494 32.2993 49.5493 32.9153 49.7335 33.7002ZM67.2876 32.7474C67.6641 33.4465 68.0776 34.1411 68.5248 34.8166C68.4992 34.3283 68.4584 33.8369 68.4038 33.3463C68.113 30.7371 67.4392 28.2427 66.6406 26.4697C66.2383 25.5767 65.8293 24.9227 65.4634 24.5276C65.2068 24.2506 65.0527 24.1821 64.9931 24.165C64.9692 24.2028 64.9286 24.2843 64.893 24.4354C64.7997 24.8315 64.7933 25.4756 64.9365 26.354C65.219 28.0872 66.0289 30.4102 67.2876 32.7474ZM82.0496 30.6373C82.6667 31.5586 83.3461 32.4613 84.0673 33.3114C84.0872 32.5339 84.065 31.7371 84.0033 30.937C83.7843 28.0964 83.0782 25.3504 82.127 23.4625C81.6484 22.5124 81.1445 21.8536 80.6758 21.4881C80.2355 21.1448 79.8966 21.1029 79.5884 21.2033C79.2381 21.3174 79.0266 21.5369 78.9066 21.9488C78.7705 22.416 78.7669 23.1175 78.9661 24.0492C79.3617 25.8998 80.4758 28.2879 82.0496 30.6373Z" fill="#F9C74F"/>
</svg>
