<svg width="80" height="63" viewBox="0 0 80 63" fill="none" xmlns="http://www.w3.org/2000/svg">
<path d="M59 28C59 47 76 30.5 54.5 30.5C33 30.5 42.5 54.5 51 47C59.5 39.5 46 28.5 47.5 45.5C49 62.5 19.5 61.5 19.5 61.5C34 54.5 1 48.5 1 29.5C1 10.5 21.9999 0.999994 41 1C60.0002 1.00001 78.5 13 78.5 29C78.5 45 65.5 51.0902 53.5 53.5C41.5 55.9098 28.3 51 30 42.5C31.7 34 38.7762 33.9504 36 44.5C33.2238 55.0496 16.6389 45 19 36.5C21.3611 28 29 32 25 38.5C21 45 7.99995 29 19 19C30 9 44.5 30.5 35 28C25.5 25.5 59 9 59 28Z" stroke="#F9C74F" stroke-width="2" stroke-linecap="round" stroke-linejoin="round"/>
</svg>
