<svg class="icn-deco icn-hand-reverse" width="161" height="66" viewBox="0 0 161 66" fill="none" xmlns="http://www.w3.org/2000/svg">
<path fill-rule="evenodd" clip-rule="evenodd" d="M141.248 5.12564C138.438 7.61956 135.423 11.0222 133.504 13.3997C133.157 13.8296 132.528 13.8969 132.098 13.5501C131.668 13.2033 131.601 12.5737 131.948 12.1439C133.903 9.72012 136.996 6.2249 139.92 3.62978C141.374 2.34002 142.841 1.22152 144.142 0.585077C144.791 0.267744 145.467 0.0352751 146.121 0.00363187C146.807 -0.029523 147.498 0.16103 148.036 0.711014C148.674 1.36367 148.831 2.19256 148.739 2.98535C148.65 3.74794 148.329 4.54328 147.922 5.30769C147.106 6.8409 145.776 8.55631 144.503 10.1398C144.263 10.4381 144.026 10.7315 143.793 11.0189C142.758 12.2986 141.818 13.4603 141.194 14.416C140.929 14.8219 140.756 15.1392 140.657 15.3744C140.742 15.3498 140.848 15.314 140.977 15.2619C141.486 15.0552 142.137 14.6816 142.911 14.1675C144.034 13.4219 145.301 12.4604 146.628 11.4526C147.134 11.0683 147.65 10.6772 148.169 10.2888C150.004 8.91667 151.909 7.5653 153.496 6.85555C154.278 6.50602 155.121 6.24694 155.904 6.32204C156.317 6.36159 156.729 6.49554 157.091 6.76821C157.453 7.04035 157.708 7.4078 157.877 7.82536C158.571 9.54352 157.572 11.1633 156.418 12.396C155.211 13.6853 153.47 14.9495 151.796 16.1019C151.373 16.3931 150.955 16.6768 150.547 16.9532C149.298 17.8011 148.148 18.581 147.264 19.3004C146.677 19.7777 146.279 20.1724 146.061 20.4845C146.014 20.5514 145.982 20.6056 145.959 20.6485C145.967 20.6494 145.975 20.6503 145.983 20.6511C146.274 20.6798 146.742 20.6296 147.402 20.4697C148.666 20.1636 150.274 19.5511 151.95 18.912C152.004 18.8916 152.058 18.8712 152.111 18.8508C153.793 18.21 155.558 17.5427 156.913 17.2673C157.569 17.1341 158.294 17.0548 158.907 17.2287C159.238 17.3226 159.585 17.504 159.848 17.8333C160.113 18.1654 160.22 18.5563 160.231 18.9356C160.252 19.6429 159.975 20.2946 159.614 20.8506C159.248 21.4122 158.745 21.9555 158.186 22.4705C157.068 23.4993 155.591 24.5348 154.164 25.4931C153.771 25.7567 153.384 26.0139 153.006 26.2645C151.98 26.9445 151.028 27.5763 150.251 28.1568C149.846 28.4595 149.514 28.73 149.26 28.9677C149.938 28.8626 150.821 28.6312 151.82 28.3693C152.925 28.0794 154.159 27.7556 155.173 27.6417C155.676 27.5851 156.213 27.5684 156.692 27.6774C157.185 27.7898 157.764 28.0782 158.036 28.7355C158.273 29.3105 158.171 29.9495 158.006 30.4657C157.829 31.0194 157.518 31.6253 157.104 32.2498C156.272 33.5035 154.952 34.9394 153.17 36.3292C149.598 39.1153 144.105 41.7683 136.769 42.3933C129.155 43.0422 123.294 38.5045 120.615 33.2631C119.275 30.642 118.69 27.7706 119.131 25.2008C119.577 22.5948 121.08 20.3332 123.802 19.0753C128.94 16.7011 133.388 17.7838 136.176 20.2374C138.873 22.6115 140.112 26.4402 138.4 29.3344C137.451 30.9384 136.048 31.6833 134.597 31.871C134.334 33.495 133.589 35.2364 132.166 36.9499C131.813 37.3747 131.182 37.4329 130.757 37.0799C130.333 36.7269 130.274 36.0965 130.627 35.6717C131.743 34.3285 132.337 33.0092 132.578 31.8011C132.061 31.7036 131.563 31.5501 131.104 31.3555C129.943 30.8633 128.89 30.0658 128.255 29.0777C127.603 28.0633 127.367 26.7792 128.06 25.5493C128.391 24.9609 128.868 24.517 129.475 24.3036C130.075 24.0925 130.692 24.1454 131.242 24.345C132.313 24.7339 133.257 25.712 133.875 26.9246C134.301 27.7606 134.595 28.7456 134.682 29.8249C135.481 29.6288 136.188 29.1457 136.679 28.3162C137.734 26.5325 137.11 23.7242 134.854 21.7386C132.689 19.8326 129.094 18.8331 124.641 20.8909C122.568 21.849 121.447 23.5241 121.102 25.5387C120.75 27.5895 121.205 30.0225 122.396 32.3529C124.778 37.0144 129.944 40.9677 136.6 40.4006C143.535 39.8096 148.662 37.3089 151.94 34.7522C153.583 33.4706 154.745 32.1879 155.437 31.1443C155.785 30.6201 155.996 30.1827 156.1 29.8569C156.134 29.7529 156.152 29.6724 156.163 29.6124C156.001 29.5906 155.751 29.5893 155.397 29.6291C154.557 29.7235 153.476 30.0024 152.327 30.3038L152.213 30.3338C151.152 30.6123 150.017 30.9104 149.148 30.9984C148.72 31.0416 148.184 31.0564 147.723 30.8722C147.468 30.7702 147.191 30.5892 146.997 30.2815C146.802 29.9722 146.755 29.6358 146.779 29.339C146.83 28.7014 147.248 28.1706 147.595 27.8037C147.981 27.3948 148.494 26.9735 149.054 26.5547C149.88 25.9378 150.904 25.2585 151.946 24.5671C152.314 24.3231 152.684 24.0776 153.049 23.8328C154.477 22.8736 155.838 21.913 156.831 20.9988C157.327 20.5423 157.698 20.1273 157.937 19.7603C158.115 19.4858 158.193 19.2794 158.22 19.1316C158.047 19.12 157.755 19.1371 157.311 19.2273C156.152 19.4628 154.559 20.0583 152.823 20.7197C152.747 20.7487 152.671 20.7778 152.594 20.8069C150.977 21.4236 149.264 22.0766 147.873 22.4135C147.152 22.588 146.42 22.7039 145.787 22.6415C145.138 22.5775 144.363 22.2873 144.033 21.4433C143.714 20.6272 144.054 19.8654 144.422 19.3386C144.802 18.7941 145.375 18.2588 146.002 17.7487C146.96 16.9694 148.215 16.1179 149.485 15.2569C149.878 14.9897 150.273 14.7216 150.662 14.4545C152.346 13.2949 153.918 12.1406 154.958 11.0292C156.052 9.86101 156.234 9.09765 156.023 8.5745C155.965 8.43173 155.911 8.38293 155.889 8.36641C155.868 8.35042 155.822 8.32331 155.714 8.31291C155.455 8.28813 155.001 8.37367 154.313 8.68146C152.959 9.28637 151.226 10.5005 149.367 11.8905C148.879 12.2547 148.384 12.6307 147.889 13.0064C146.543 14.0289 145.197 15.0503 144.018 15.8334C143.211 16.3698 142.427 16.8322 141.728 17.1154C141.099 17.3704 140.235 17.6101 139.476 17.2342C139.099 17.0472 138.797 16.7379 138.648 16.3149C138.511 15.9249 138.54 15.5365 138.609 15.2216C138.744 14.6111 139.11 13.9494 139.519 13.3225C140.205 12.2724 141.23 11.0064 142.268 9.72447C142.494 9.44539 142.72 9.16555 142.944 8.88701C144.231 7.28584 145.442 5.71008 146.156 4.368C146.515 3.69477 146.706 3.15643 146.752 2.75462C146.795 2.38301 146.711 2.21677 146.605 2.10888C146.548 2.05042 146.459 1.98966 146.218 2.0013C145.946 2.01445 145.55 2.12288 145.021 2.38153C143.968 2.89706 142.662 3.87089 141.248 5.12564ZM132.668 29.7798C132.583 29.0379 132.371 28.3785 132.093 27.833C131.623 26.9114 131.009 26.388 130.56 26.225C130.349 26.1486 130.216 26.163 130.138 26.1903C130.067 26.2153 129.939 26.2869 129.802 26.5305C129.558 26.9647 129.583 27.4455 129.938 27.9963C130.308 28.5735 131.006 29.1414 131.885 29.5142C132.143 29.6236 132.405 29.7127 132.668 29.7798ZM145.814 20.6169C145.814 20.6166 145.819 20.6183 145.827 20.6229C145.817 20.6195 145.813 20.6172 145.814 20.6169ZM145.909 20.7721C145.909 20.7788 145.908 20.7824 145.908 20.7825C145.908 20.7826 145.908 20.7793 145.909 20.7721ZM140.551 15.7261C140.551 15.7261 140.551 15.7256 140.551 15.7246V15.7261Z" fill="#F9C74F"/>
<path fill-rule="evenodd" clip-rule="evenodd" d="M69.535 49.8379C66.435 39.3864 62.3619 32.6626 57.5872 28.8084C52.7709 24.9206 47.3507 24.0403 41.806 25.0484C36.3018 26.0492 30.6617 28.909 25.2709 32.5065C19.8705 36.1105 14.6517 40.502 9.99097 44.6351C0.718006 52.8583 -11.0565 60.9174 -21.3695 63.1426C-26.5001 64.2496 -31.1575 63.8901 -34.9736 61.5158C-38.7892 59.1419 -41.9478 54.6392 -43.8398 47.0715C-45.3016 41.2241 -46.856 37.2762 -48.3456 34.6888C-47.6487 34.4082 -46.8992 34.0574 -46.0943 33.6281C-45.607 33.3682 -45.4226 32.7625 -45.6825 32.2752C-45.9424 31.7878 -46.5482 31.6035 -47.0355 31.8634C-47.9423 32.3471 -48.7488 32.7105 -49.4617 32.9768C-49.5715 32.8301 -49.6806 32.6904 -49.7891 32.5575C-50.7403 31.393 -51.6992 30.6793 -52.6319 30.3943C-53.5972 30.0993 -54.5138 30.2794 -55.1674 30.8538C-56.4321 31.9653 -56.2855 34.1329 -54.5252 35.1072C-53.6824 35.5737 -52.5578 35.7236 -51.1888 35.5119C-50.9026 35.4676 -50.603 35.4072 -50.2895 35.3294C-48.8893 37.6399 -47.3033 41.4637 -45.7801 47.5566C-43.8105 55.4347 -40.431 60.4759 -36.0301 63.214C-31.6297 65.9518 -26.3921 66.2723 -20.9476 65.0976C-10.1105 62.7593 1.98579 54.4072 11.3179 46.1315C15.9597 42.0152 21.0967 37.6966 26.3811 34.1701C31.6752 30.6371 37.049 27.9461 42.1638 27.0161C47.2381 26.0935 52.042 26.9025 56.3309 30.3646C60.5751 33.7906 64.4183 39.8974 67.4346 49.798C67.4403 49.8806 67.4565 49.9638 67.484 50.046C68.3292 52.5758 69.9959 56.2436 72.2808 59.0071C74.5334 61.7315 77.6987 63.9102 81.4029 62.5001C83.7067 61.6232 85.3271 59.3699 86.4074 56.7967C86.5564 56.442 86.6967 56.0774 86.8284 55.7049C87.2982 56.1788 87.7891 56.608 88.2989 56.9809C89.3931 57.7812 90.6086 58.3466 91.9128 58.5026C93.2314 58.6602 94.5763 58.3908 95.8907 57.6226C98.4315 56.1376 100.038 53.6676 100.985 50.9345C101.086 50.6429 101.18 50.3476 101.267 50.0491C101.586 50.4028 101.917 50.7358 102.26 51.0437C104.195 52.7822 106.602 53.7994 109.298 53.0758C111.879 52.3829 113.853 50.5489 115.262 48.3239C116.471 46.416 117.3 44.1689 117.77 41.948C118.067 42.0626 118.369 42.1572 118.676 42.2285C121.314 42.8408 123.627 42.6574 125.799 41.7691C127.943 40.892 129.883 39.3541 131.832 37.3715C132.219 36.9776 132.213 36.3445 131.819 35.9573C131.426 35.5702 130.792 35.5757 130.405 35.9695C128.543 37.8647 126.826 39.188 125.042 39.918C123.284 40.6369 121.396 40.8067 119.129 40.2803C118.79 40.2016 118.446 40.078 118.103 39.915C118.362 37.6785 118.256 35.5131 117.744 33.8223C117.453 32.8606 117.008 31.9815 116.355 31.3462C115.676 30.6853 114.798 30.3199 113.777 30.3934C113.077 30.4438 112.446 30.6734 111.966 31.1316C111.487 31.5885 111.256 32.1803 111.181 32.7753C111.038 33.9183 111.444 35.2519 112.069 36.467C112.711 37.7127 113.655 38.9755 114.773 40.0098C115.136 40.3449 115.522 40.6613 115.929 40.9473C115.526 43.1704 114.735 45.4182 113.573 47.2537C112.336 49.2059 110.727 50.6212 108.779 51.1442C106.945 51.6364 105.213 51.0082 103.597 49.556C102.972 48.9947 102.379 48.3216 101.827 47.5692C102.119 45.8125 102.213 44.0174 102.16 42.3121C102.073 39.4944 101.583 36.8491 100.862 34.9522C100.505 34.015 100.063 33.1808 99.5234 32.6084C98.979 32.0312 98.1476 31.554 97.1815 31.9C96.2548 32.2318 95.8466 33.1256 95.6704 33.9054C95.4846 34.7273 95.4756 35.7395 95.5858 36.8198C95.8076 38.9945 96.5389 41.6937 97.6643 44.2557C98.2364 45.5582 98.9203 46.8482 99.7077 48.0284C99.5486 48.8019 99.3459 49.5569 99.0954 50.2796C98.2487 52.7232 96.8836 54.7257 94.8815 55.8959C93.9245 56.4552 93.015 56.6201 92.1502 56.5167C91.2708 56.4116 90.3736 56.0205 89.4796 55.3666C88.7911 54.863 88.1251 54.2183 87.4959 53.4705C87.9338 51.7138 88.2074 49.8653 88.3246 48.0754C88.5187 45.1102 88.2897 42.2076 87.5982 40.0801C87.2546 39.0227 86.7673 38.0644 86.0767 37.4046C85.3445 36.7052 84.3945 36.361 83.3146 36.5912C82.1912 36.8307 81.47 37.6206 81.0787 38.5899C80.7009 39.5257 80.5996 40.6812 80.6701 41.8907C80.8117 44.3233 81.6692 47.3095 82.9855 50.0492C83.6377 51.4066 84.4171 52.7339 85.3027 53.9207C85.0878 54.6553 84.8412 55.3607 84.5634 56.0225C83.559 58.4148 82.229 60.0457 80.6914 60.631C78.2494 61.5606 75.9293 60.2812 73.8221 57.7326C71.888 55.3933 70.3947 52.2627 69.554 49.9125C69.5487 49.8876 69.5423 49.8627 69.535 49.8379ZM-53.2165 32.3069C-52.8397 32.4221 -52.2735 32.7561 -51.5725 33.547C-52.612 33.6957 -53.2284 33.539 -53.5567 33.3573C-54.155 33.0262 -54.0304 32.5172 -53.8471 32.3561C-53.7767 32.2942 -53.6019 32.1892 -53.2165 32.3069ZM115.83 34.4023C116.169 35.5198 116.305 36.9884 116.21 38.6136C116.184 38.5897 116.157 38.5655 116.131 38.5412C115.185 37.6667 114.383 36.5916 113.848 35.5517C113.297 34.481 113.096 33.5811 113.166 33.0242C113.198 32.7692 113.278 32.6445 113.347 32.5783C113.415 32.5135 113.568 32.4137 113.921 32.3883C114.331 32.3587 114.66 32.4875 114.96 32.7798C115.287 33.0978 115.596 33.6308 115.83 34.4023ZM100.161 42.3738C100.186 43.1675 100.176 43.9758 100.127 44.7845C99.9049 44.349 99.6939 43.9034 99.4954 43.4514C98.4396 41.0477 97.7728 38.5514 97.5755 36.6169C97.4761 35.6425 97.5024 34.8716 97.6212 34.3463C97.7044 33.9781 97.8034 33.8415 97.8464 33.7969C97.886 33.8176 97.962 33.8678 98.0685 33.9807C98.3477 34.2767 98.676 34.831 98.9923 35.6629C99.6163 37.3044 100.079 39.7205 100.161 42.3738ZM86.3288 47.9448C86.2564 49.0512 86.1208 50.1728 85.9227 51.27C85.5158 50.607 85.1358 49.9063 84.7883 49.1831C83.5544 46.615 82.7896 43.8849 82.6667 41.7744C82.6048 40.7124 82.7107 39.8898 82.9333 39.3386C83.1423 38.8209 83.4146 38.6148 83.7316 38.5472C84.0919 38.4704 84.3849 38.5544 84.6952 38.8508C85.047 39.1869 85.4017 39.7921 85.6962 40.6983C86.2811 42.498 86.5135 45.1229 86.3288 47.9448Z" fill="#F9C74F"/>
</svg>
