<svg width="41" height="35" viewBox="0 0 41 35" fill="none" xmlns="http://www.w3.org/2000/svg">
<path fill-rule="evenodd" clip-rule="evenodd" d="M17.2941 0.5C8.01898 0.5 0.5 8.01898 0.5 17.2941C0.5 26.5693 8.01898 34.0882 17.2941 34.0882C21.4578 34.0882 25.2675 32.5731 28.202 30.064C29.365 32.1655 31.6046 33.5884 34.1764 33.5884C37.945 33.5884 41 30.5334 41 26.7649C41 22.9963 37.945 19.9413 34.1764 19.9413C34.077 19.9413 33.9781 19.9434 33.8798 19.9477C34.017 19.0833 34.0882 18.197 34.0882 17.2941C34.0882 8.01898 26.5693 0.5 17.2941 0.5ZM5.5 17.2941C5.5 10.7804 10.7804 5.5 17.2941 5.5C23.8078 5.5 29.0882 10.7804 29.0882 17.2941C29.0882 23.8078 23.8078 29.0882 17.2941 29.0882C10.7804 29.0882 5.5 23.8078 5.5 17.2941ZM29.7138 28.5989C31.4117 26.7346 32.6955 24.4866 33.4199 22.0003C33.6664 21.9615 33.919 21.9413 34.1764 21.9413C36.8404 21.9413 39 24.1009 39 26.7649C39 29.4288 36.8404 31.5884 34.1764 31.5884C32.1618 31.5884 30.4356 30.3532 29.7138 28.5989Z" fill="#F9C74F"/>
</svg>
