<svg class="icn-deco icn-hand-reverse" width="46" height="50" viewBox="0 0 46 50" fill="none" xmlns="http://www.w3.org/2000/svg">
<path d="M23.8944 40.1616L23.8967 40.1577C26.3422 41.5868 28.6424 42.7021 30.4178 43.3575C31.3294 43.6941 32.1147 43.9139 32.7156 43.9887C33.015 44.026 33.2838 44.0293 33.5054 43.9845C33.7263 43.9398 33.9341 43.8395 34.0534 43.6409C34.1728 43.4424 34.1638 43.2117 34.0995 42.9957C34.0351 42.779 33.906 42.5432 33.7325 42.2963C33.3843 41.801 32.8215 41.2108 32.0964 40.5639C30.6842 39.304 28.6196 37.7966 26.2097 36.3083L26.212 36.3044L25.9977 36.1756C25.9227 36.1305 25.8477 36.0857 25.7727 36.041C25.7051 36 25.6373 35.959 25.5692 35.9181L25.3549 35.7893L25.3529 35.7925C21.0707 33.2773 16.864 31.3792 13.2005 30.2111C12.6343 29.6482 12.1116 29.094 11.6357 28.5522C10.2108 26.9302 9.25079 25.4724 8.76685 24.2724C8.27355 23.0492 8.36008 22.3289 8.59964 21.9302C8.8392 21.5315 9.43454 21.117 10.7462 20.9783C12.0329 20.8422 13.7708 21.0054 15.8719 21.5021C16.5736 21.668 17.3083 21.8692 18.0712 22.1049C20.8225 24.7912 24.4733 27.6144 28.7045 30.2146L28.7026 30.2178L28.9169 30.3465C28.985 30.3874 29.053 30.4281 29.121 30.4686C29.1956 30.5138 29.2705 30.559 29.3455 30.604L29.5598 30.7328L29.5621 30.7289C32.0076 32.158 34.3078 33.2733 36.0833 33.9287C36.9949 34.2652 37.7801 34.4851 38.381 34.5599C38.6805 34.5972 38.9492 34.6005 39.1708 34.5557C39.3917 34.511 39.5996 34.4106 39.7189 34.2121C39.8382 34.0135 39.8292 33.7829 39.7649 33.5668C39.7005 33.3501 39.5714 33.1144 39.3979 32.8675C39.0497 32.3721 38.487 31.782 37.7618 31.1351C36.3496 29.8751 34.285 28.3677 31.8751 26.8794L31.8776 26.8752L31.6629 26.7466L31.4852 26.6402L31.4848 26.6399L31.4389 26.6126C31.4387 26.6124 31.4384 26.6123 31.4382 26.6122C31.3706 26.5712 31.3027 26.5302 31.2346 26.4893L31.0203 26.3605L31.0184 26.3637C26.7361 23.8484 22.5294 21.9504 18.8659 20.7823C18.2997 20.2194 17.7771 19.6651 17.3012 19.1234C15.8762 17.5014 14.9162 16.0435 14.4323 14.8436C13.939 13.6204 14.0255 12.9001 14.2651 12.5014C14.5046 12.1027 15.1 11.6881 16.4116 11.5494C17.6983 11.4134 19.4362 11.5766 21.5373 12.0733C22.239 12.2391 22.9738 12.4404 23.7366 12.6761C26.4879 15.3623 30.1387 18.1855 34.37 20.7857L34.368 20.789L34.5824 20.9177L34.6313 20.9471L34.6317 20.9473L34.7858 21.0394L34.7868 21.04L34.9247 21.1233L34.9251 21.1236L35.0108 21.1751L35.2251 21.3041L35.2275 21.3C37.673 22.7291 39.9732 23.8444 41.7487 24.4999C42.6603 24.8364 43.4456 25.0562 44.0464 25.131C44.3459 25.1683 44.6146 25.1716 44.8362 25.1268C45.0571 25.0821 45.265 24.9818 45.3843 24.7832C45.5036 24.5847 45.4946 24.354 45.4304 24.138C45.3659 23.9213 45.2368 23.6856 45.0633 23.4387C44.7152 22.9433 44.1524 22.3531 43.4273 21.7062C42.015 20.4463 39.9504 18.9389 37.5405 17.4506L37.5429 17.4467L37.3286 17.3179C37.2536 17.2729 37.1786 17.228 37.1036 17.1833C37.036 17.1423 36.9681 17.1013 36.9 17.0604L36.6857 16.9317L36.6838 16.9349C32.4015 14.4196 28.1948 12.5215 24.5314 11.3534C23.9651 10.7905 23.4425 10.2363 22.9666 9.69457C21.5416 8.07255 20.5816 6.61471 20.0977 5.41474C19.6044 4.19152 19.6909 3.47125 19.9305 3.07255C20.17 2.67385 20.7654 2.2593 22.077 2.1206C23.3637 1.98454 25.1016 2.14774 27.2027 2.64442C31.3904 3.63429 36.7383 5.88025 42.2214 9.17485C42.5765 9.38818 43.0372 9.27331 43.2506 8.91826C43.4639 8.5632 43.349 8.10243 42.994 7.8891C37.4157 4.53731 31.9234 2.21896 27.5478 1.18464C25.3615 0.667833 23.4397 0.468144 21.9193 0.628924C20.404 0.789155 19.2369 1.31448 18.6447 2.29999C18.0235 3.33391 18.1462 4.68842 18.7949 6.1871C19.3728 7.52205 20.3849 9.01411 21.7505 10.5826C19.7245 10.1133 17.9319 9.92009 16.4819 10.0366C14.8541 10.1674 13.6005 10.6949 12.9793 11.7288C12.3581 12.7627 12.4808 14.1173 13.1295 15.6159C13.7074 16.9509 14.7195 18.4429 16.0851 20.0115C14.0591 19.5421 12.2665 19.3489 10.8165 19.4654C9.1887 19.5962 7.93513 20.1238 7.31389 21.1577C6.69265 22.1916 6.81536 23.5461 7.4641 25.0448C8.04197 26.3797 9.0541 27.8718 10.4197 29.4403C8.39366 28.9709 6.60109 28.7778 5.1511 28.8943C3.52328 29.025 2.26971 29.5526 1.64847 30.5865C1.05631 31.572 1.14043 32.8492 1.71031 34.2623C2.28213 35.6802 3.36067 37.2833 4.84342 38.9711C7.81088 42.3489 12.4363 46.1099 18.0146 49.4617C18.3697 49.675 18.8305 49.5602 19.0438 49.2051C19.2571 48.8501 19.1422 48.3893 18.7872 48.176C13.3041 44.8814 8.8103 41.2138 5.97032 37.9811C4.54536 36.3591 3.58538 34.9012 3.10144 33.7013C2.60813 32.478 2.69466 31.7578 2.93422 31.3591C3.17378 30.9604 3.76912 30.5458 5.08075 30.4071C6.36746 30.2711 8.10534 30.4343 10.2065 30.9309C10.9082 31.0968 11.6429 31.2981 12.4058 31.5338C15.157 34.22 18.8079 37.0432 23.0391 39.6434L23.0372 39.6466L23.2515 39.7754C23.3196 39.8163 23.3876 39.857 23.4555 39.8974C23.5302 39.9426 23.605 39.9878 23.6801 40.0329L23.8944 40.1616ZM31.6485 42.1959C31.3875 42.1127 31.1013 42.0129 30.7909 41.8957C29.0356 41.2326 26.7115 40.0906 24.2282 38.6117C21.1796 36.7652 18.4416 34.805 16.1311 32.8721C18.9225 34.0047 21.9386 35.5019 25.0003 37.3268C27.4719 38.8251 29.5713 40.3411 30.9808 41.5796C31.2301 41.7986 31.4526 42.0045 31.6485 42.1959ZM36.4563 32.4668C34.7009 31.8037 32.3767 30.6616 29.8932 29.1826C26.8447 27.3362 24.1069 25.3761 21.7965 23.4432C24.5878 24.5758 27.6038 26.0729 30.6653 27.8977C33.137 29.3961 35.2366 30.9122 36.6462 32.1507C36.8955 32.3698 37.118 32.5756 37.314 32.7671C37.053 32.6839 36.7667 32.5841 36.4563 32.4668ZM42.9794 23.3382C42.7184 23.2551 42.4321 23.1552 42.1217 23.038C40.3663 22.3749 38.0421 21.2328 35.5586 19.7538C32.5101 17.9073 29.7724 15.9472 27.4619 14.0144C30.2532 15.147 33.2692 16.6441 36.3307 18.4688C38.8025 19.9673 40.902 21.4833 42.3116 22.7219C42.5609 22.9409 42.7834 23.1468 42.9794 23.3382Z" fill="#F9C74F" stroke="#F9C74F" stroke-width="0.5"/>
</svg>
