<svg width="36" height="248" viewBox="0 0 36 248" fill="none" xmlns="http://www.w3.org/2000/svg">
<path d="M25.0815 38.1577V38.1532C27.9138 38.1186 30.4598 37.8899 32.3193 37.5373C33.274 37.3562 34.0603 37.1402 34.6139 36.8949C34.8898 36.7726 35.1218 36.6371 35.2887 36.4845C35.4551 36.3324 35.5815 36.1394 35.5815 35.9077C35.5815 35.6761 35.4551 35.483 35.2887 35.3309C35.1218 35.1784 34.8898 35.0428 34.6139 34.9205C34.0603 34.6752 33.274 34.4592 32.3193 34.2781C30.4598 33.9255 27.9138 33.6968 25.0815 33.6623V33.6577H24.8315C24.744 33.6577 24.6566 33.6579 24.5693 33.6582C24.4903 33.6579 24.411 33.6577 24.3315 33.6577H24.0815V33.6614C19.1155 33.711 14.532 34.2506 10.7903 35.1362C10.0149 34.9453 9.28153 34.7394 8.59458 34.5202C6.53775 33.8638 4.96404 33.1086 3.93119 32.3292C2.87834 31.5348 2.58154 30.8728 2.58154 30.4077C2.58154 29.9426 2.87834 29.2806 3.93119 28.4862C4.96404 27.7069 6.53775 26.9517 8.59458 26.2952C9.28151 26.076 10.0149 25.8701 10.7903 25.6792C14.532 26.5648 19.1155 27.1045 24.0815 27.154V27.1577H24.3315C24.411 27.1577 24.4903 27.1576 24.5693 27.1573C24.6566 27.1576 24.744 27.1577 24.8315 27.1577H25.0815V27.1532C27.9138 27.1186 30.4598 26.8899 32.3193 26.5373C33.274 26.3562 34.0603 26.1402 34.6139 25.8949C34.8898 25.7726 35.1218 25.6371 35.2887 25.4845C35.4551 25.3324 35.5815 25.1394 35.5815 24.9077C35.5815 24.6761 35.4551 24.483 35.2887 24.3309C35.1218 24.1784 34.8898 24.0428 34.6139 23.9205C34.0603 23.6752 33.274 23.4592 32.3193 23.2781C30.4598 22.9255 27.9138 22.6968 25.0815 22.6623V22.6574L24.8312 22.6577L24.6241 22.658L24.6236 22.658L24.5702 22.6582C24.5699 22.6582 24.5697 22.6582 24.5694 22.6582C24.4903 22.6579 24.411 22.6577 24.3315 22.6577H24.0815V22.6614C19.1155 22.711 14.532 23.2506 10.7903 24.1362C10.0149 23.9453 9.28151 23.7394 8.59458 23.5202C6.53775 22.8638 4.96404 22.1086 3.93119 21.3292C2.87834 20.5348 2.58154 19.8728 2.58154 19.4077C2.58154 18.9426 2.87834 18.2806 3.93119 17.4862C4.96404 16.7069 6.53775 15.9517 8.59458 15.2952C9.28151 15.076 10.0149 14.8701 10.7903 14.6792C14.532 15.5648 19.1155 16.1045 24.0815 16.154V16.1578L24.3316 16.1577L24.3887 16.1577L24.3892 16.1577L24.5686 16.1573H24.5698L24.731 16.1576H24.7314L24.8314 16.1577L25.0815 16.1579V16.1532C27.9138 16.1186 30.4598 15.8899 32.3193 15.5373C33.274 15.3562 34.0603 15.1402 34.6139 14.8949C34.8898 14.7726 35.1218 14.6371 35.2887 14.4845C35.4551 14.3324 35.5815 14.1394 35.5815 13.9077C35.5815 13.6761 35.4551 13.483 35.2887 13.3309C35.1218 13.1784 34.8898 13.0428 34.6139 12.9205C34.0603 12.6752 33.274 12.4592 32.3193 12.2781C30.4598 11.9255 27.9138 11.6968 25.0815 11.6623V11.6577H24.8315C24.744 11.6577 24.6566 11.6579 24.5693 11.6582C24.4903 11.6579 24.411 11.6577 24.3315 11.6577H24.0815V11.6614C19.1155 11.711 14.532 12.2506 10.7903 13.1362C10.0149 12.9453 9.28151 12.7394 8.59458 12.5202C6.53775 11.8638 4.96404 11.1086 3.93119 10.3292C2.87834 9.53481 2.58154 8.87285 2.58154 8.40771C2.58154 7.94258 2.87834 7.28062 3.93119 6.48619C4.96404 5.70686 6.53775 4.95167 8.59458 4.29524C12.6939 2.98694 18.4347 2.15771 24.8315 2.15771C25.2458 2.15771 25.5815 1.82193 25.5815 1.40771C25.5815 0.993495 25.2458 0.657715 24.8315 0.657715C18.3237 0.657715 12.4219 1.49923 8.13852 2.86625C5.99829 3.5493 4.24814 4.36794 3.02771 5.28881C1.81144 6.20655 1.08154 7.25798 1.08154 8.40771C1.08154 9.61392 1.88435 10.7118 3.21231 11.6622C4.39519 12.5089 6.03122 13.2666 8.00958 13.9077C6.03122 14.5489 4.39519 15.3065 3.21231 16.1532C1.88435 17.1037 1.08154 18.2015 1.08154 19.4077C1.08154 20.6139 1.88435 21.7118 3.21231 22.6622C4.39519 23.5089 6.03122 24.2666 8.00959 24.9077C6.03122 25.5489 4.39519 26.3065 3.21231 27.1532C1.88435 28.1037 1.08154 29.2015 1.08154 30.4077C1.08154 31.6139 1.88435 32.7118 3.21231 33.6622C4.39519 34.5089 6.03122 35.2666 8.00959 35.9077C6.03122 36.5489 4.39519 37.3065 3.21231 38.1532C1.88435 39.1037 1.08154 40.2015 1.08154 41.4077C1.08154 42.5575 1.81144 43.6089 3.02771 44.5266C4.24814 45.4475 5.99829 46.2661 8.13852 46.9492C12.4219 48.3162 18.3237 49.1577 24.8315 49.1577C25.2458 49.1577 25.5815 48.8219 25.5815 48.4077C25.5815 47.9935 25.2458 47.6577 24.8315 47.6577C18.4347 47.6577 12.6939 46.8285 8.59458 45.5202C6.53775 44.8638 4.96404 44.1086 3.93119 43.3292C2.87834 42.5348 2.58154 41.8728 2.58154 41.4077C2.58154 40.9426 2.87834 40.2806 3.93119 39.4862C4.96404 38.7069 6.53775 37.9517 8.59458 37.2952C9.28151 37.076 10.0149 36.8701 10.7903 36.6792C14.532 37.5648 19.1155 38.1045 24.0815 38.154V38.1577H24.3315C24.411 38.1577 24.4903 38.1576 24.5693 38.1573C24.6566 38.1576 24.744 38.1577 24.8315 38.1577H25.0815ZM32.7759 35.9077C32.5094 35.9709 32.2126 36.0327 31.8861 36.0921C30.04 36.4277 27.4597 36.6459 24.5694 36.6572C21.0052 36.6446 17.6488 36.3745 14.6727 35.9077C17.6488 35.4409 21.0052 35.1708 24.5694 35.1582C27.4597 35.1696 30.04 35.3877 31.8861 35.7233C32.2126 35.7827 32.5094 35.8446 32.7759 35.9077ZM31.8861 25.0921C30.0399 25.4278 27.4594 25.6459 24.5689 25.6572C21.0049 25.6446 17.6486 25.3745 14.6727 24.9077C17.6486 24.4409 21.0049 24.1708 24.5689 24.1582C27.4594 24.1695 30.0399 24.3877 31.8861 24.7233C32.2126 24.7827 32.5094 24.8446 32.7759 24.9077C32.5094 24.9709 32.2126 25.0327 31.8861 25.0921ZM32.7759 13.9077C32.5094 13.9709 32.2126 14.0327 31.8861 14.0921C30.0399 14.4278 27.4594 14.6459 24.5689 14.6572C21.0049 14.6446 17.6486 14.3745 14.6727 13.9077C17.6486 13.4409 21.0049 13.1708 24.5689 13.1582C27.4594 13.1695 30.0399 13.3877 31.8861 13.7233C32.2126 13.7827 32.5094 13.8446 32.7759 13.9077Z" fill="#F9C74F" stroke="#F9C74F" stroke-width="0.5"/>
<path d="M25.0815 71.1577V71.1532C27.9138 71.1186 30.4598 70.8899 32.3193 70.5373C33.274 70.3562 34.0603 70.1402 34.6139 69.8949C34.8898 69.7726 35.1218 69.6371 35.2887 69.4845C35.4551 69.3324 35.5815 69.1394 35.5815 68.9077C35.5815 68.6761 35.4551 68.483 35.2887 68.3309C35.1218 68.1784 34.8898 68.0428 34.6139 67.9205C34.0603 67.6752 33.274 67.4592 32.3193 67.2781C30.4598 66.9255 27.9138 66.6968 25.0815 66.6623V66.6577H24.8315C24.744 66.6577 24.6566 66.6579 24.5693 66.6582C24.4903 66.6579 24.411 66.6577 24.3315 66.6577H24.0815V66.6614C19.1155 66.711 14.532 67.2506 10.7903 68.1362C10.0149 67.9453 9.28153 67.7394 8.59458 67.5202C6.53775 66.8638 4.96404 66.1086 3.93119 65.3292C2.87834 64.5348 2.58154 63.8728 2.58154 63.4077C2.58154 62.9426 2.87834 62.2806 3.93119 61.4862C4.96404 60.7069 6.53775 59.9517 8.59458 59.2952C9.28151 59.076 10.0149 58.8701 10.7903 58.6792C14.532 59.5648 19.1155 60.1045 24.0815 60.154V60.1577H24.3315C24.411 60.1577 24.4903 60.1576 24.5693 60.1573C24.6566 60.1576 24.744 60.1577 24.8315 60.1577H25.0815V60.1532C27.9138 60.1186 30.4598 59.8899 32.3193 59.5373C33.274 59.3562 34.0603 59.1402 34.6139 58.8949C34.8898 58.7726 35.1218 58.6371 35.2887 58.4845C35.4551 58.3324 35.5815 58.1394 35.5815 57.9077C35.5815 57.6761 35.4551 57.483 35.2887 57.3309C35.1218 57.1784 34.8898 57.0428 34.6139 56.9205C34.0603 56.6752 33.274 56.4592 32.3193 56.2781C30.4598 55.9255 27.9138 55.6968 25.0815 55.6623V55.6574L24.8312 55.6577L24.6241 55.658L24.6236 55.658L24.5702 55.6582C24.5699 55.6582 24.5697 55.6582 24.5694 55.6582C24.4903 55.6579 24.411 55.6577 24.3315 55.6577H24.0815V55.6614C19.1155 55.711 14.532 56.2506 10.7903 57.1362C10.0149 56.9453 9.28151 56.7394 8.59458 56.5202C6.53775 55.8638 4.96404 55.1086 3.93119 54.3292C2.87834 53.5348 2.58154 52.8728 2.58154 52.4077C2.58154 51.9426 2.87834 51.2806 3.93119 50.4862C4.96404 49.7069 6.53775 48.9517 8.59458 48.2952C9.28151 48.076 10.0149 47.8701 10.7903 47.6792C14.532 48.5648 19.1155 49.1045 24.0815 49.154V49.1578L24.3316 49.1577L24.3887 49.1577L24.3892 49.1577L24.5686 49.1573H24.5698L24.731 49.1576H24.7314L24.8314 49.1577L25.0815 49.1579V49.1532C27.9138 49.1186 30.4598 48.8899 32.3193 48.5373C33.274 48.3562 34.0603 48.1402 34.6139 47.8949C34.8898 47.7726 35.1218 47.6371 35.2887 47.4845C35.4551 47.3324 35.5815 47.1394 35.5815 46.9077C35.5815 46.6761 35.4551 46.483 35.2887 46.3309C35.1218 46.1784 34.8898 46.0428 34.6139 45.9205C34.0603 45.6752 33.274 45.4592 32.3193 45.2781C30.4598 44.9255 27.9138 44.6968 25.0815 44.6623V44.6577H24.8315C24.744 44.6577 24.6566 44.6579 24.5693 44.6582C24.4903 44.6579 24.411 44.6577 24.3315 44.6577H24.0815V44.6614C19.1155 44.711 14.532 45.2506 10.7903 46.1362C10.0149 45.9453 9.28151 45.7394 8.59458 45.5202C6.53775 44.8638 4.96404 44.1086 3.93119 43.3292C2.87834 42.5348 2.58154 41.8728 2.58154 41.4077C2.58154 40.9426 2.87834 40.2806 3.93119 39.4862C4.96404 38.7069 6.53775 37.9517 8.59458 37.2952C12.6939 35.9869 18.4347 35.1577 24.8315 35.1577C25.2458 35.1577 25.5815 34.8219 25.5815 34.4077C25.5815 33.9935 25.2458 33.6577 24.8315 33.6577C18.3237 33.6577 12.4219 34.4992 8.13852 35.8662C5.99829 36.5493 4.24814 37.3679 3.02771 38.2888C1.81144 39.2066 1.08154 40.258 1.08154 41.4077C1.08154 42.6139 1.88435 43.7118 3.21231 44.6622C4.39519 45.5089 6.03122 46.2666 8.00958 46.9077C6.03122 47.5489 4.39519 48.3065 3.21231 49.1532C1.88435 50.1037 1.08154 51.2015 1.08154 52.4077C1.08154 53.6139 1.88435 54.7118 3.21231 55.6622C4.39519 56.5089 6.03122 57.2666 8.00959 57.9077C6.03122 58.5489 4.39519 59.3065 3.21231 60.1532C1.88435 61.1037 1.08154 62.2015 1.08154 63.4077C1.08154 64.6139 1.88435 65.7118 3.21231 66.6622C4.39519 67.5089 6.03122 68.2666 8.00959 68.9077C6.03122 69.5489 4.39519 70.3065 3.21231 71.1532C1.88435 72.1037 1.08154 73.2015 1.08154 74.4077C1.08154 75.5575 1.81144 76.6089 3.02771 77.5266C4.24814 78.4475 5.99829 79.2661 8.13852 79.9492C12.4219 81.3162 18.3237 82.1577 24.8315 82.1577C25.2458 82.1577 25.5815 81.8219 25.5815 81.4077C25.5815 80.9935 25.2458 80.6577 24.8315 80.6577C18.4347 80.6577 12.6939 79.8285 8.59458 78.5202C6.53775 77.8638 4.96404 77.1086 3.93119 76.3292C2.87834 75.5348 2.58154 74.8728 2.58154 74.4077C2.58154 73.9426 2.87834 73.2806 3.93119 72.4862C4.96404 71.7069 6.53775 70.9517 8.59458 70.2952C9.28151 70.076 10.0149 69.8701 10.7903 69.6792C14.532 70.5648 19.1155 71.1045 24.0815 71.154V71.1577H24.3315C24.411 71.1577 24.4903 71.1576 24.5693 71.1573C24.6566 71.1576 24.744 71.1577 24.8315 71.1577H25.0815ZM32.7759 68.9077C32.5094 68.9709 32.2126 69.0327 31.8861 69.0921C30.04 69.4277 27.4597 69.6459 24.5694 69.6572C21.0052 69.6446 17.6488 69.3745 14.6727 68.9077C17.6488 68.4409 21.0052 68.1708 24.5694 68.1582C27.4597 68.1696 30.04 68.3877 31.8861 68.7233C32.2126 68.7827 32.5094 68.8446 32.7759 68.9077ZM31.8861 58.0921C30.0399 58.4278 27.4594 58.6459 24.5689 58.6572C21.0049 58.6446 17.6486 58.3745 14.6727 57.9077C17.6486 57.4409 21.0049 57.1708 24.5689 57.1582C27.4594 57.1695 30.0399 57.3877 31.8861 57.7233C32.2126 57.7827 32.5094 57.8446 32.7759 57.9077C32.5094 57.9709 32.2126 58.0327 31.8861 58.0921ZM32.7759 46.9077C32.5094 46.9709 32.2126 47.0327 31.8861 47.0921C30.0399 47.4278 27.4594 47.6459 24.5689 47.6572C21.0049 47.6446 17.6486 47.3745 14.6727 46.9077C17.6486 46.4409 21.0049 46.1708 24.5689 46.1582C27.4594 46.1695 30.0399 46.3877 31.8861 46.7233C32.2126 46.7827 32.5094 46.8446 32.7759 46.9077Z" fill="#F9C74F" stroke="#F9C74F" stroke-width="0.5"/>
<path d="M25.0815 104.158V104.153C27.9138 104.119 30.4598 103.89 32.3193 103.537C33.274 103.356 34.0603 103.14 34.6139 102.895C34.8898 102.773 35.1218 102.637 35.2887 102.485C35.4551 102.332 35.5815 102.139 35.5815 101.908C35.5815 101.676 35.4551 101.483 35.2887 101.331C35.1218 101.178 34.8898 101.043 34.6139 100.921C34.0603 100.675 33.274 100.459 32.3193 100.278C30.4598 99.9255 27.9138 99.6968 25.0815 99.6623V99.6577H24.8315C24.744 99.6577 24.6566 99.6579 24.5693 99.6582C24.4903 99.6579 24.411 99.6577 24.3315 99.6577H24.0815V99.6614C19.1155 99.711 14.532 100.251 10.7903 101.136C10.0149 100.945 9.28153 100.739 8.59458 100.52C6.53775 99.8638 4.96404 99.1086 3.93119 98.3292C2.87834 97.5348 2.58154 96.8728 2.58154 96.4077C2.58154 95.9426 2.87834 95.2806 3.93119 94.4862C4.96404 93.7069 6.53775 92.9517 8.59458 92.2952C9.28151 92.076 10.0149 91.8701 10.7903 91.6792C14.532 92.5648 19.1155 93.1045 24.0815 93.154V93.1577H24.3315C24.411 93.1577 24.4903 93.1576 24.5693 93.1573C24.6566 93.1576 24.744 93.1577 24.8315 93.1577H25.0815V93.1532C27.9138 93.1186 30.4598 92.8899 32.3193 92.5373C33.274 92.3562 34.0603 92.1402 34.6139 91.8949C34.8898 91.7726 35.1218 91.6371 35.2887 91.4845C35.4551 91.3324 35.5815 91.1394 35.5815 90.9077C35.5815 90.6761 35.4551 90.483 35.2887 90.3309C35.1218 90.1784 34.8898 90.0428 34.6139 89.9205C34.0603 89.6752 33.274 89.4592 32.3193 89.2781C30.4598 88.9255 27.9138 88.6968 25.0815 88.6623V88.6574L24.8312 88.6577L24.6241 88.658L24.6236 88.658L24.5702 88.6582C24.5699 88.6582 24.5697 88.6582 24.5694 88.6582C24.4903 88.6579 24.411 88.6577 24.3315 88.6577H24.0815V88.6614C19.1155 88.711 14.532 89.2506 10.7903 90.1362C10.0149 89.9453 9.28151 89.7394 8.59458 89.5202C6.53775 88.8638 4.96404 88.1086 3.93119 87.3292C2.87834 86.5348 2.58154 85.8728 2.58154 85.4077C2.58154 84.9426 2.87834 84.2806 3.93119 83.4862C4.96404 82.7069 6.53775 81.9517 8.59458 81.2952C9.28151 81.076 10.0149 80.8701 10.7903 80.6792C14.532 81.5648 19.1155 82.1045 24.0815 82.154V82.1578L24.3316 82.1577L24.3887 82.1577L24.3892 82.1577L24.5686 82.1573H24.5698L24.731 82.1576H24.7314L24.8314 82.1577L25.0815 82.1579V82.1532C27.9138 82.1186 30.4598 81.8899 32.3193 81.5373C33.274 81.3562 34.0603 81.1402 34.6139 80.8949C34.8898 80.7726 35.1218 80.6371 35.2887 80.4845C35.4551 80.3324 35.5815 80.1394 35.5815 79.9077C35.5815 79.6761 35.4551 79.483 35.2887 79.3309C35.1218 79.1784 34.8898 79.0428 34.6139 78.9205C34.0603 78.6752 33.274 78.4592 32.3193 78.2781C30.4598 77.9255 27.9138 77.6968 25.0815 77.6623V77.6577H24.8315C24.744 77.6577 24.6566 77.6579 24.5693 77.6582C24.4903 77.6579 24.411 77.6577 24.3315 77.6577H24.0815V77.6614C19.1155 77.711 14.532 78.2506 10.7903 79.1362C10.0149 78.9453 9.28151 78.7394 8.59458 78.5202C6.53775 77.8638 4.96404 77.1086 3.93119 76.3292C2.87834 75.5348 2.58154 74.8728 2.58154 74.4077C2.58154 73.9426 2.87834 73.2806 3.93119 72.4862C4.96404 71.7069 6.53775 70.9517 8.59458 70.2952C12.6939 68.9869 18.4347 68.1577 24.8315 68.1577C25.2458 68.1577 25.5815 67.8219 25.5815 67.4077C25.5815 66.9935 25.2458 66.6577 24.8315 66.6577C18.3237 66.6577 12.4219 67.4992 8.13852 68.8662C5.99829 69.5493 4.24814 70.3679 3.02771 71.2888C1.81144 72.2066 1.08154 73.258 1.08154 74.4077C1.08154 75.6139 1.88435 76.7118 3.21231 77.6622C4.39519 78.5089 6.03122 79.2666 8.00958 79.9077C6.03122 80.5489 4.39519 81.3065 3.21231 82.1532C1.88435 83.1037 1.08154 84.2015 1.08154 85.4077C1.08154 86.6139 1.88435 87.7118 3.21231 88.6622C4.39519 89.5089 6.03122 90.2666 8.00959 90.9077C6.03122 91.5489 4.39519 92.3065 3.21231 93.1532C1.88435 94.1037 1.08154 95.2015 1.08154 96.4077C1.08154 97.6139 1.88435 98.7118 3.21231 99.6622C4.39519 100.509 6.03122 101.267 8.00959 101.908C6.03122 102.549 4.39519 103.307 3.21231 104.153C1.88435 105.104 1.08154 106.202 1.08154 107.408C1.08154 108.557 1.81144 109.609 3.02771 110.527C4.24814 111.447 5.99829 112.266 8.13852 112.949C12.4219 114.316 18.3237 115.158 24.8315 115.158C25.2458 115.158 25.5815 114.822 25.5815 114.408C25.5815 113.993 25.2458 113.658 24.8315 113.658C18.4347 113.658 12.6939 112.828 8.59458 111.52C6.53775 110.864 4.96404 110.109 3.93119 109.329C2.87834 108.535 2.58154 107.873 2.58154 107.408C2.58154 106.943 2.87834 106.281 3.93119 105.486C4.96404 104.707 6.53775 103.952 8.59458 103.295C9.28151 103.076 10.0149 102.87 10.7903 102.679C14.532 103.565 19.1155 104.104 24.0815 104.154V104.158H24.3315C24.411 104.158 24.4903 104.158 24.5693 104.157C24.6566 104.158 24.744 104.158 24.8315 104.158H25.0815ZM32.7759 101.908C32.5094 101.971 32.2126 102.033 31.8861 102.092C30.04 102.428 27.4597 102.646 24.5694 102.657C21.0052 102.645 17.6488 102.375 14.6727 101.908C17.6488 101.441 21.0052 101.171 24.5694 101.158C27.4597 101.17 30.04 101.388 31.8861 101.723C32.2126 101.783 32.5094 101.845 32.7759 101.908ZM31.8861 91.0921C30.0399 91.4278 27.4594 91.6459 24.5689 91.6572C21.0049 91.6446 17.6486 91.3745 14.6727 90.9077C17.6486 90.4409 21.0049 90.1708 24.5689 90.1582C27.4594 90.1695 30.0399 90.3877 31.8861 90.7233C32.2126 90.7827 32.5094 90.8446 32.7759 90.9077C32.5094 90.9709 32.2126 91.0327 31.8861 91.0921ZM32.7759 79.9077C32.5094 79.9709 32.2126 80.0327 31.8861 80.0921C30.0399 80.4278 27.4594 80.6459 24.5689 80.6572C21.0049 80.6446 17.6486 80.3745 14.6727 79.9077C17.6486 79.4409 21.0049 79.1708 24.5689 79.1582C27.4594 79.1695 30.0399 79.3877 31.8861 79.7233C32.2126 79.7827 32.5094 79.8446 32.7759 79.9077Z" fill="#F9C74F" stroke="#F9C74F" stroke-width="0.5"/>
<path d="M25.0815 137.158V137.153C27.9138 137.119 30.4598 136.89 32.3193 136.537C33.274 136.356 34.0603 136.14 34.6139 135.895C34.8898 135.773 35.1218 135.637 35.2887 135.485C35.4551 135.332 35.5815 135.139 35.5815 134.908C35.5815 134.676 35.4551 134.483 35.2887 134.331C35.1218 134.178 34.8898 134.043 34.6139 133.921C34.0603 133.675 33.274 133.459 32.3193 133.278C30.4598 132.926 27.9138 132.697 25.0815 132.662V132.658H24.8315C24.744 132.658 24.6566 132.658 24.5693 132.658C24.4903 132.658 24.411 132.658 24.3315 132.658H24.0815V132.661C19.1155 132.711 14.532 133.251 10.7903 134.136C10.0149 133.945 9.28153 133.739 8.59458 133.52C6.53775 132.864 4.96404 132.109 3.93119 131.329C2.87834 130.535 2.58154 129.873 2.58154 129.408C2.58154 128.943 2.87834 128.281 3.93119 127.486C4.96404 126.707 6.53775 125.952 8.59458 125.295C9.28151 125.076 10.0149 124.87 10.7903 124.679C14.532 125.565 19.1155 126.104 24.0815 126.154V126.158H24.3315C24.411 126.158 24.4903 126.158 24.5693 126.157C24.6566 126.158 24.744 126.158 24.8315 126.158H25.0815V126.153C27.9138 126.119 30.4598 125.89 32.3193 125.537C33.274 125.356 34.0603 125.14 34.6139 124.895C34.8898 124.773 35.1218 124.637 35.2887 124.485C35.4551 124.332 35.5815 124.139 35.5815 123.908C35.5815 123.676 35.4551 123.483 35.2887 123.331C35.1218 123.178 34.8898 123.043 34.6139 122.921C34.0603 122.675 33.274 122.459 32.3193 122.278C30.4598 121.926 27.9138 121.697 25.0815 121.662V121.657L24.8312 121.658L24.6241 121.658L24.6236 121.658L24.5702 121.658C24.5699 121.658 24.5697 121.658 24.5694 121.658C24.4903 121.658 24.411 121.658 24.3315 121.658H24.0815V121.661C19.1155 121.711 14.532 122.251 10.7903 123.136C10.0149 122.945 9.28151 122.739 8.59458 122.52C6.53775 121.864 4.96404 121.109 3.93119 120.329C2.87834 119.535 2.58154 118.873 2.58154 118.408C2.58154 117.943 2.87834 117.281 3.93119 116.486C4.96404 115.707 6.53775 114.952 8.59458 114.295C9.28151 114.076 10.0149 113.87 10.7903 113.679C14.532 114.565 19.1155 115.104 24.0815 115.154V115.158L24.3316 115.158L24.3887 115.158L24.3892 115.158L24.5686 115.157H24.5698L24.731 115.158H24.7314L24.8314 115.158L25.0815 115.158V115.153C27.9138 115.119 30.4598 114.89 32.3193 114.537C33.274 114.356 34.0603 114.14 34.6139 113.895C34.8898 113.773 35.1218 113.637 35.2887 113.485C35.4551 113.332 35.5815 113.139 35.5815 112.908C35.5815 112.676 35.4551 112.483 35.2887 112.331C35.1218 112.178 34.8898 112.043 34.6139 111.921C34.0603 111.675 33.274 111.459 32.3193 111.278C30.4598 110.926 27.9138 110.697 25.0815 110.662V110.658H24.8315C24.744 110.658 24.6566 110.658 24.5693 110.658C24.4903 110.658 24.411 110.658 24.3315 110.658H24.0815V110.661C19.1155 110.711 14.532 111.251 10.7903 112.136C10.0149 111.945 9.28151 111.739 8.59458 111.52C6.53775 110.864 4.96404 110.109 3.93119 109.329C2.87834 108.535 2.58154 107.873 2.58154 107.408C2.58154 106.943 2.87834 106.281 3.93119 105.486C4.96404 104.707 6.53775 103.952 8.59458 103.295C12.6939 101.987 18.4347 101.158 24.8315 101.158C25.2458 101.158 25.5815 100.822 25.5815 100.408C25.5815 99.9935 25.2458 99.6577 24.8315 99.6577C18.3237 99.6577 12.4219 100.499 8.13852 101.866C5.99829 102.549 4.24814 103.368 3.02771 104.289C1.81144 105.207 1.08154 106.258 1.08154 107.408C1.08154 108.614 1.88435 109.712 3.21231 110.662C4.39519 111.509 6.03122 112.267 8.00958 112.908C6.03122 113.549 4.39519 114.307 3.21231 115.153C1.88435 116.104 1.08154 117.202 1.08154 118.408C1.08154 119.614 1.88435 120.712 3.21231 121.662C4.39519 122.509 6.03122 123.267 8.00959 123.908C6.03122 124.549 4.39519 125.307 3.21231 126.153C1.88435 127.104 1.08154 128.202 1.08154 129.408C1.08154 130.614 1.88435 131.712 3.21231 132.662C4.39519 133.509 6.03122 134.267 8.00959 134.908C6.03122 135.549 4.39519 136.307 3.21231 137.153C1.88435 138.104 1.08154 139.202 1.08154 140.408C1.08154 141.557 1.81144 142.609 3.02771 143.527C4.24814 144.447 5.99829 145.266 8.13852 145.949C12.4219 147.316 18.3237 148.158 24.8315 148.158C25.2458 148.158 25.5815 147.822 25.5815 147.408C25.5815 146.993 25.2458 146.658 24.8315 146.658C18.4347 146.658 12.6939 145.828 8.59458 144.52C6.53775 143.864 4.96404 143.109 3.93119 142.329C2.87834 141.535 2.58154 140.873 2.58154 140.408C2.58154 139.943 2.87834 139.281 3.93119 138.486C4.96404 137.707 6.53775 136.952 8.59458 136.295C9.28151 136.076 10.0149 135.87 10.7903 135.679C14.532 136.565 19.1155 137.104 24.0815 137.154V137.158H24.3315C24.411 137.158 24.4903 137.158 24.5693 137.157C24.6566 137.158 24.744 137.158 24.8315 137.158H25.0815ZM32.7759 134.908C32.5094 134.971 32.2126 135.033 31.8861 135.092C30.04 135.428 27.4597 135.646 24.5694 135.657C21.0052 135.645 17.6488 135.375 14.6727 134.908C17.6488 134.441 21.0052 134.171 24.5694 134.158C27.4597 134.17 30.04 134.388 31.8861 134.723C32.2126 134.783 32.5094 134.845 32.7759 134.908ZM31.8861 124.092C30.0399 124.428 27.4594 124.646 24.5689 124.657C21.0049 124.645 17.6486 124.375 14.6727 123.908C17.6486 123.441 21.0049 123.171 24.5689 123.158C27.4594 123.17 30.0399 123.388 31.8861 123.723C32.2126 123.783 32.5094 123.845 32.7759 123.908C32.5094 123.971 32.2126 124.033 31.8861 124.092ZM32.7759 112.908C32.5094 112.971 32.2126 113.033 31.8861 113.092C30.0399 113.428 27.4594 113.646 24.5689 113.657C21.0049 113.645 17.6486 113.375 14.6727 112.908C17.6486 112.441 21.0049 112.171 24.5689 112.158C27.4594 112.17 30.0399 112.388 31.8861 112.723C32.2126 112.783 32.5094 112.845 32.7759 112.908Z" fill="#F9C74F" stroke="#F9C74F" stroke-width="0.5"/>
<path d="M25.0815 170.158V170.153C27.9138 170.119 30.4598 169.89 32.3193 169.537C33.274 169.356 34.0603 169.14 34.6139 168.895C34.8898 168.773 35.1218 168.637 35.2887 168.485C35.4551 168.332 35.5815 168.139 35.5815 167.908C35.5815 167.676 35.4551 167.483 35.2887 167.331C35.1218 167.178 34.8898 167.043 34.6139 166.921C34.0603 166.675 33.274 166.459 32.3193 166.278C30.4598 165.926 27.9138 165.697 25.0815 165.662V165.658H24.8315C24.744 165.658 24.6566 165.658 24.5693 165.658C24.4903 165.658 24.411 165.658 24.3315 165.658H24.0815V165.661C19.1155 165.711 14.532 166.251 10.7903 167.136C10.0149 166.945 9.28153 166.739 8.59458 166.52C6.53775 165.864 4.96404 165.109 3.93119 164.329C2.87834 163.535 2.58154 162.873 2.58154 162.408C2.58154 161.943 2.87834 161.281 3.93119 160.486C4.96404 159.707 6.53775 158.952 8.59458 158.295C9.28151 158.076 10.0149 157.87 10.7903 157.679C14.532 158.565 19.1155 159.104 24.0815 159.154V159.158H24.3315C24.411 159.158 24.4903 159.158 24.5693 159.157C24.6566 159.158 24.744 159.158 24.8315 159.158H25.0815V159.153C27.9138 159.119 30.4598 158.89 32.3193 158.537C33.274 158.356 34.0603 158.14 34.6139 157.895C34.8898 157.773 35.1218 157.637 35.2887 157.485C35.4551 157.332 35.5815 157.139 35.5815 156.908C35.5815 156.676 35.4551 156.483 35.2887 156.331C35.1218 156.178 34.8898 156.043 34.6139 155.921C34.0603 155.675 33.274 155.459 32.3193 155.278C30.4598 154.926 27.9138 154.697 25.0815 154.662V154.657L24.8312 154.658L24.6241 154.658L24.6236 154.658L24.5702 154.658C24.5699 154.658 24.5697 154.658 24.5694 154.658C24.4903 154.658 24.411 154.658 24.3315 154.658H24.0815V154.661C19.1155 154.711 14.532 155.251 10.7903 156.136C10.0149 155.945 9.28151 155.739 8.59458 155.52C6.53775 154.864 4.96404 154.109 3.93119 153.329C2.87834 152.535 2.58154 151.873 2.58154 151.408C2.58154 150.943 2.87834 150.281 3.93119 149.486C4.96404 148.707 6.53775 147.952 8.59458 147.295C9.28151 147.076 10.0149 146.87 10.7903 146.679C14.532 147.565 19.1155 148.104 24.0815 148.154V148.158L24.3316 148.158L24.3887 148.158L24.3892 148.158L24.5686 148.157H24.5698L24.731 148.158H24.7314L24.8314 148.158L25.0815 148.158V148.153C27.9138 148.119 30.4598 147.89 32.3193 147.537C33.274 147.356 34.0603 147.14 34.6139 146.895C34.8898 146.773 35.1218 146.637 35.2887 146.485C35.4551 146.332 35.5815 146.139 35.5815 145.908C35.5815 145.676 35.4551 145.483 35.2887 145.331C35.1218 145.178 34.8898 145.043 34.6139 144.921C34.0603 144.675 33.274 144.459 32.3193 144.278C30.4598 143.926 27.9138 143.697 25.0815 143.662V143.658H24.8315C24.744 143.658 24.6566 143.658 24.5693 143.658C24.4903 143.658 24.411 143.658 24.3315 143.658H24.0815V143.661C19.1155 143.711 14.532 144.251 10.7903 145.136C10.0149 144.945 9.28151 144.739 8.59458 144.52C6.53775 143.864 4.96404 143.109 3.93119 142.329C2.87834 141.535 2.58154 140.873 2.58154 140.408C2.58154 139.943 2.87834 139.281 3.93119 138.486C4.96404 137.707 6.53775 136.952 8.59458 136.295C12.6939 134.987 18.4347 134.158 24.8315 134.158C25.2458 134.158 25.5815 133.822 25.5815 133.408C25.5815 132.993 25.2458 132.658 24.8315 132.658C18.3237 132.658 12.4219 133.499 8.13852 134.866C5.99829 135.549 4.24814 136.368 3.02771 137.289C1.81144 138.207 1.08154 139.258 1.08154 140.408C1.08154 141.614 1.88435 142.712 3.21231 143.662C4.39519 144.509 6.03122 145.267 8.00958 145.908C6.03122 146.549 4.39519 147.307 3.21231 148.153C1.88435 149.104 1.08154 150.202 1.08154 151.408C1.08154 152.614 1.88435 153.712 3.21231 154.662C4.39519 155.509 6.03122 156.267 8.00959 156.908C6.03122 157.549 4.39519 158.307 3.21231 159.153C1.88435 160.104 1.08154 161.202 1.08154 162.408C1.08154 163.614 1.88435 164.712 3.21231 165.662C4.39519 166.509 6.03122 167.267 8.00959 167.908C6.03122 168.549 4.39519 169.307 3.21231 170.153C1.88435 171.104 1.08154 172.202 1.08154 173.408C1.08154 174.557 1.81144 175.609 3.02771 176.527C4.24814 177.447 5.99829 178.266 8.13852 178.949C12.4219 180.316 18.3237 181.158 24.8315 181.158C25.2458 181.158 25.5815 180.822 25.5815 180.408C25.5815 179.993 25.2458 179.658 24.8315 179.658C18.4347 179.658 12.6939 178.828 8.59458 177.52C6.53775 176.864 4.96404 176.109 3.93119 175.329C2.87834 174.535 2.58154 173.873 2.58154 173.408C2.58154 172.943 2.87834 172.281 3.93119 171.486C4.96404 170.707 6.53775 169.952 8.59458 169.295C9.28151 169.076 10.0149 168.87 10.7903 168.679C14.532 169.565 19.1155 170.104 24.0815 170.154V170.158H24.3315C24.411 170.158 24.4903 170.158 24.5693 170.157C24.6566 170.158 24.744 170.158 24.8315 170.158H25.0815ZM32.7759 167.908C32.5094 167.971 32.2126 168.033 31.8861 168.092C30.04 168.428 27.4597 168.646 24.5694 168.657C21.0052 168.645 17.6488 168.375 14.6727 167.908C17.6488 167.441 21.0052 167.171 24.5694 167.158C27.4597 167.17 30.04 167.388 31.8861 167.723C32.2126 167.783 32.5094 167.845 32.7759 167.908ZM31.8861 157.092C30.0399 157.428 27.4594 157.646 24.5689 157.657C21.0049 157.645 17.6486 157.375 14.6727 156.908C17.6486 156.441 21.0049 156.171 24.5689 156.158C27.4594 156.17 30.0399 156.388 31.8861 156.723C32.2126 156.783 32.5094 156.845 32.7759 156.908C32.5094 156.971 32.2126 157.033 31.8861 157.092ZM32.7759 145.908C32.5094 145.971 32.2126 146.033 31.8861 146.092C30.0399 146.428 27.4594 146.646 24.5689 146.657C21.0049 146.645 17.6486 146.375 14.6727 145.908C17.6486 145.441 21.0049 145.171 24.5689 145.158C27.4594 145.17 30.0399 145.388 31.8861 145.723C32.2126 145.783 32.5094 145.845 32.7759 145.908Z" fill="#F9C74F" stroke="#F9C74F" stroke-width="0.5"/>
<path d="M25.0815 203.158V203.153C27.9138 203.119 30.4598 202.89 32.3193 202.537C33.274 202.356 34.0603 202.14 34.6139 201.895C34.8898 201.773 35.1218 201.637 35.2887 201.485C35.4551 201.332 35.5815 201.139 35.5815 200.908C35.5815 200.676 35.4551 200.483 35.2887 200.331C35.1218 200.178 34.8898 200.043 34.6139 199.921C34.0603 199.675 33.274 199.459 32.3193 199.278C30.4598 198.926 27.9138 198.697 25.0815 198.662V198.658H24.8315C24.744 198.658 24.6566 198.658 24.5693 198.658C24.4903 198.658 24.411 198.658 24.3315 198.658H24.0815V198.661C19.1155 198.711 14.532 199.251 10.7903 200.136C10.0149 199.945 9.28153 199.739 8.59458 199.52C6.53775 198.864 4.96404 198.109 3.93119 197.329C2.87834 196.535 2.58154 195.873 2.58154 195.408C2.58154 194.943 2.87834 194.281 3.93119 193.486C4.96404 192.707 6.53775 191.952 8.59458 191.295C9.28151 191.076 10.0149 190.87 10.7903 190.679C14.532 191.565 19.1155 192.104 24.0815 192.154V192.158H24.3315C24.411 192.158 24.4903 192.158 24.5693 192.157C24.6566 192.158 24.744 192.158 24.8315 192.158H25.0815V192.153C27.9138 192.119 30.4598 191.89 32.3193 191.537C33.274 191.356 34.0603 191.14 34.6139 190.895C34.8898 190.773 35.1218 190.637 35.2887 190.485C35.4551 190.332 35.5815 190.139 35.5815 189.908C35.5815 189.676 35.4551 189.483 35.2887 189.331C35.1218 189.178 34.8898 189.043 34.6139 188.921C34.0603 188.675 33.274 188.459 32.3193 188.278C30.4598 187.926 27.9138 187.697 25.0815 187.662V187.657L24.8312 187.658L24.6241 187.658L24.6236 187.658L24.5702 187.658C24.5699 187.658 24.5697 187.658 24.5694 187.658C24.4903 187.658 24.411 187.658 24.3315 187.658H24.0815V187.661C19.1155 187.711 14.532 188.251 10.7903 189.136C10.0149 188.945 9.28151 188.739 8.59458 188.52C6.53775 187.864 4.96404 187.109 3.93119 186.329C2.87834 185.535 2.58154 184.873 2.58154 184.408C2.58154 183.943 2.87834 183.281 3.93119 182.486C4.96404 181.707 6.53775 180.952 8.59458 180.295C9.28151 180.076 10.0149 179.87 10.7903 179.679C14.532 180.565 19.1155 181.104 24.0815 181.154V181.158L24.3316 181.158L24.3887 181.158L24.3892 181.158L24.5686 181.157H24.5698L24.731 181.158H24.7314L24.8314 181.158L25.0815 181.158V181.153C27.9138 181.119 30.4598 180.89 32.3193 180.537C33.274 180.356 34.0603 180.14 34.6139 179.895C34.8898 179.773 35.1218 179.637 35.2887 179.485C35.4551 179.332 35.5815 179.139 35.5815 178.908C35.5815 178.676 35.4551 178.483 35.2887 178.331C35.1218 178.178 34.8898 178.043 34.6139 177.921C34.0603 177.675 33.274 177.459 32.3193 177.278C30.4598 176.926 27.9138 176.697 25.0815 176.662V176.658H24.8315C24.744 176.658 24.6566 176.658 24.5693 176.658C24.4903 176.658 24.411 176.658 24.3315 176.658H24.0815V176.661C19.1155 176.711 14.532 177.251 10.7903 178.136C10.0149 177.945 9.28151 177.739 8.59458 177.52C6.53775 176.864 4.96404 176.109 3.93119 175.329C2.87834 174.535 2.58154 173.873 2.58154 173.408C2.58154 172.943 2.87834 172.281 3.93119 171.486C4.96404 170.707 6.53775 169.952 8.59458 169.295C12.6939 167.987 18.4347 167.158 24.8315 167.158C25.2458 167.158 25.5815 166.822 25.5815 166.408C25.5815 165.993 25.2458 165.658 24.8315 165.658C18.3237 165.658 12.4219 166.499 8.13852 167.866C5.99829 168.549 4.24814 169.368 3.02771 170.289C1.81144 171.207 1.08154 172.258 1.08154 173.408C1.08154 174.614 1.88435 175.712 3.21231 176.662C4.39519 177.509 6.03122 178.267 8.00958 178.908C6.03122 179.549 4.39519 180.307 3.21231 181.153C1.88435 182.104 1.08154 183.202 1.08154 184.408C1.08154 185.614 1.88435 186.712 3.21231 187.662C4.39519 188.509 6.03122 189.267 8.00959 189.908C6.03122 190.549 4.39519 191.307 3.21231 192.153C1.88435 193.104 1.08154 194.202 1.08154 195.408C1.08154 196.614 1.88435 197.712 3.21231 198.662C4.39519 199.509 6.03122 200.267 8.00959 200.908C6.03122 201.549 4.39519 202.307 3.21231 203.153C1.88435 204.104 1.08154 205.202 1.08154 206.408C1.08154 207.557 1.81144 208.609 3.02771 209.527C4.24814 210.447 5.99829 211.266 8.13852 211.949C12.4219 213.316 18.3237 214.158 24.8315 214.158C25.2458 214.158 25.5815 213.822 25.5815 213.408C25.5815 212.993 25.2458 212.658 24.8315 212.658C18.4347 212.658 12.6939 211.828 8.59458 210.52C6.53775 209.864 4.96404 209.109 3.93119 208.329C2.87834 207.535 2.58154 206.873 2.58154 206.408C2.58154 205.943 2.87834 205.281 3.93119 204.486C4.96404 203.707 6.53775 202.952 8.59458 202.295C9.28151 202.076 10.0149 201.87 10.7903 201.679C14.532 202.565 19.1155 203.104 24.0815 203.154V203.158H24.3315C24.411 203.158 24.4903 203.158 24.5693 203.157C24.6566 203.158 24.744 203.158 24.8315 203.158H25.0815ZM32.7759 200.908C32.5094 200.971 32.2126 201.033 31.8861 201.092C30.04 201.428 27.4597 201.646 24.5694 201.657C21.0052 201.645 17.6488 201.375 14.6727 200.908C17.6488 200.441 21.0052 200.171 24.5694 200.158C27.4597 200.17 30.04 200.388 31.8861 200.723C32.2126 200.783 32.5094 200.845 32.7759 200.908ZM31.8861 190.092C30.0399 190.428 27.4594 190.646 24.5689 190.657C21.0049 190.645 17.6486 190.375 14.6727 189.908C17.6486 189.441 21.0049 189.171 24.5689 189.158C27.4594 189.17 30.0399 189.388 31.8861 189.723C32.2126 189.783 32.5094 189.845 32.7759 189.908C32.5094 189.971 32.2126 190.033 31.8861 190.092ZM32.7759 178.908C32.5094 178.971 32.2126 179.033 31.8861 179.092C30.0399 179.428 27.4594 179.646 24.5689 179.657C21.0049 179.645 17.6486 179.375 14.6727 178.908C17.6486 178.441 21.0049 178.171 24.5689 178.158C27.4594 178.17 30.0399 178.388 31.8861 178.723C32.2126 178.783 32.5094 178.845 32.7759 178.908Z" fill="#F9C74F" stroke="#F9C74F" stroke-width="0.5"/>
<path d="M25.0815 236.158V236.153C27.9138 236.119 30.4598 235.89 32.3193 235.537C33.274 235.356 34.0603 235.14 34.6139 234.895C34.8898 234.773 35.1218 234.637 35.2887 234.485C35.4551 234.332 35.5815 234.139 35.5815 233.908C35.5815 233.676 35.4551 233.483 35.2887 233.331C35.1218 233.178 34.8898 233.043 34.6139 232.921C34.0603 232.675 33.274 232.459 32.3193 232.278C30.4598 231.926 27.9138 231.697 25.0815 231.662V231.658H24.8315C24.744 231.658 24.6566 231.658 24.5693 231.658C24.4903 231.658 24.411 231.658 24.3315 231.658H24.0815V231.661C19.1155 231.711 14.532 232.251 10.7903 233.136C10.0149 232.945 9.28153 232.739 8.59458 232.52C6.53775 231.864 4.96404 231.109 3.93119 230.329C2.87834 229.535 2.58154 228.873 2.58154 228.408C2.58154 227.943 2.87834 227.281 3.93119 226.486C4.96404 225.707 6.53775 224.952 8.59458 224.295C9.28151 224.076 10.0149 223.87 10.7903 223.679C14.532 224.565 19.1155 225.104 24.0815 225.154V225.158H24.3315C24.411 225.158 24.4903 225.158 24.5693 225.157C24.6566 225.158 24.744 225.158 24.8315 225.158H25.0815V225.153C27.9138 225.119 30.4598 224.89 32.3193 224.537C33.274 224.356 34.0603 224.14 34.6139 223.895C34.8898 223.773 35.1218 223.637 35.2887 223.485C35.4551 223.332 35.5815 223.139 35.5815 222.908C35.5815 222.676 35.4551 222.483 35.2887 222.331C35.1218 222.178 34.8898 222.043 34.6139 221.921C34.0603 221.675 33.274 221.459 32.3193 221.278C30.4598 220.926 27.9138 220.697 25.0815 220.662V220.657L24.8312 220.658L24.6241 220.658L24.6236 220.658L24.5702 220.658C24.5699 220.658 24.5697 220.658 24.5694 220.658C24.4903 220.658 24.411 220.658 24.3315 220.658H24.0815V220.661C19.1155 220.711 14.532 221.251 10.7903 222.136C10.0149 221.945 9.28151 221.739 8.59458 221.52C6.53775 220.864 4.96404 220.109 3.93119 219.329C2.87834 218.535 2.58154 217.873 2.58154 217.408C2.58154 216.943 2.87834 216.281 3.93119 215.486C4.96404 214.707 6.53775 213.952 8.59458 213.295C9.28151 213.076 10.0149 212.87 10.7903 212.679C14.532 213.565 19.1155 214.104 24.0815 214.154V214.158L24.3316 214.158L24.3887 214.158L24.3892 214.158L24.5686 214.157H24.5698L24.731 214.158H24.7314L24.8314 214.158L25.0815 214.158V214.153C27.9138 214.119 30.4598 213.89 32.3193 213.537C33.274 213.356 34.0603 213.14 34.6139 212.895C34.8898 212.773 35.1218 212.637 35.2887 212.485C35.4551 212.332 35.5815 212.139 35.5815 211.908C35.5815 211.676 35.4551 211.483 35.2887 211.331C35.1218 211.178 34.8898 211.043 34.6139 210.921C34.0603 210.675 33.274 210.459 32.3193 210.278C30.4598 209.926 27.9138 209.697 25.0815 209.662V209.658H24.8315C24.744 209.658 24.6566 209.658 24.5693 209.658C24.4903 209.658 24.411 209.658 24.3315 209.658H24.0815V209.661C19.1155 209.711 14.532 210.251 10.7903 211.136C10.0149 210.945 9.28151 210.739 8.59458 210.52C6.53775 209.864 4.96404 209.109 3.93119 208.329C2.87834 207.535 2.58154 206.873 2.58154 206.408C2.58154 205.943 2.87834 205.281 3.93119 204.486C4.96404 203.707 6.53775 202.952 8.59458 202.295C12.6939 200.987 18.4347 200.158 24.8315 200.158C25.2458 200.158 25.5815 199.822 25.5815 199.408C25.5815 198.993 25.2458 198.658 24.8315 198.658C18.3237 198.658 12.4219 199.499 8.13852 200.866C5.99829 201.549 4.24814 202.368 3.02771 203.289C1.81144 204.207 1.08154 205.258 1.08154 206.408C1.08154 207.614 1.88435 208.712 3.21231 209.662C4.39519 210.509 6.03122 211.267 8.00958 211.908C6.03122 212.549 4.39519 213.307 3.21231 214.153C1.88435 215.104 1.08154 216.202 1.08154 217.408C1.08154 218.614 1.88435 219.712 3.21231 220.662C4.39519 221.509 6.03122 222.267 8.00959 222.908C6.03122 223.549 4.39519 224.307 3.21231 225.153C1.88435 226.104 1.08154 227.202 1.08154 228.408C1.08154 229.614 1.88435 230.712 3.21231 231.662C4.39519 232.509 6.03122 233.267 8.00959 233.908C6.03122 234.549 4.39519 235.307 3.21231 236.153C1.88435 237.104 1.08154 238.202 1.08154 239.408C1.08154 240.557 1.81144 241.609 3.02771 242.527C4.24814 243.447 5.99829 244.266 8.13852 244.949C12.4219 246.316 18.3237 247.158 24.8315 247.158C25.2458 247.158 25.5815 246.822 25.5815 246.408C25.5815 245.993 25.2458 245.658 24.8315 245.658C18.4347 245.658 12.6939 244.828 8.59458 243.52C6.53775 242.864 4.96404 242.109 3.93119 241.329C2.87834 240.535 2.58154 239.873 2.58154 239.408C2.58154 238.943 2.87834 238.281 3.93119 237.486C4.96404 236.707 6.53775 235.952 8.59458 235.295C9.28151 235.076 10.0149 234.87 10.7903 234.679C14.532 235.565 19.1155 236.104 24.0815 236.154V236.158H24.3315C24.411 236.158 24.4903 236.158 24.5693 236.157C24.6566 236.158 24.744 236.158 24.8315 236.158H25.0815ZM32.7759 233.908C32.5094 233.971 32.2126 234.033 31.8861 234.092C30.04 234.428 27.4597 234.646 24.5694 234.657C21.0052 234.645 17.6488 234.375 14.6727 233.908C17.6488 233.441 21.0052 233.171 24.5694 233.158C27.4597 233.17 30.04 233.388 31.8861 233.723C32.2126 233.783 32.5094 233.845 32.7759 233.908ZM31.8861 223.092C30.0399 223.428 27.4594 223.646 24.5689 223.657C21.0049 223.645 17.6486 223.375 14.6727 222.908C17.6486 222.441 21.0049 222.171 24.5689 222.158C27.4594 222.17 30.0399 222.388 31.8861 222.723C32.2126 222.783 32.5094 222.845 32.7759 222.908C32.5094 222.971 32.2126 223.033 31.8861 223.092ZM32.7759 211.908C32.5094 211.971 32.2126 212.033 31.8861 212.092C30.0399 212.428 27.4594 212.646 24.5689 212.657C21.0049 212.645 17.6486 212.375 14.6727 211.908C17.6486 211.441 21.0049 211.171 24.5689 211.158C27.4594 211.17 30.0399 211.388 31.8861 211.723C32.2126 211.783 32.5094 211.845 32.7759 211.908Z" fill="#F9C74F" stroke="#F9C74F" stroke-width="0.5"/>
</svg>
