<svg width="40" height="40" viewBox="0 0 40 40" fill="none" xmlns="http://www.w3.org/2000/svg">
<path d="M18.6864 0.819129C8.00356 1.47831 -0.117775 10.6678 0.541406 21.3506C1.20059 32.0334 10.3901 40.1547 21.0729 39.4956C31.7557 38.8364 39.877 29.6469 39.2178 18.9641C38.5587 8.28128 29.3692 0.159948 18.6864 0.819129ZM20.8419 35.7527C12.1865 36.2868 4.81837 29.7751 4.28429 21.1197C3.75502 12.5422 10.2619 5.09609 18.9173 4.56201C27.4948 4.03274 34.9457 10.6176 35.475 19.195C36.009 27.8505 29.4194 35.2234 20.8419 35.7527ZM13.5645 19.2946C14.8901 19.2128 15.9924 18.049 15.9058 16.6454C15.824 15.3198 14.5822 14.2223 13.2566 14.3041C11.853 14.3907 10.8335 15.6278 10.9153 16.9534C11.0019 18.3569 12.1609 19.3813 13.5645 19.2946ZM26.0408 18.5248C27.3664 18.443 28.4687 17.2792 28.3821 15.8756C28.3003 14.55 27.0584 13.4525 25.7328 13.5343C24.3293 13.6209 23.3098 14.8579 23.3916 16.1835C23.4782 17.5871 24.6372 18.6114 26.0408 18.5248ZM26.7039 24.1979C25.1867 26.2483 22.8368 27.4891 20.3415 27.6431C17.7683 27.8019 15.2837 26.8594 13.6038 25.0062C12.8539 24.2697 11.6795 24.2639 10.9382 24.9359C10.1969 25.6078 10.118 26.865 10.8679 27.6015C13.3804 30.2643 16.9076 31.6121 20.5725 31.386C24.1594 31.1647 27.4942 29.3934 29.6602 26.4419C30.3139 25.6188 30.159 24.376 29.2627 23.8051C28.4445 23.2294 27.2796 23.3796 26.7039 24.1979Z" fill="black"/>
</svg>
